<?xml version="1.0" encoding="utf-8"?>
<!-- Generator: Adobe Illustrator 16.0.0, SVG Export Plug-In . SVG Version: 6.00 Build 0)  -->
<svg version="1.2" baseProfile="tiny" id="Слой_1"
	 xmlns="http://www.w3.org/2000/svg" xmlns:xlink="http://www.w3.org/1999/xlink" x="0px" y="0px" width="2442px" height="396px"
	 viewBox="0 0 2442 396" xml:space="preserve">
<g>
	<path fill-rule="evenodd" fill="#2DACE3" d="M213.745,382.977c-0.411-5.128-1.156-10.256-1.178-15.387
		c-0.125-28.986-0.073-57.974-0.09-86.962c-0.005-9.254,0.667-9.83,9.854-9.826c51.812,0.021,103.622,0.002,155.433-0.044
		c7.727-0.007,9.078,1.151,9.084,8.865c0.021,30.987,0.041,61.974-0.046,92.96c-0.01,3.465-0.702,6.93-1.078,10.394
		C328.397,382.977,271.072,382.977,213.745,382.977z"/>
	<path fill-rule="evenodd" fill="#2DACE3" d="M18.77,382.977c-0.446-4.788-1.259-9.574-1.279-14.365
		c-0.128-29.317-0.073-58.636-0.086-87.954c-0.004-9.292,0.669-9.863,9.831-9.858c51.64,0.031,103.279,0.021,154.918-0.022
		c8.411-0.007,9.617,1.04,9.619,9.358c0.007,30.65,0.034,61.302-0.047,91.952c-0.009,3.63-0.637,7.26-0.978,10.89
		C133.422,382.977,76.097,382.977,18.77,382.977z"/>
	<path fill-rule="evenodd" fill="#2DACE3" d="M191.748,11.023c0.024,34.288,0.069,68.577,0.054,102.865
		c-0.003,5.627-2.344,7.685-8.05,7.677c-51.604-0.077-103.207-0.162-154.81-0.181c-11.646-0.004-11.552,0.05-11.551-11.543
		c0.003-31.126-0.149-62.252-0.197-93.379c-0.003-1.813,0.375-3.626,0.575-5.439C75.763,11.023,133.756,11.023,191.748,11.023z"/>
	<path fill-rule="evenodd" fill="#724393" d="M386.724,11.023c0.031,28.656,0.06,57.314,0.098,85.971
		c0.007,5.666,0.125,11.332,0.056,16.997c-0.065,5.421-2.306,7.593-7.66,7.586c-50.323-0.065-100.646-0.145-150.97-0.214
		c-2.499-0.003-5.001-0.012-7.497,0.098c-6.548,0.287-8.304-1.338-8.302-7.99c0.009-29.828,0.032-59.657,0.075-89.485
		c0.006-4.32,0.146-8.642,0.223-12.962C270.738,11.023,328.731,11.023,386.724,11.023z"/>
	<path fill-rule="evenodd" fill="#724393" d="M2428.469,308.986c-7.538,0.916-15.058,2.334-22.618,2.617
		c-8.93,0.335-11.167-2.159-12.195-10.887c-0.161-1.37-1.044-2.656-1.593-3.981c-1.245,0.631-2.714,1.019-3.704,1.928
		c-17.824,16.356-38.449,18.723-60.865,12.344c-8.844-2.516-16.458-6.924-22.482-14.029c-8.942-10.546-10.506-22.871-9.569-36.084
		c1.112-15.696,9.832-26.364,22.709-33.585c9.589-5.378,20.626-7.293,31.558-8.344c10.243-0.984,20.553-1.324,30.839-1.818
		c6.5-0.313,7.665-1.3,7.319-7.691c-0.195-3.63-0.53-7.31-1.352-10.839c-2.747-11.798-9.449-17.153-21.593-17.154
		c-5.972,0-12.128-0.223-17.867,1.103c-7.499,1.73-14.728,4.736-21.954,7.503c-3.857,1.477-7.317,4.144-11.246,5.209
		c-1.993,0.541-5.804-0.554-6.781-2.144c-6.331-10.308-5.431-25.125,7.447-31.617c19.089-9.623,39.088-14.304,60.127-12.275
		c8.994,0.867,18.12,1.879,26.459,5.615c15.87,7.11,26.367,23.53,27.569,40.641c0.409,5.82-0.285,11.573-0.226,17.379
		c0.152,14.892,0.074,29.792,0.058,44.684c-0.009,8.416-0.039,16.832-0.039,25.248
		C2428.469,285.062,2428.934,308.93,2428.469,308.986z M2387.929,257.414c0-1.831-0.037-3.663,0.007-5.493
		c0.165-6.847-1.213-8.804-7.841-8.501c-9.769,0.446-19.605,1.027-29.222,2.665c-8.262,1.407-16.817,10.59-15.547,21.463
		c1.03,8.813,8.577,15.952,18.116,17.007c8.267,0.915,15.483-1.467,22.084-6.062C2382.835,273.405,2390.665,268.48,2387.929,257.414
		z"/>
	<path fill-rule="evenodd" fill="#724393" d="M1423.033,206.396c-0.006-30.982-0.02-61.965,0.001-92.947
		c0.007-11.397,3.857-15.237,15.363-15.243c45.142-0.023,90.282-0.021,135.424-0.001c9.764,0.005,14.398,4.213,14.413,13.815
		c0.097,63.63,0.044,127.261,0.107,190.891c0.003,3.578-1.468,5.577-4.805,6.572c-11.659,3.478-23.333,3.331-34.848-0.332
		c-1.61-0.513-3.181-3.281-3.509-5.219c-0.576-3.401-0.188-6.969-0.186-10.467c0.045-51.47,0.07-102.939,0.189-154.41
		c0.008-3.803-1.343-5.492-5.221-5.481c-22.819,0.063-45.641,0.032-68.461,0.037c-3.605,0.001-5.431,1.46-5.414,5.429
		c0.157,36.976,0.201,73.951,0.261,110.927c0.027,16.824,0.043,33.648,0.007,50.473c-0.014,6.675-1.033,8.292-7.465,9.826
		c-10.879,2.594-21.842,2.453-32.454-1.161c-1.663-0.566-3.239-4.082-3.284-6.265c-0.284-13.82-0.12-27.648-0.116-41.475
		C1423.043,243.041,1423.039,224.719,1423.033,206.396z"/>
	<path fill-rule="evenodd" fill="#2DACE3" d="M519.741,204.297c-0.002-29.817-0.008-59.635,0.01-89.452
		c0.002-2.162,0.004-4.348,0.297-6.482c0.835-6.078,3.573-8.843,9.596-9.694c2.299-0.325,4.646-0.43,6.971-0.431
		c36.647-0.026,73.295-0.022,109.941-0.018c9.715,0.002,11.375,1.462,11.796,11.104c0.202,4.646,0.233,9.349-0.255,13.962
		c-0.762,7.188-3.824,9.523-11.443,9.518c-24.986-0.017-49.974-0.044-74.96-0.063c-1.332-0.001-2.677-0.07-3.993,0.082
		c-3.458,0.399-5.377,2.139-5.352,5.895c0.086,12.824,0.024,25.649,0.079,38.476c0.022,5.399,2.239,7.512,7.682,7.467
		c7.661-0.063,15.342-0.562,22.978-0.164c11.608,0.604,23.494,0.482,34.703,3.079c17.735,4.108,32.091,13.574,40.234,31.134
		c6.704,14.459,6.759,29.513,3.072,43.94c-5.563,21.776-20.459,35.664-42.188,42.51c-13.776,4.341-27.752,4.949-41.921,4.933
		c-16.991-0.02-33.982,0.018-50.973,0.024c-12.84,0.005-16.268-3.438-16.271-16.365
		C519.738,263.932,519.742,234.114,519.741,204.297z M562.285,246.002c0.044,0.001,0.087,0.001,0.13,0.001
		c0,7.982,0.037,15.965-0.016,23.947c-0.029,4.358,1.784,7.342,6.344,7.171c12.918-0.486,25.89-0.718,38.715-2.162
		c9.889-1.113,17.188-7.938,19.725-16.986c6.002-21.418-2.181-36.881-24.177-40.54c-11.668-1.94-23.875-0.732-35.839-0.742
		c-3.193-0.002-5.077,1.58-4.958,5.374C562.461,230.037,562.285,238.022,562.285,246.002z"/>
	<path fill-rule="evenodd" fill="#2DACE3" d="M201.801,250.666c-25.983-0.001-51.967,0.004-77.951-0.003
		c-8.893-0.002-9.003-0.213-8.992-8.849c0.035-30.48,0.021-60.961-0.018-91.441c-0.01-7.073,1.031-8.238,7.933-8.237
		c52.467,0,104.934,0,157.4,0.003c8.095,0.001,9.257,1.262,9.249,9.164c-0.029,30.813-0.006,61.627,0.039,92.44
		c0.008,5.421-1.222,6.827-7.211,6.88c-11.825,0.103-23.651,0.04-35.478,0.042C231.782,250.668,216.791,250.666,201.801,250.666z"/>
	<path fill-rule="evenodd" fill="#724393" d="M1996.703,245.449c2.11-2.505,4.398-4.881,6.305-7.532
		c17.545-24.412,35.025-48.871,52.514-73.323c1.444-2.021,2.686-4.197,4.236-6.128c6.43-8.009,15.699-5.459,24.034-6.236
		c2.109-0.197,4.289,0.509,6.445,0.622c7.259,0.38,10.244,3.391,10.242,10.588c-0.012,41.144-0.042,82.287-0.063,123.431
		c-0.002,5.33-0.086,10.662,0.057,15.989c0.093,3.471-1.2,5.843-4.581,6.793c-11.471,3.222-22.982,3.727-34.177-0.798
		c-1.792-0.724-3.628-4.007-3.625-6.104c0.036-27.307,0.4-54.612,0.667-81.919c0.003-0.303-0.209-0.608-0.729-2.029
		c-1.916,1.415-4.039,2.328-5.197,3.938c-19.218,26.688-38.527,53.317-57.286,80.33c-4.666,6.72-10.587,8.748-17.823,8.613
		c-5.945-0.111-11.893-0.836-17.809-1.544c-3.721-0.446-5.266-2.846-5.261-6.637c0.056-47.474,0.016-94.945,0.076-142.419
		c0.008-6.339,1.17-7.918,7.369-8.273c8.44-0.483,16.937-0.47,25.388-0.13c6.2,0.249,9.027,3.337,9.045,9.554
		c0.07,24.151-0.036,48.304-0.174,72.456c-0.01,1.767-0.955,3.51-1.171,5.3c-0.212,1.743-0.046,3.534-0.046,5.305
		C1995.66,245.346,1996.182,245.397,1996.703,245.449z"/>
	<path fill-rule="evenodd" fill="#724393" d="M1779.35,230.535c0.748,15.996-2.788,31.524-9.987,46.01
		c-5.955,11.981-15.175,21.396-27.018,27.807c-20.097,10.876-41.824,12.039-63.591,8.089c-17.951-3.257-33.651-11.746-43.436-28.136
		c-3.274-5.484-5.623-11.625-7.705-17.701c-5.509-16.079-5.956-32.773-3.77-49.357c2.971-22.535,11.896-41.983,31.563-55.329
		c13.164-8.933,27.984-11.637,43.304-13.068c12.327-1.152,24.434,1.171,35.878,4.782c15.252,4.813,27.586,14.448,34.909,29.257
		C1776.859,197.775,1779.938,213.628,1779.35,230.535z M1666.303,233.88c0.608,8.511,0.906,18.503,4.899,28.508
		c7.771,19.471,29.002,21.745,44.115,15.657c12.018-4.842,18.563-15.721,19.557-28.627c0.916-11.883,1.145-23.978-0.057-35.803
		c-0.67-6.61-3.988-13.424-7.663-19.153c-6.424-10.015-16.632-12.401-28.219-12.316c-11.376,0.083-23.801,10.761-27.503,19.304
		C1667.107,211.426,1666.344,221.646,1666.303,233.88z"/>
	<path fill-rule="evenodd" fill="#2DACE3" d="M1069.714,232.482c0,22.821-0.154,45.645,0.11,68.463
		c0.064,5.571-2.089,8.406-7.256,9.48c-10.261,2.134-20.456,2.24-30.561-0.903c-3.587-1.116-4.095-3.899-4.086-7.119
		c0.044-15.159,0.033-30.319,0.026-45.478c-0.001-1.997-0.023-4-0.164-5.991c-0.229-3.26-1.979-4.493-5.301-4.468
		c-15.818,0.119-31.639,0.146-47.457-0.01c-4.514-0.044-5.321,2.535-5.335,6.051c-0.042,10.828-0.037,21.654-0.05,32.482
		c-0.008,6.163,0.332,12.356-0.207,18.472c-0.188,2.124-2.139,5.228-3.989,5.88c-10.305,3.627-20.891,3.364-31.44,0.773
		c-4.27-1.049-6.254-3.537-6.244-8.225c0.104-46.31,0.028-92.619,0.053-138.93c0.004-7.816,1.689-10.067,9.428-10.53
		c7.943-0.477,15.978-0.387,23.912,0.226c7.706,0.595,8.498,1.918,8.51,9.809c0.021,14.158-0.012,28.318-0.075,42.477
		c-0.029,6.454,0.762,7.319,6.995,7.313c14.825-0.016,29.65-0.015,44.477-0.007c6.087,0.003,6.971-0.891,6.949-6.861
		c-0.053-14.325-0.107-28.651-0.084-42.978c0.013-7.848,0.828-9.171,8.573-9.763c7.935-0.606,15.971-0.688,23.913-0.202
		c7.735,0.474,9.329,2.726,9.334,10.573c0.009,15.659-0.039,31.317-0.057,46.976c-0.008,7.496-0.001,14.992-0.001,22.49
		C1069.696,232.482,1069.705,232.482,1069.714,232.482z"/>
	<path fill-rule="evenodd" fill="#2DACE3" d="M1191.653,241.709c-13.66,0-27.321,0.055-40.981-0.033
		c-4.165-0.026-6.128,1.764-6.24,5.932c-0.355,13.133,7.314,26.441,19.426,31.108c9.69,3.733,20.079,4.116,30.5,2.987
		c12.146-1.316,23.84-4.355,35.37-8.242c5.699-1.921,7.985-0.42,8.826,5.602c0.274,1.97,0.265,3.986,0.303,5.983
		c0.358,18.718-2.553,18.137-18.338,23.317c-15.69,5.15-32.189,6.87-48.792,5.614c-20.656-1.562-39.658-7.079-53.371-24.021
		c-6.343-7.835-10.672-16.686-12.704-26.687c-2.392-11.775-4.67-23.576-3.648-35.626c1.947-22.98,7.359-44.659,25.309-61.026
		c7.744-7.061,16.834-11.563,26.971-14.344c9.088-2.493,18.209-4.179,27.604-3.38c22.432,1.906,42.397,8.748,54.646,29.421
		c6.752,11.396,9.048,24.222,10.218,37.224c0.371,4.13,0.116,8.326,0.021,12.488c-0.206,8.984-5.086,13.813-14.132,13.857
		c-13.661,0.068-27.323,0.018-40.984,0.018C1191.653,241.838,1191.653,241.773,1191.653,241.709z M1174.594,215.482
		c0.001-0.013,0.001-0.025,0.001-0.038c7.975,0,15.948,0.006,23.923-0.002c3.795-0.004,7.358-0.717,7.232-5.487
		c-0.267-10.134-5.521-23.974-17.22-29.013c-20.365-8.771-43.151,6.746-43.743,28.671c-0.116,4.318,1.629,5.999,5.888,5.915
		C1158.646,215.369,1166.621,215.482,1174.594,215.482z"/>
	<path fill-rule="evenodd" fill="#724393" d="M2140.831,231.98c0-22.656,0.002-45.313-0.002-67.97
		c-0.002-8.7,1.419-10.823,10.089-11.427c7.93-0.551,15.962-0.353,23.901,0.2c6.938,0.483,8.555,2.813,8.564,10.218
		c0.018,13.994-0.016,27.988-0.084,41.981c-0.037,7.913,1.439,9.35,9.364,8.803c12.233-0.845,21.461-8.841,25.435-21.21
		c2.22-6.911,5.335-13.535,8.063-20.282c2.041-5.052,3.813-10.244,6.305-15.066c0.987-1.911,3.522-4.127,5.474-4.247
		c9.441-0.582,18.955-1.029,28.381-0.479c7.271,0.425,8.745,3.147,6.54,10.009c-2.075,6.457-4.622,12.773-7.205,19.051
		c-2.266,5.504-5.033,10.803-7.295,16.308c-4.895,11.92-12.412,21.495-23.879,27.729c-2.547,1.385-4.687,3.444-0.658,5.196
		c12.003,5.221,19.537,14.434,24.633,26.087c6.441,14.726,13.061,29.373,19.359,44.157c2.313,5.426,1.557,7.549-3.93,9.064
		c-11.455,3.164-23.097,2.625-34.383-0.924c-2.255-0.71-4.175-3.729-5.424-6.114c-2.141-4.092-3.691-8.499-5.382-12.816
		c-3.623-9.259-6.677-18.778-10.876-27.765c-6.438-13.773-16.488-18.141-30.873-16.56c-3.154,0.346-3.783,2.612-3.764,5.453
		c0.115,16.657-0.013,33.318,0.273,49.973c0.084,4.841-1.542,7.136-6.284,8.451c-10.09,2.797-20.021,2.603-30.078,0.182
		c-4.605-1.109-6.388-3.629-6.341-8.534c0.223-23.154,0.1-46.312,0.1-69.468C2140.847,231.98,2140.839,231.98,2140.831,231.98z"/>
	<path fill-rule="evenodd" fill="#724393" d="M1894.982,226.335c7.447,5.216,13.904,8.5,18.769,13.376
		c14.775,14.81,13.597,31.918,4.112,47.954c-7.267,12.288-18.898,18.245-32.287,22.22c-15.704,4.66-31.499,5.173-47.446,3.188
		c-10.558-1.314-20.88-4.21-30.119-9.707c-2.317-1.378-4.063-4.331-5.212-6.938c-3.157-7.167-2.834-14.591-0.189-21.86
		c1.381-3.796,3.733-4.354,7.437-2.226c12.964,7.455,26.506,12.826,41.968,12.42c7.462-0.196,14.118-2.142,20.445-5.603
		c9.972-5.455,10.906-21.417,1.955-28.903c-6.86-5.738-15.353-5.901-23.478-6.832c-5.913-0.678-11.979,0.022-17.977,0.051
		c-7.977,0.037-10.537-2.319-10.84-10.236c-0.134-3.478-0.089-6.997,0.283-10.453c0.479-4.463,2.995-6.563,7.752-6.58
		c8.98-0.034,18.003-0.095,26.925-0.984c6.517-0.649,12.283-3.513,16.612-9.006c6.021-7.645,2.761-20.795-6.242-24.405
		c-9.424-3.779-18.733-4.58-28.737-1.62c-8.811,2.608-17.326,5.459-25.135,10.38c-4.901,3.088-9.347,0.729-9.913-5.084
		c-0.259-2.644-0.188-5.326-0.151-7.989c0.167-12.237,1.532-14.252,13.424-19.575c21.196-9.488,43.351-11.622,66.259-6.027
		c11.673,2.851,21.172,8.165,28.53,17.701c5.772,7.481,7.557,16.06,6.479,24.909c-1.42,11.659-6.653,21.513-17.31,27.725
		C1898.757,223.475,1896.812,225.054,1894.982,226.335z"/>
	<path fill-rule="evenodd" fill="#2DACE3" d="M823.32,314.377c-8.276,1.203-19.869-3.155-31.652-5.95
		c-3.789-0.899-7.673-2.757-10.677-5.202c-2.681-2.183-5.446-5.579-5.976-8.801c-0.957-5.824-0.72-11.961-0.141-17.885
		c0.492-5.048,4.35-6.444,8.777-3.887c13.931,8.049,28.671,13.566,45.007,11.751c5.938-0.66,12.233-2.548,17.287-5.638
		c7.357-4.499,8.35-12.374,6.829-20.44c-1.132-6.005-7.171-11.876-13.958-12.548c-11.225-1.11-22.507-1.764-33.78-2.211
		c-5.714-0.227-9.957-3.523-10.268-9.159c-0.147-2.66-0.188-5.332-0.14-7.996c0.119-6.472,3.807-9.968,10.269-10.174
		c8.974-0.287,18.069,0.021,26.86-1.443c4.885-0.813,10.07-3.869,13.693-7.384c8.396-8.146,4.611-21.498-6.205-26.068
		c-10.014-4.231-19.822-3.986-29.638-0.278c-8.168,3.086-16.115,6.756-24.138,10.222c-3.332,1.438-5.957,0.879-7.332-2.639
		c-3.18-8.128-1.674-16.131,1.565-23.759c0.836-1.97,3.6-3.444,5.797-4.449c5.979-2.735,11.93-6.044,18.261-7.391
		c10.033-2.136,20.339-3.642,30.578-3.989c13.781-0.467,27.033,3.047,39.353,9.284c15.479,7.839,22.616,31.692,14.891,47.063
		c-3.647,7.259-8.52,12.943-15.268,17.332c-1.632,1.061-2.481,3.323-3.69,5.034c1.721,1.003,3.367,2.171,5.175,2.981
		c7.292,3.272,13.015,8.068,17.399,14.955c5.291,8.311,5.841,17.093,4.714,26.362c-1.39,11.435-7.449,20.104-16.24,27.034
		C865.048,311.422,846.541,313.697,823.32,314.377z"/>
	<path fill-rule="evenodd" fill="#2DACE3" d="M1271.643,230.026c-0.667-12.034,2.6-28.129,9.681-43.224
		c6.12-13.048,15.483-23.333,28.829-29.795c12.568-6.085,25.88-9.154,39.52-7.906c12.468,1.141,25.009,3.63,35.319,12.108
		c3.587,2.947,5.082,6.469,5.176,10.801c0.113,5.158,0.475,10.37-0.118,15.459c-0.355,3.04-1.581,6.803-3.765,8.604
		c-3.043,2.511-5.839-0.601-8.662-2.535c-9.531-6.537-19.455-11.824-31.747-11.343c-9.215,0.361-21.867,8.774-25.756,18.313
		c-6.688,16.403-5.966,33.061-3.567,49.621c1.709,11.8,6.841,22.785,19.575,27.445c9.116,3.336,18.353,3.514,27.116-0.795
		c6.059-2.979,11.705-6.83,17.416-10.479c5.375-3.433,9.027-2.614,9.631,3.614c0.787,8.143,0.641,16.546-0.547,24.625
		c-0.48,3.271-4.226,6.918-7.424,8.779c-11.017,6.414-23.02,10.021-35.88,10.755c-12.167,0.694-24.076-0.739-35.202-5.462
		c-9.972-4.234-18.563-10.521-24.929-19.879C1275.143,272.319,1271.88,254.045,1271.643,230.026z"/>
	<path fill-rule="evenodd" fill="#2DACE3" d="M309.903,196.483c0-15.81-0.003-31.619,0.001-47.429
		c0.001-5.272,1.52-6.908,6.798-6.917c20.803-0.036,41.604-0.044,62.407,0.02c6.412,0.02,7.77,1.668,7.765,8.068
		c-0.025,31.287-0.078,62.573,0.12,93.858c0.029,4.65-1.87,6.501-6.057,6.512c-21.967,0.055-43.935,0.046-65.901,0.025
		c-3.734-0.003-5.235-1.971-5.212-5.712c0.097-16.142,0.041-32.283,0.041-48.426C309.878,196.483,309.891,196.483,309.903,196.483z"
		/>
	<path fill-rule="evenodd" fill="#2DACE3" d="M94.36,196.603c0,16.146-0.081,32.294,0.057,48.438
		c0.034,4.068-2.234,5.354-5.545,5.494c-4.986,0.21-9.985,0.124-14.98,0.127c-16.149,0.01-32.299,0.013-48.448-0.001
		c-7.755-0.006-8.116-0.63-8.095-8.185c0.089-30.8,0.063-61.601-0.022-92.4c-0.019-6.59,1.083-7.943,7.671-7.944
		c20.145,0,40.29-0.006,60.436,0.01c7.73,0.006,8.806,1.316,8.743,9.01c-0.123,15.149-0.036,30.301-0.036,45.451
		C94.213,196.603,94.286,196.603,94.36,196.603z"/>
	<path fill-rule="evenodd" fill="#2DACE3" d="M745.34,232.48c0,23.314-0.08,46.63,0.071,69.943c0.029,4.435-1.502,6.552-5.893,7.649
		c-9.746,2.436-19.396,2.396-29.123,0.264c-4.946-1.085-6.962-3.86-6.944-9.2c0.155-45.962,0.05-91.926,0.037-137.889
		c-0.001-6.952,2.648-10.272,9.681-10.643c7.771-0.409,15.628-0.479,23.368,0.208c7.04,0.626,8.826,3.416,8.827,10.722
		c0.002,22.981,0,45.963,0,68.945C745.356,232.48,745.349,232.48,745.34,232.48z"/>
	<path fill-rule="evenodd" fill="#2DACE3" d="M717.477,129.907c-4.685-0.997-9.476-1.658-14.024-3.087
		c-4.743-1.489-8.229-4.93-8.497-10.072c-0.327-6.27-0.126-12.607,0.407-18.867c0.369-4.331,6.04-9.973,10.352-10.202
		c7.932-0.424,15.924-0.651,23.839-0.143c6.308,0.405,10.903,5.713,11.675,14.247c0.524,5.794-0.226,12.024-1.901,17.612
		c-2.006,6.687-8.486,8.396-14.723,9.469c-2.282,0.391-4.644,0.329-6.968,0.474C717.583,129.527,717.529,129.718,717.477,129.907z"
		/>
</g>
</svg>
