<svg version="1.1" id="Layer_3" xmlns="http://www.w3.org/2000/svg" xmlns:xlink="http://www.w3.org/1999/xlink" x="0px" y="0px"
	 viewBox="0 0 484 154" style="enable-background:new 0 0 484 154;" xml:space="preserve" width="800" height="255">
<style type="text/css">
	.st0{fill:url(#SVGID_1_);}
	.st1{fill:url(#SVGID_2_);}
	.st2{fill:url(#SVGID_3_);}
	.st3{fill:url(#SVGID_4_);}
	.st4{fill:url(#SVGID_5_);}
	.st5{fill:url(#SVGID_6_);}
	.st6{fill:url(#SVGID_7_);}
	.st7{fill:#00BE23;}
	.st8{fill:#FFFFFF;}
</style>
<g>
	<linearGradient id="SVGID_1_" gradientUnits="userSpaceOnUse" x1="147.6979" y1="118.0726" x2="147.6979" y2="1.4216">
		<stop  offset="0.4358" style="stop-color:#00BE23"/>
		<stop  offset="0.4863" style="stop-color:#03BF26"/>
		<stop  offset="0.5269" style="stop-color:#0DC12E"/>
		<stop  offset="0.564" style="stop-color:#1EC63D"/>
		<stop  offset="0.5991" style="stop-color:#36CC52"/>
		<stop  offset="0.6328" style="stop-color:#55D46C"/>
		<stop  offset="0.6654" style="stop-color:#7BDD8D"/>
		<stop  offset="0.6971" style="stop-color:#A8E9B4"/>
		<stop  offset="0.7274" style="stop-color:#DAF6DF"/>
		<stop  offset="0.7469" style="stop-color:#FFFFFF"/>
		<stop  offset="0.7937" style="stop-color:#C1EFC9"/>
		<stop  offset="0.8496" style="stop-color:#7DDE8F"/>
		<stop  offset="0.9003" style="stop-color:#47D060"/>
		<stop  offset="0.9438" style="stop-color:#20C63F"/>
		<stop  offset="0.9785" style="stop-color:#09C02B"/>
		<stop  offset="1" style="stop-color:#00BE23"/>
	</linearGradient>
	<path class="st0" d="M290.9,118.1c0,0-266.4,0-275.7,0S5.1,110.9,5.1,97.5S4.5,59.7,4.5,59.7s0.6-19.1,0.6-38.1S9.7,1.4,14.7,1.4
		s276.2,0,276.2,0V118.1z"/>
	<linearGradient id="SVGID_2_" gradientUnits="userSpaceOnUse" x1="382.8099" y1="118.0726" x2="382.8099" y2="1.4216">
		<stop  offset="0.453" style="stop-color:#E2E4EC"/>
		<stop  offset="0.7262" style="stop-color:#FFFFFF"/>
		<stop  offset="0.9456" style="stop-color:#E2E4EC"/>
	</linearGradient>
	<path class="st1" d="M290.9,1.4c0,0,167.9,0,174,0s9.7,2,9.7,37.9c0,37.4,0,1.9,0,40.3c0,35.1-3.7,38.4-9.7,38.4c-6,0-174,0-174,0
		V1.4z"/>
</g>
<g>
	<linearGradient id="SVGID_3_" gradientUnits="userSpaceOnUse" x1="3.0747" y1="97.5323" x2="3.0747" y2="21.602">
		<stop  offset="0.5455" style="stop-color:#FFFFFF"/>
		<stop  offset="0.7148" style="stop-color:#FDFDFD"/>
		<stop  offset="0.7759" style="stop-color:#F6F6F6"/>
		<stop  offset="0.8194" style="stop-color:#EBEBEB"/>
		<stop  offset="0.8545" style="stop-color:#DADADA"/>
		<stop  offset="0.8847" style="stop-color:#C4C4C4"/>
		<stop  offset="0.9114" style="stop-color:#A8A8A8"/>
		<stop  offset="0.9355" style="stop-color:#888888"/>
		<stop  offset="0.9577" style="stop-color:#626262"/>
		<stop  offset="0.9783" style="stop-color:#373737"/>
		<stop  offset="0.9966" style="stop-color:#090909"/>
		<stop  offset="1" style="stop-color:#000000"/>
	</linearGradient>
	<path class="st2" d="M5.1,97.5c0,0-0.5,0-2,0c-2.4,0-2-38-2-38s-0.2-38,2-38c1.4,0,2,0,2,0V97.5z"/>
	<linearGradient id="SVGID_4_" gradientUnits="userSpaceOnUse" x1="3.0747" y1="41.602" x2="3.0747" y2="97.5323">
		<stop  offset="0.2692" style="stop-color:#FFFFFF"/>
		<stop  offset="0.3825" style="stop-color:#C3C3C3"/>
		<stop  offset="0.5056" style="stop-color:#888888"/>
		<stop  offset="0.6247" style="stop-color:#575757"/>
		<stop  offset="0.7366" style="stop-color:#313131"/>
		<stop  offset="0.8396" style="stop-color:#161616"/>
		<stop  offset="0.9306" style="stop-color:#060606"/>
		<stop  offset="1" style="stop-color:#000000"/>
	</linearGradient>
	<path class="st3" d="M5.1,97.5c0,0-0.5,0-2,0c-2.4,0-2-38-2-38s0.1-15,0.1-18c1,0,1.3,0,1.8,0c1.4,0,2,0,2,0V97.5z"/>
</g>
<g>
	<linearGradient id="SVGID_5_" gradientUnits="userSpaceOnUse" x1="478.916" y1="49.5114" x2="478.916" y2="39.2634">
		<stop  offset="0" style="stop-color:#FFFFFF"/>
		<stop  offset="8.489490e-02" style="stop-color:#F6F6F6"/>
		<stop  offset="0.2235" style="stop-color:#DEDEDE"/>
		<stop  offset="0.3985" style="stop-color:#B6B6B6"/>
		<stop  offset="0.6031" style="stop-color:#7F7F7F"/>
		<stop  offset="0.8298" style="stop-color:#393939"/>
		<stop  offset="1" style="stop-color:#000000"/>
	</linearGradient>
	<path class="st4" d="M474.7,49.5V39.3c0,0,5.1,0,6.9,0c0.9,0,1.3,5.2,1.6,10.2C480.3,49.5,474.7,49.5,474.7,49.5z"/>
	<linearGradient id="SVGID_6_" gradientUnits="userSpaceOnUse" x1="478.916" y1="69.2634" x2="478.916" y2="79.511">
		<stop  offset="0" style="stop-color:#FFFFFF"/>
		<stop  offset="0.2509" style="stop-color:#BEBEBE"/>
		<stop  offset="1" style="stop-color:#000000"/>
	</linearGradient>
	<path class="st5" d="M481.6,79.5c-1.9,0-6.9,0-6.9,0V69.3c0,0,4.2,0,8.5,0C483,74.4,482.6,79.5,481.6,79.5z"/>
	<linearGradient id="SVGID_7_" gradientUnits="userSpaceOnUse" x1="478.916" y1="69.2634" x2="478.916" y2="49.5112">
		<stop  offset="1.678323e-02" style="stop-color:#FFFFFF"/>
		<stop  offset="0.342" style="stop-color:#828282"/>
		<stop  offset="0.601" style="stop-color:#252525"/>
		<stop  offset="0.7168" style="stop-color:#000000"/>
		<stop  offset="0.9108" style="stop-color:#FFFFFF"/>
	</linearGradient>
	<polygon class="st6" points="474.7,49.5 483.1,49.5 483.1,69.3 474.7,69.3 	"/>
</g>
<g>
	<path class="st7" d="M342.2,34.6v50.1h9.7V72.8h12.2v11.9h9.7V34.6H342.2L342.2,34.6z M351.8,68L351.8,68V39.3h12.2V68H351.8
		L351.8,68z"/>
	<polygon class="st7" points="306,34.6 306,39.3 327.9,39.3 327.9,53.6 315.7,53.6 315.7,58.4 327.9,58.4 327.9,79.9 306,79.9 
		306,84.7 337.6,84.7 337.6,34.6 306,34.6 	"/>
	<polygon class="st7" points="400.3,34.6 388.1,70.1 388.1,34.6 378.4,34.6 378.4,84.7 388.1,84.7 388.1,84.7 400.3,49.2 
		400.3,84.7 410,84.7 410,34.6 400.3,34.6 400.3,34.6 	"/>
	<polygon class="st7" points="400.3,25.1 388.1,25.1 388.1,29.8 400.3,29.8 400.3,25.1 	"/>
	<polygon class="st7" points="445.8,34.6 435.2,65.4 424.6,34.6 414.9,34.6 414.9,84.7 424.6,84.7 424.6,49.2 432.7,72.7 
		437.7,72.7 445.8,49.2 445.8,84.7 455.5,84.7 455.5,34.6 445.8,34.6 	"/>
</g>
<g>
	<path class="st8" d="M54.3,39.4v-4.8H22.6v50.1h31.7v-31h-22V39.4H54.3z M44.6,58.4v21.5H32.4V58.4H44.6z"/>
	<path class="st8" d="M68.9,34.6h-9.7v50.1h31.6v-31H68.9V34.6z M81.2,58.4v21.6H68.9V58.4H81.2z"/>
	<rect x="93.9" y="34.6" class="st8" width="9.7" height="50.1"/>
	<polygon class="st8" points="140.2,39.4 140.2,34.6 108.5,34.6 108.5,84.7 140.2,84.7 140.2,79.9 118.2,79.9 118.2,39.4 	"/>
	<polygon class="st8" points="145,34.6 145,84.7 154.7,84.7 154.7,39.4 167,39.4 167,84.7 176.7,84.7 176.7,39.4 189,39.4 189,84.7 
		198.7,84.7 198.7,34.6 	"/>
	<path class="st8" d="M203.6,34.6v50.1h9.7V72.8h21.9V34.6H203.6z M225.6,68h-12.3V39.4h12.3V68z"/>
	<path class="st8" d="M240.1,34.6v50.1h31.7V34.6H240.1z M262.1,79.9h-12.3V39.4h12.3V79.9z"/>
</g>
<path class="st7" d="M16.4,143v-2.4c0.6,0,1.1,0,1.4-0.1c0.3-0.1,0.6-0.3,0.8-0.6c0.3-0.3,0.4-0.7,0.4-1.1c0-0.4-0.2-0.9-0.5-1.2
	c-0.3-0.4-0.8-0.6-1.4-0.6c-0.5,0-0.9,0.1-1.3,0.3c-0.4,0.2-0.7,0.7-1,1.5l-3.1-0.7c0.3-1.2,1-2.2,2-2.8c1-0.6,2.2-0.9,3.5-0.9
	c1.7,0,3,0.4,3.9,1.2c0.9,0.8,1.4,1.8,1.4,2.9c0,0.7-0.2,1.3-0.6,1.8c-0.4,0.5-1,0.9-1.9,1.4c1,0.3,1.8,0.7,2.3,1.3
	c0.5,0.6,0.8,1.3,0.8,2.2c0,1.1-0.5,2-1.5,2.8c-1,0.8-2.5,1.2-4.4,1.2c-3.3,0-5.3-1.3-6.1-4l3.4-0.6c0.5,1.4,1.4,2.1,2.7,2.1
	c0.7,0,1.2-0.2,1.6-0.6c0.4-0.4,0.6-0.8,0.6-1.3c0-0.6-0.2-1-0.6-1.3c-0.4-0.3-1-0.5-1.7-0.5H16.4L16.4,143z M28.3,139l-3.3-0.6
	c0.4-1.4,1-2.4,1.9-3c0.9-0.7,2.3-1,4.1-1c1.6,0,2.9,0.2,3.7,0.6c0.8,0.4,1.4,0.9,1.7,1.5c0.3,0.6,0.5,1.7,0.5,3.4l0,4.4
	c0,1.2,0.1,2.2,0.2,2.8c0.1,0.6,0.3,1.2,0.7,1.9H34c-0.1-0.3-0.2-0.6-0.4-1.1c-0.1-0.2-0.1-0.4-0.1-0.4c-0.6,0.6-1.3,1.1-2,1.4
	c-0.7,0.3-1.5,0.5-2.3,0.5c-1.4,0-2.6-0.4-3.4-1.2c-0.8-0.8-1.2-1.8-1.2-3c0-0.8,0.2-1.5,0.6-2.1c0.4-0.6,0.9-1.1,1.6-1.4
	c0.7-0.3,1.6-0.6,2.9-0.9c1.7-0.3,2.9-0.6,3.6-0.9v-0.4c0-0.7-0.2-1.2-0.5-1.5c-0.3-0.3-1-0.5-2-0.5c-0.7,0-1.2,0.1-1.5,0.4
	C28.8,137.9,28.5,138.3,28.3,139L28.3,139z M33.2,142c-0.5,0.2-1.2,0.4-2.2,0.6c-1,0.2-1.7,0.4-2,0.7c-0.5,0.4-0.7,0.8-0.7,1.3
	c0,0.5,0.2,1,0.6,1.4c0.4,0.4,0.9,0.6,1.5,0.6c0.7,0,1.3-0.2,1.9-0.7c0.4-0.3,0.7-0.8,0.9-1.2c0.1-0.3,0.1-0.9,0.1-1.8V142L33.2,142
	z M40.3,153.2v-18.5l0,0h3.4v2.1c0.4-0.7,1-1.3,1.8-1.7c0.8-0.4,1.6-0.7,2.5-0.7c1.6,0,3,0.6,4.1,1.9c1.1,1.3,1.7,3.1,1.7,5.4
	c0,2.4-0.6,4.2-1.7,5.5c-1.1,1.3-2.5,2-4.1,2c-0.8,0-1.5-0.2-2.1-0.5c-0.6-0.3-1.3-0.8-2-1.6v6.1 M43.9,141.5c0,1.6,0.3,2.8,0.9,3.5
	c0.6,0.8,1.4,1.1,2.3,1.1c0.9,0,1.6-0.4,2.1-1c0.6-0.7,0.9-1.8,0.9-3.4c0-1.5-0.3-2.6-0.9-3.3c-0.6-0.7-1.3-1.1-2.2-1.1
	c-0.9,0-1.6,0.4-2.2,1.1C44.2,139.1,43.9,140.1,43.9,141.5L43.9,141.5z M68.3,134.7v14.1h-3.6V143h-0.3c-0.8,0-1.4,0.1-1.7,0.3
	c-0.4,0.2-0.8,0.6-1.2,1.3l-0.2,0.3l-2.4,4h-4.3l2.6-4.1c0.7-1.2,1.4-1.9,2-2c-1-0.1-1.9-0.5-2.5-1.2c-0.6-0.7-1-1.7-1-2.8
	c0-0.9,0.2-1.7,0.6-2.3c0.4-0.7,1-1.1,1.7-1.3c0.7-0.2,1.7-0.4,3.1-0.4H68.3L68.3,134.7z M64.6,137.1H62c-1,0-1.6,0.1-2,0.4
	c-0.4,0.3-0.6,0.7-0.6,1.4c0,0.6,0.2,1.1,0.7,1.4c0.4,0.3,1.2,0.4,2.2,0.4h2.4V137.1L64.6,137.1z M83.5,151.6v-2.7l0,0H73v2.7
	 M70,151.6v-5.8h1.5c0.6-0.7,1.1-1.8,1.6-3.3c0.4-1.5,0.7-4.1,0.7-7.8H85v11.1h1.5v5.8 M81.3,145.8l0-8h-4.4c-0.1,3.9-0.8,6.6-1.8,8
	H81.3L81.3,145.8z M88.9,134.7h3.5v8.9l5.6-8.9h3.6v14.1h-3.5v-9l-5.7,9h-3.5V134.7L88.9,134.7z M117.5,138.9l-3.6,0.7
	c-0.1-0.7-0.4-1.3-0.8-1.7c-0.4-0.4-1-0.6-1.7-0.6c-0.9,0-1.6,0.3-2.2,1c-0.5,0.6-0.8,1.7-0.8,3.2c0,1.7,0.3,2.9,0.8,3.6
	c0.6,0.7,1.3,1,2.2,1c0.7,0,1.3-0.2,1.7-0.6c0.4-0.4,0.8-1.1,0.9-2.1l3.6,0.6c-0.4,1.7-1.1,3-2.2,3.8c-1.1,0.9-2.5,1.3-4.3,1.3
	c-2,0-3.6-0.7-4.8-2c-1.2-1.3-1.8-3.1-1.8-5.4c0-2.3,0.6-4.2,1.8-5.5c1.2-1.3,2.8-2,4.9-2c1.7,0,3,0.4,4,1.1
	C116.3,136.2,117.1,137.4,117.5,138.9L117.5,138.9z M120.3,134.7h3.7v5.9h3.7c1.4,0,2.6,0.1,3.3,0.3c0.8,0.2,1.4,0.7,1.9,1.4
	c0.5,0.7,0.8,1.5,0.8,2.5c0,1.4-0.5,2.4-1.4,3.1c-0.9,0.7-2.3,1-4.1,1h-7.9V134.7L120.3,134.7z M124,146.5h3.4
	c1.1,0,1.8-0.2,2.1-0.5c0.3-0.4,0.5-0.8,0.5-1.3c0-0.7-0.3-1.2-0.8-1.4c-0.5-0.3-1.4-0.4-2.8-0.4H124V146.5L124,146.5z M144,134.7
	h3.7v5.2h5.2v-5.2h3.7v14.1h-3.7v-5.9h-5.2v5.9H144V134.7L144,134.7z M163,139l-3.3-0.6c0.4-1.4,1-2.4,1.9-3c0.9-0.7,2.3-1,4.1-1
	c1.6,0,2.9,0.2,3.7,0.6c0.8,0.4,1.4,0.9,1.7,1.5c0.3,0.6,0.5,1.7,0.5,3.4l0,4.4c0,1.2,0.1,2.2,0.2,2.8c0.1,0.6,0.3,1.2,0.7,1.9h-3.6
	c-0.1-0.3-0.2-0.6-0.4-1.1c-0.1-0.2-0.1-0.4-0.1-0.4c-0.6,0.6-1.3,1.1-2,1.4c-0.7,0.3-1.5,0.5-2.3,0.5c-1.4,0-2.6-0.4-3.4-1.2
	c-0.8-0.8-1.2-1.8-1.2-3c0-0.8,0.2-1.5,0.6-2.1c0.4-0.6,0.9-1.1,1.6-1.4c0.7-0.3,1.6-0.6,2.9-0.9c1.7-0.3,2.9-0.6,3.6-0.9v-0.4
	c0-0.7-0.2-1.2-0.5-1.5c-0.3-0.3-1-0.5-2-0.5c-0.7,0-1.2,0.1-1.5,0.4C163.5,137.9,163.3,138.3,163,139L163,139z M167.9,142
	c-0.5,0.2-1.2,0.4-2.2,0.6c-1,0.2-1.7,0.4-2,0.7c-0.5,0.4-0.7,0.8-0.7,1.3c0,0.5,0.2,1,0.6,1.4c0.4,0.4,0.9,0.6,1.5,0.6
	c0.7,0,1.3-0.2,1.9-0.7c0.4-0.3,0.7-0.8,0.9-1.2c0.1-0.3,0.1-0.9,0.1-1.8V142L167.9,142z M176.1,134.7h12.3v14.1h-3.7v-11.1h-5v6.4
	c0,1.6-0.2,2.8-0.5,3.4c-0.4,0.6-0.8,1.1-1.2,1.3c-0.4,0.2-1.2,0.3-2.1,0.3c-0.6,0-1.4-0.1-2.3-0.2v-2.8c0.1,0,0.3,0,0.6,0
	c0.4,0,0.7,0,0.9,0c0.5,0,0.8-0.2,0.9-0.5c0.1-0.3,0.2-1.3,0.2-2.8V134.7L176.1,134.7z M192,134.7h3.5v8.9l5.6-8.9h3.6v14.1h-3.5v-9
	l-5.7,9H192V134.7L192,134.7z M208.1,134.7h3.7v3.4c0,0.8,0.1,1.3,0.2,1.7c0.1,0.4,0.4,0.7,0.9,1c0.4,0.3,1,0.4,1.7,0.4
	c0.7,0,1.4-0.1,2.2-0.5v-6h3.7v14.1h-3.7v-5.6c-1.4,0.4-2.5,0.6-3.3,0.6c-1.1,0-2.1-0.2-3-0.7c-0.9-0.5-1.5-1.1-1.8-1.9
	c-0.3-0.8-0.5-1.8-0.5-3.1V134.7L208.1,134.7z M223.9,134.7h3.7v5.2h5.2v-5.2h3.7v14.1h-3.7v-5.9h-5.2v5.9h-3.7V134.7L223.9,134.7z
	 M240.3,134.7h3.7v5.9h3.7c1.4,0,2.5,0.1,3.3,0.3c0.8,0.2,1.4,0.7,1.9,1.4c0.5,0.7,0.8,1.5,0.8,2.5c0,1.4-0.5,2.4-1.4,3.1
	c-0.9,0.7-2.3,1-4.2,1h-7.8V134.7L240.3,134.7z M243.9,146.5h3.4c0.9,0,1.5-0.1,1.9-0.4c0.4-0.3,0.6-0.7,0.6-1.4
	c0-0.7-0.3-1.2-0.8-1.4c-0.5-0.3-1.4-0.4-2.8-0.4h-2.4V146.5L243.9,146.5z M255.7,134.7h3.7v14.1h-3.7V134.7L255.7,134.7z
	 M263.2,134.7h4.5l3.4,9.9l3.5-9.9h4.5v14.1H276v-9.3l-3.4,9.3h-3.1l-3.2-9.3v9.3h-3.1V134.7L263.2,134.7z M282.7,134.7h3.5v8.9
	l5.6-8.9h3.6v14.1H292v-9l-5.7,9h-3.5V134.7L282.7,134.7z M318.2,151.6v-2.7l0,0h-10.5v2.7 M304.7,151.6v-5.8h1.5
	c0.6-0.7,1.1-1.8,1.6-3.3c0.4-1.5,0.7-4.1,0.7-7.8h11.2v11.1h1.5v5.8 M316,145.8l0-8h-4.4c-0.1,3.9-0.8,6.6-1.8,8H316L316,145.8z
	 M322.8,141.6c0-1.2,0.3-2.4,0.9-3.6c0.6-1.2,1.5-2.1,2.6-2.7c1.1-0.6,2.3-0.9,3.7-0.9c2.1,0,3.8,0.7,5.2,2.1c1.3,1.4,2,3.1,2,5.3
	c0,2.1-0.7,3.9-2,5.3c-1.4,1.4-3.1,2.1-5.1,2.1c-1.3,0-2.5-0.3-3.6-0.9c-1.2-0.6-2-1.4-2.6-2.6C323.1,144.6,322.8,143.2,322.8,141.6
	L322.8,141.6z M326.6,141.8c0,1.4,0.3,2.5,1,3.2c0.7,0.7,1.5,1.1,2.4,1.1s1.8-0.4,2.4-1.1c0.7-0.7,1-1.8,1-3.3c0-1.4-0.3-2.5-1-3.2
	c-0.6-0.7-1.4-1.1-2.4-1.1s-1.8,0.4-2.4,1.1C326.9,139.3,326.6,140.4,326.6,141.8L326.6,141.8z M351.2,143v-2.4c0.6,0,1.1,0,1.4-0.1
	c0.3-0.1,0.6-0.3,0.8-0.6c0.3-0.3,0.4-0.7,0.4-1.1c0-0.4-0.2-0.9-0.5-1.2c-0.3-0.4-0.8-0.6-1.4-0.6c-0.5,0-0.9,0.1-1.3,0.3
	c-0.4,0.2-0.7,0.7-1,1.5l-3.1-0.7c0.3-1.2,1-2.2,2-2.8c1-0.6,2.2-0.9,3.5-0.9c1.7,0,3,0.4,3.9,1.2c0.9,0.8,1.4,1.8,1.4,2.9
	c0,0.7-0.2,1.3-0.6,1.8c-0.4,0.5-1,0.9-1.9,1.4c1,0.3,1.8,0.7,2.3,1.3c0.5,0.6,0.8,1.3,0.8,2.2c0,1.1-0.5,2-1.5,2.8
	c-1,0.8-2.5,1.2-4.4,1.2c-3.3,0-5.3-1.3-6.1-4l3.4-0.6c0.5,1.4,1.4,2.1,2.7,2.1c0.7,0,1.2-0.2,1.6-0.6c0.4-0.4,0.6-0.8,0.6-1.3
	c0-0.6-0.2-1-0.6-1.3c-0.4-0.3-1-0.5-1.7-0.5H351.2L351.2,143z M363.1,139l-3.3-0.6c0.4-1.4,1-2.4,1.9-3c0.9-0.7,2.3-1,4.1-1
	c1.6,0,2.9,0.2,3.7,0.6c0.8,0.4,1.4,0.9,1.7,1.5c0.3,0.6,0.5,1.7,0.5,3.4l0,4.4c0,1.2,0.1,2.2,0.2,2.8c0.1,0.6,0.3,1.2,0.7,1.9h-3.6
	c-0.1-0.3-0.2-0.6-0.4-1.1c-0.1-0.2-0.1-0.4-0.1-0.4c-0.6,0.6-1.3,1.1-2,1.4c-0.7,0.3-1.5,0.5-2.3,0.5c-1.4,0-2.6-0.4-3.4-1.2
	c-0.8-0.8-1.2-1.8-1.2-3c0-0.8,0.2-1.5,0.6-2.1c0.4-0.6,0.9-1.1,1.6-1.4c0.7-0.3,1.6-0.6,2.9-0.9c1.7-0.3,2.9-0.6,3.6-0.9v-0.4
	c0-0.7-0.2-1.2-0.5-1.5c-0.3-0.3-1-0.5-2-0.5c-0.7,0-1.2,0.1-1.5,0.4C363.6,137.9,363.3,138.3,363.1,139L363.1,139z M368,142
	c-0.5,0.2-1.2,0.4-2.2,0.6c-1,0.2-1.7,0.4-2,0.7c-0.5,0.4-0.7,0.8-0.7,1.3c0,0.5,0.2,1,0.6,1.4c0.4,0.4,0.9,0.6,1.5,0.6
	c0.7,0,1.3-0.2,1.9-0.7c0.4-0.3,0.7-0.8,0.9-1.2c0.1-0.3,0.1-0.9,0.1-1.8V142L368,142z M375.1,153.2v-18.5l0,0h3.4v2.1
	c0.4-0.7,1-1.3,1.8-1.7c0.8-0.4,1.6-0.7,2.5-0.7c1.6,0,3,0.6,4.1,1.9c1.1,1.3,1.7,3.1,1.7,5.4c0,2.4-0.6,4.2-1.7,5.5
	c-1.1,1.3-2.5,2-4.1,2c-0.8,0-1.5-0.2-2.1-0.5c-0.6-0.3-1.3-0.8-2-1.6v6.1 M378.8,141.5c0,1.6,0.3,2.8,0.9,3.5
	c0.6,0.8,1.4,1.1,2.3,1.1c0.9,0,1.6-0.4,2.1-1c0.6-0.7,0.9-1.8,0.9-3.4c0-1.5-0.3-2.6-0.9-3.3c-0.6-0.7-1.3-1.1-2.2-1.1
	c-0.9,0-1.6,0.4-2.2,1.1C379.1,139.1,378.8,140.1,378.8,141.5L378.8,141.5z M391.4,134.7h12.3v14.1h-3.7v-11.1h-5v11.1h-3.7V134.7
	L391.4,134.7z M408.7,134.7H421v14.1h-3.7v-11.1h-5v6.4c0,1.6-0.2,2.8-0.5,3.4c-0.4,0.6-0.8,1.1-1.2,1.3c-0.4,0.2-1.2,0.3-2.1,0.3
	c-0.6,0-1.4-0.1-2.3-0.2v-2.8c0.1,0,0.3,0,0.6,0c0.4,0,0.7,0,0.9,0c0.5,0,0.8-0.2,0.9-0.5c0.1-0.3,0.2-1.3,0.2-2.8V134.7
	L408.7,134.7z M427.4,139l-3.3-0.6c0.4-1.4,1-2.4,1.9-3c0.9-0.7,2.3-1,4.1-1c1.6,0,2.9,0.2,3.7,0.6c0.8,0.4,1.4,0.9,1.7,1.5
	c0.3,0.6,0.5,1.7,0.5,3.4l0,4.4c0,1.2,0.1,2.2,0.2,2.8c0.1,0.6,0.3,1.2,0.7,1.9h-3.6c-0.1-0.3-0.2-0.6-0.4-1.1
	c-0.1-0.2-0.1-0.4-0.1-0.4c-0.6,0.6-1.3,1.1-2,1.4c-0.7,0.3-1.5,0.5-2.3,0.5c-1.4,0-2.6-0.4-3.4-1.2c-0.8-0.8-1.2-1.8-1.2-3
	c0-0.8,0.2-1.5,0.6-2.1c0.4-0.6,0.9-1.1,1.6-1.4c0.7-0.3,1.6-0.6,2.9-0.9c1.7-0.3,2.9-0.6,3.6-0.9v-0.4c0-0.7-0.2-1.2-0.5-1.5
	c-0.3-0.3-1-0.5-2-0.5c-0.7,0-1.2,0.1-1.5,0.4C428,137.9,427.7,138.3,427.4,139L427.4,139z M432.3,142c-0.5,0.2-1.2,0.4-2.2,0.6
	c-1,0.2-1.7,0.4-2,0.7c-0.5,0.4-0.7,0.8-0.7,1.3c0,0.5,0.2,1,0.6,1.4c0.4,0.4,0.9,0.6,1.5,0.6c0.7,0,1.3-0.2,1.9-0.7
	c0.4-0.3,0.7-0.8,0.9-1.2c0.1-0.3,0.1-0.9,0.1-1.8V142L432.3,142z M437.9,134.7h12.5v3H446v11.1h-3.7v-11.1h-4.4V134.7L437.9,134.7z
	 M452.7,134.7h3.7v5.9h3.7c1.4,0,2.5,0.1,3.3,0.3c0.8,0.2,1.4,0.7,1.9,1.4c0.5,0.7,0.8,1.5,0.8,2.5c0,1.4-0.5,2.4-1.4,3.1
	c-0.9,0.7-2.3,1-4.2,1h-7.8V134.7L452.7,134.7z M456.4,146.5h3.4c0.9,0,1.5-0.1,1.9-0.4c0.4-0.3,0.6-0.7,0.6-1.4
	c0-0.7-0.3-1.2-0.8-1.4c-0.5-0.3-1.4-0.4-2.8-0.4h-2.4V146.5L456.4,146.5z M468.2,134.7h3.7v14.1h-3.7V134.7L468.2,134.7z"/>
</svg>