<svg id="Слой_1" data-name="Слой 1" xmlns="http://www.w3.org/2000/svg" viewBox="0 0 403.47 91.22"><defs><style>.cls-1,.cls-2{fill:#d41419;}.cls-1{stroke:#d41419;stroke-miterlimit:10;}</style></defs><title>Cash-Kf Logo</title><path class="cls-1" d="M195.84,231a28.77,28.77,0,0,0,.67,6.49,12.51,12.51,0,0,0,2.24,4.93,10.39,10.39,0,0,0,4.15,3.14,15.92,15.92,0,0,0,6.38,1.12,17,17,0,0,0,4.93-.67,17.72,17.72,0,0,0,4.37-2l1.12-.67c.75-.45,1.42-.84,2-1.18a6,6,0,0,1,2.8-.5,7.33,7.33,0,0,1,5.32,2,6.39,6.39,0,0,1,2.07,4.71,6.87,6.87,0,0,1-2,4.65,17.15,17.15,0,0,1-5.21,3.81,32.86,32.86,0,0,1-7.39,2.57,38.17,38.17,0,0,1-8.63,1A35.53,35.53,0,0,1,196,258.22a23.1,23.1,0,0,1-8.9-5.93,24.11,24.11,0,0,1-5.21-9.3,40.65,40.65,0,0,1-1.68-12V208.77a40.71,40.71,0,0,1,1.68-12.05,24.11,24.11,0,0,1,5.21-9.3,23.1,23.1,0,0,1,8.9-5.93,35.54,35.54,0,0,1,12.77-2.07,38.17,38.17,0,0,1,8.63,1,32.86,32.86,0,0,1,7.39,2.57,17.49,17.49,0,0,1,5.21,3.81,6.87,6.87,0,0,1,2,4.65,6.39,6.39,0,0,1-2.07,4.71,7.33,7.33,0,0,1-5.32,2,6,6,0,0,1-2.8-.5c-.6-.34-1.27-.73-2-1.18l-1.12-.67a17.72,17.72,0,0,0-4.37-2,17.34,17.34,0,0,0-4.93-.67,16.1,16.1,0,0,0-6.38,1.12,10.39,10.39,0,0,0-4.15,3.14,12.57,12.57,0,0,0-2.24,4.93,28.86,28.86,0,0,0-.67,6.5Z" transform="translate(-70.16 -178.44)"/><path class="cls-1" d="M338.89,236.55c0-2.54-.51-4.33-1.51-5.38a9.83,9.83,0,0,0-3.08-2.24c-1.2-.52-2.49-1-3.87-1.51l-4.31-1.52c-2.77-.82-5.51-1.73-8.24-2.74a27.37,27.37,0,0,1-7.33-4,18.93,18.93,0,0,1-5.27-6.5,22.14,22.14,0,0,1-2-10,24.44,24.44,0,0,1,1.84-9.69,20.77,20.77,0,0,1,5.21-7.33,22.45,22.45,0,0,1,8.18-4.6,34.8,34.8,0,0,1,10.75-1.56q2.47,0,6.28.39a38.46,38.46,0,0,1,7.45,1.51,19.88,19.88,0,0,1,6.22,3.08,6.14,6.14,0,0,1,2.57,5.1,6.87,6.87,0,0,1-2.07,4.93,7.68,7.68,0,0,1-5.77,2.12,9.24,9.24,0,0,1-2.8-.39l-2.69-.84c-1.05-.37-2.24-.74-3.58-1.12a18.85,18.85,0,0,0-4.93-.56,20.34,20.34,0,0,0-4,.39,9.21,9.21,0,0,0-3.42,1.4,7.69,7.69,0,0,0-2.35,2.64,8.34,8.34,0,0,0-.89,4.09c0,2.46.54,4.22,1.62,5.26a11.49,11.49,0,0,0,3.08,2.24,32.34,32.34,0,0,0,4.2,1.79c1.31.45,2.6.86,3.87,1.24q4.14,1.34,8.23,2.85a27.61,27.61,0,0,1,7.34,4A19.6,19.6,0,0,1,353,226a21,21,0,0,1,2.07,9.86,24.45,24.45,0,0,1-2.13,10.41,22.24,22.24,0,0,1-5.82,7.73,25.31,25.31,0,0,1-8.8,4.76,36.31,36.31,0,0,1-11.14,1.63,56,56,0,0,1-7.29-.56A40.61,40.61,0,0,1,312,258a21,21,0,0,1-6.27-3.36,6.21,6.21,0,0,1-2.58-5,6.83,6.83,0,0,1,2.13-4.87,7.05,7.05,0,0,1,5.27-2.18,9.8,9.8,0,0,1,2.63.39c.93.26,1.92.58,3,.95q2,.67,4.76,1.46a23.23,23.23,0,0,0,6.33.78q5.82,0,8.74-2.46T338.89,236.55Z" transform="translate(-70.16 -178.44)"/><path class="cls-1" d="M416.35,258.22a8,8,0,0,1-11,0,6.74,6.74,0,0,1-2.36-5.09V227H379.1v26.1a6.8,6.8,0,0,1-2.29,5.09,8.11,8.11,0,0,1-11.09,0,6.81,6.81,0,0,1-2.3-5.09V186.58a6.66,6.66,0,0,1,2.3-5,8.31,8.31,0,0,1,11.09,0,6.65,6.65,0,0,1,2.29,5v26.11H403V186.58a6.59,6.59,0,0,1,2.36-5,8.17,8.17,0,0,1,11,0,6.61,6.61,0,0,1,2.35,5v66.55A6.81,6.81,0,0,1,416.35,258.22Z" transform="translate(-70.16 -178.44)"/><path class="cls-2" d="M88,215.54a15.28,15.28,0,1,0,15.28,15.28A15.3,15.3,0,0,0,88,215.54" transform="translate(-70.16 -178.44)"/><path class="cls-2" d="M148.33,215.54a15.28,15.28,0,1,0,15.28,15.28,15.3,15.3,0,0,0-15.28-15.28" transform="translate(-70.16 -178.44)"/><path class="cls-2" d="M108.73,246.76c0,8.21,3.49,16,9.71,22.89h0c6.22-6.92,9.71-14.69,9.71-22.9s-3.5-15.95-9.71-22.86c-6.22,6.91-9.72,14.66-9.72,22.86" transform="translate(-70.16 -178.44)"/><path class="cls-2" d="M166.46,202.51h0c-9.09-9.56-27.23-20.28-48.14-20.28s-39.06,10.72-48.15,20.27c21.31,1.35,39.34,9.72,48.29,21.41,8.9-11.64,26.82-20,48-21.39" transform="translate(-70.16 -178.44)"/><path class="cls-1" d="M266.76,178.94c-18.37,0-29.18,11.7-29.18,27.75v45.48c0,3.9,3.61,7.36,8.37,7.36,4.53,0,8-3.46,8-7.36V227.88h25.69v24.29c0,4,3.72,7.36,8,7.36,4.65,0,8.25-3.12,8.25-7.36V206.69C295.93,190.75,285.47,178.94,266.76,178.94ZM254,212.81v-6.12c0-7.91,4.07-13.6,12.79-13.6s12.9,5.58,12.9,13.6v6.12Z" transform="translate(-70.16 -178.44)"/><path class="cls-2" d="M451,198.36A22.61,22.61,0,1,0,473.63,221,22.61,22.61,0,0,0,451,198.36Zm12.81,15.81h-6a.76.76,0,0,0-.75.75v3.41a.75.75,0,0,0,.75.75h4.72a2,2,0,0,1,0,4.06h-4.72a.76.76,0,0,0-.75.75v5.87a2,2,0,0,1-.59,1.46,2,2,0,0,1-.62.43h0l-.13.05-.06,0-.12,0-.08,0-.11,0h-.56l-.12,0-.09,0-.11,0-.07,0-.12-.05-.06,0-.12,0-.05,0-.12-.06-.06,0-.09-.07a1.07,1.07,0,0,1-.16-.14l-10-10h0A.74.74,0,0,0,443,221a.76.76,0,0,0-.76.76v8h0a2,2,0,1,1-4.06,0V212.14h0a2,2,0,0,1,4.06,0V215a.76.76,0,0,0,.76.75.78.78,0,0,0,.53-.21l4.8-4.8h0a2,2,0,0,1,2.87,2.86L447,217.82a.72.72,0,0,0-.22.53.72.72,0,0,0,.23.53l4.72,4.72a.72.72,0,0,0,.53.23.75.75,0,0,0,.75-.76V212.14a2,2,0,0,1,2-2h8.83a2,2,0,1,1,0,4.06Z" transform="translate(-70.16 -178.44)"/></svg>