<svg enable-background="new 0 0 726.5 131.2" viewBox="0 0 726.5 131.2" xmlns="http://www.w3.org/2000/svg" xmlns:xlink="http://www.w3.org/1999/xlink" width="800" height="144"><linearGradient id="a"><stop offset="0" stop-color="#243f90"/><stop offset="1" stop-color="#662d91"/></linearGradient><linearGradient id="b" gradientTransform="matrix(1 0 0 -1 0 173.6)" gradientUnits="userSpaceOnUse" x1="65.6" x2="65.6" xlink:href="#a" y1="174.8862" y2="48.3003"/><linearGradient id="c" gradientTransform="matrix(1 0 0 -1 0 173.6)" gradientUnits="userSpaceOnUse" x1="215.234" x2="215.234" xlink:href="#a" y1="173.204" y2="52.0064"/><linearGradient id="d" gradientTransform="matrix(1 0 0 -1 0 173.6)" gradientUnits="userSpaceOnUse" x1="274.634" x2="274.634" xlink:href="#a" y1="173.204" y2="52.0064"/><linearGradient id="e" gradientTransform="matrix(1 0 0 -1 0 173.6)" gradientUnits="userSpaceOnUse" x1="328.2202" x2="328.2202" xlink:href="#a" y1="173.204" y2="52.0064"/><linearGradient id="f" gradientTransform="matrix(1 0 0 -1 0 173.6)" gradientUnits="userSpaceOnUse" x1="382.75" x2="382.75" xlink:href="#a" y1="173.204" y2="52.0064"/><linearGradient id="g" gradientTransform="matrix(1 0 0 -1 0 173.6)" gradientUnits="userSpaceOnUse" x1="453.45" x2="453.45" xlink:href="#a" y1="173.204" y2="52.0064"/><linearGradient id="h" gradientTransform="matrix(1 0 0 -1 0 173.6)" gradientUnits="userSpaceOnUse" x1="698.1501" x2="698.1501" xlink:href="#a" y1="173.204" y2="52.0064"/><linearGradient id="i" gradientTransform="matrix(1 0 0 -1 0 173.6)" gradientUnits="userSpaceOnUse" x1="526.8" x2="526.8" xlink:href="#a" y1="173.204" y2="52.0064"/><linearGradient id="j" gradientTransform="matrix(-1 0 0 1 -10826.8223 -12889.8223)" gradientUnits="userSpaceOnUse" x1="-11454.6221" x2="-11454.6221" y1="13033.4414" y2="12912.2441"><stop offset="0" stop-color="#662d91"/><stop offset="1" stop-color="#243f90"/></linearGradient><linearGradient id="k" gradientTransform="matrix(1 0 0 -1 0 173.6)" gradientUnits="userSpaceOnUse" x1="578.8" x2="578.8" xlink:href="#a" y1="173.204" y2="52.0064"/><linearGradient id="l" gradientTransform="matrix(1 0 0 -1 0 173.6)" gradientUnits="userSpaceOnUse" x1="37.4526" x2="89.4982" y1="90.95" y2="90.95"><stop offset="0" stop-color="#939598"/><stop offset=".1271" stop-color="#a8aaac"/><stop offset=".3858" stop-color="#cecfd0"/><stop offset=".6259" stop-color="#e9e9ea"/><stop offset=".8381" stop-color="#f9f9f9"/><stop offset="1" stop-color="#fff"/></linearGradient><path d="m85.5 131.2h-39.8c-25.3 0-45.7-20.5-45.7-45.7v-39.8c0-25.3 20.5-45.7 45.7-45.7h39.8c25.3 0 45.7 20.5 45.7 45.7v39.8c0 25.2-20.5 45.7-45.7 45.7z" fill="url(#b)"/><path d="m189 72.1c0-4.8.8-9.2 2.3-13.4s3.8-7.9 6.7-11 6.5-5.6 10.6-7.4c4.2-1.8 8.9-2.8 14.3-2.8 3.5 0 6.7.3 9.6.9 1.5.3 3.1.7 4.6 1.2 2.2.7 3.5 3.1 2.9 5.4l-1.7 6.4c-.6 2.4-3.1 3.8-5.5 3.2-.5-.1-1-.3-1.5-.4-2.1-.5-4.4-.8-7-.8-5.5 0-9.6 1.7-12.3 5.1s-4.1 7.9-4.1 13.5c0 5.9 1.3 10.5 3.8 13.8s7 4.9 13.3 4.9c2.3 0 4.7-.2 7.3-.6.9-.1 1.8-.3 2.6-.5 2.5-.6 5 1.1 5.4 3.6l1.1 6.5c.4 2.2-1 4.4-3.2 5-1.3.4-2.8.7-4.3 1-3.3.7-6.8 1-10.8 1-6 0-11.2-.9-15.5-2.7s-7.9-4.2-10.7-7.3-4.8-6.7-6.1-10.9c-1.1-4.2-1.8-8.8-1.8-13.7z" fill="url(#c)"/><path d="m248.4 72.1c0-4.8.8-9.2 2.3-13.4s3.8-7.9 6.7-11 6.5-5.6 10.6-7.4c4.2-1.8 8.9-2.8 14.3-2.8 3.5 0 6.7.3 9.6.9 1.5.3 3.1.7 4.6 1.2 2.2.7 3.5 3.1 2.9 5.4l-1.7 6.4c-.6 2.4-3.1 3.8-5.5 3.2-.5-.1-1-.3-1.5-.4-2.1-.5-4.4-.8-7-.8-5.5 0-9.6 1.7-12.3 5.1s-4.1 7.9-4.1 13.5c0 5.9 1.3 10.5 3.8 13.8s7 4.9 13.3 4.9c2.3 0 4.7-.2 7.3-.6.9-.1 1.8-.3 2.6-.5 2.5-.6 5 1.1 5.4 3.6l1.1 6.5c.4 2.2-1 4.4-3.2 5-1.3.4-2.8.7-4.3 1-3.3.7-6.8 1-10.8 1-6 0-11.2-.9-15.5-2.7s-7.9-4.2-10.7-7.3-4.8-6.7-6.1-10.9c-1.1-4.2-1.8-8.8-1.8-13.7z" fill="url(#d)"/><path d="m341 102.3c-.4 2.3-2.4 3.9-4.7 3.7-3.6-.3-6.6-.8-9.1-1.6-3.4-1.1-6-2.6-8-4.6s-3.3-4.3-4-7.1-1.1-5.9-1.1-9.4v-68.6c0-2.2 1.6-4.1 3.7-4.4l9.7-1.6c2.7-.4 5.2 1.7 5.2 4.4v66.4c0 1.7.1 3.2.4 4.5s.7 2.5 1.4 3.4 1.7 1.7 3.1 2.3c.4.2.9.3 1.4.5 2.2.6 3.6 2.8 3.3 5.1z" fill="url(#e)"/><path d="m415.1 71.9c0 5.2-.8 9.9-2.3 14.2s-3.7 8-6.5 11-6.2 5.4-10.2 7.1-8.4 2.5-13.3 2.5c-4.8 0-9.2-.8-13.2-2.5s-7.4-4-10.2-7.1c-2.8-3-5-6.7-6.6-11s-2.4-9-2.4-14.2.8-9.9 2.4-14.1c1.6-4.3 3.9-7.9 6.8-10.9s6.3-5.3 10.3-7 8.3-2.5 12.9-2.5c4.8 0 9.1.8 13.1 2.5s7.4 4 10.2 7 5 6.6 6.6 10.9 2.4 9 2.4 14.1zm-19 0c0-5.8-1.1-10.3-3.4-13.6s-5.6-4.9-9.8-4.9c-4.3 0-7.5 1.6-9.9 4.9-2.3 3.3-3.5 7.8-3.5 13.6s1.2 10.3 3.5 13.7 5.6 5.1 9.9 5.1 7.5-1.7 9.8-5.1c2.2-3.3 3.4-7.9 3.4-13.7z" fill="url(#f)"/><path d="m453.1 37.4c5.5 0 10.1.6 13.8 1.9s6.6 3 8.8 5.4c2.2 2.3 3.8 5.2 4.7 8.5s1.4 7 1.4 11.1v38.8c-2.7.6-6.4 1.3-11.1 2.1s-10.5 1.2-17.3 1.2c-4.3 0-8.1-.4-11.6-1.1-3.5-.8-6.4-2-8.9-3.7s-4.4-3.9-5.8-6.7c-1.3-2.8-2-6.1-2-10.1 0-3.8.8-7.1 2.3-9.8s3.6-4.8 6.2-6.4 5.5-2.7 8.9-3.4c3.3-.7 6.8-1.1 10.4-1.1 2.4 0 4.6.1 6.4.3 1.9.2 3.4.5 4.6.8v-1.8c0-3.2-1-5.7-2.9-7.6s-5.3-2.9-10-2.9c-3.2 0-6.3.2-9.4.7-1.2.2-2.4.4-3.5.6-2.5.5-4.9-1.1-5.3-3.7l-1-6.1c-.4-2.3 1.1-4.5 3.4-5 1.6-.4 3.4-.7 5.3-1s3.9-.5 6.1-.8c2.2-.1 4.3-.2 6.5-.2zm1.5 54.5c1.8 0 3.6 0 5.3-.1s3-.2 4-.4v-14.1c-.8-.2-1.9-.3-3.4-.5s-2.9-.3-4.1-.3c-1.8 0-3.4.1-4.9.3s-2.9.6-4.1 1.2-2.1 1.4-2.8 2.4-1 2.3-1 3.8c0 2.9 1 4.9 2.9 6.1 2 1.1 4.7 1.6 8.1 1.6z" fill="url(#g)"/><path d="m697.8 37.4c5.5 0 10.1.6 13.8 1.9s6.6 3 8.8 5.4c2.2 2.3 3.8 5.2 4.7 8.5s1.4 7 1.4 11.1v38.8c-2.7.6-6.4 1.3-11.1 2.1s-10.5 1.2-17.3 1.2c-4.3 0-8.1-.4-11.6-1.1-3.5-.8-6.4-2-8.9-3.7s-4.4-3.9-5.8-6.7c-1.3-2.8-2-6.1-2-10.1 0-3.8.8-7.1 2.3-9.8s3.6-4.8 6.2-6.4 5.5-2.7 8.9-3.4c3.3-.7 6.8-1.1 10.4-1.1 2.4 0 4.6.1 6.4.3 1.9.2 3.4.5 4.6.8v-1.8c0-3.2-1-5.7-2.9-7.6s-5.3-2.9-10-2.9c-3.2 0-6.3.2-9.4.7-1.2.2-2.4.4-3.5.6-2.5.5-4.9-1.1-5.3-3.7l-1-6.1c-.4-2.3 1.1-4.5 3.4-5 1.6-.4 3.4-.7 5.3-1s3.9-.5 6.1-.8c2.2-.1 4.3-.2 6.5-.2zm1.5 54.5c1.8 0 3.6 0 5.3-.1s3-.2 4-.4v-14.1c-.8-.2-1.9-.3-3.4-.5s-2.9-.3-4.1-.3c-1.8 0-3.4.1-4.9.3s-2.9.6-4.1 1.2-2.1 1.4-2.8 2.4-1 2.3-1 3.8c0 2.9 1 4.9 2.9 6.1 2 1.1 4.6 1.6 8.1 1.6z" fill="url(#h)"/><path d="m498.6 44.9c0-2.1 1.4-3.9 3.4-4.3 2.5-.6 5.5-1.1 8.8-1.7 5-.8 10.3-1.2 15.8-1.2 5.6 0 10.2.7 13.9 2.2s6.6 3.5 8.8 6.2 3.7 5.8 4.6 9.5 1.4 7.8 1.4 12.3v32.7c0 2.5-2 4.5-4.5 4.5h-9.7c-2.5 0-4.5-2-4.5-4.5v-30.4c0-6-.8-10.3-2.4-12.8s-4.5-3.8-8.9-3.8c-1.3 0-2.8.1-4.3.2s-2.8.3-4 .4v46.3c0 2.5-2 4.5-4.5 4.5h-9.7c-2.5 0-4.5-2-4.5-4.5v-55.6z" fill="url(#i)"/><path d="m656 99.1c0 2.1-1.4 3.9-3.4 4.3-2.5.6-5.5 1.1-8.8 1.7-5 .8-10.3 1.2-15.8 1.2-5.6 0-10.2-.7-13.9-2.2s-6.6-3.5-8.8-6.2-3.7-5.8-4.6-9.5-1.4-7.8-1.4-12.3v-32.7c0-2.5 2-4.5 4.5-4.5h9.7c2.5 0 4.5 2 4.5 4.5v30.4c0 6 .8 10.3 2.4 12.8s4.5 3.8 8.9 3.8c1.3 0 2.8-.1 4.3-.2s2.8-.3 4-.4v-46.3c0-2.5 2-4.5 4.5-4.5h9.7c2.5 0 4.5 2 4.5 4.5v55.6z" fill="url(#j)"/><path d="m590.5 95.1c0 3.8-1.2 6.6-3.6 8.6s-5.1 2.9-8.1 2.9-5.7-1-8.1-2.9c-2.4-2-3.6-4.8-3.6-8.6s1.2-6.6 3.6-8.6 5.1-2.9 8.1-2.9 5.7 1 8.1 2.9c2.4 2 3.6 4.8 3.6 8.6z" fill="url(#k)"/><path d="m89.5 104.3-38.8-12.9c-7.9-2.6-13.3-10.1-13.3-18.4v-12l52 17.3v26z" fill="url(#l)"/><path d="m89.5 52.2-52 17.3v-12c0-8.4 5.4-15.8 13.3-18.4l38.8-12.9v26z" fill="#fff"/></svg>