<svg id="CLY" xmlns="http://www.w3.org/2000/svg" viewBox="0 0 500 170.21" width="500" height="170"><defs><style>.cls-1{fill:#a7afb3;}.cls-2{fill:#576d74;}.cls-3{fill:#71bb3e;}</style></defs><title>CLY-logo</title><path class="cls-1" d="M387.16,148.16a8.17,8.17,0,0,1,7.79,2.75c1.95,2.54,2.2,6,1.72,9a7.88,7.88,0,0,1-4.69,6.25c-3.73,1.59-8.81.26-10.56-3.6a13.41,13.41,0,0,1-.32-9.54A7.5,7.5,0,0,1,387.16,148.16Zm-.55,2.49A5.8,5.8,0,0,0,383,155.4c-.4,2.55-.22,5.52,1.61,7.51,2.43,2.67,7.5,2,9-1.33a10.73,10.73,0,0,0,0-8.27C392.46,150.71,389.16,149.74,386.61,150.65Z"/><path class="cls-1" d="M256,148.65h2.36v8c3.09.06,4.21-3.06,5.18-5.41s3.47-2.85,5.64-2.64v2.25c-1.22.09-3-.17-3.58,1.21-.87,1.94-1.63,4-3.54,5.2,2.75,3,5.45,6,8.24,9h-3.08c-2.34-2.41-4.61-4.89-6.87-7.38l-2,0c0,2.46,0,4.91,0,7.37l-2.36,0C256,160.37,256,154.51,256,148.65Z"/><path class="cls-1" d="M275.8,148.65c3.2.19,6.71-.64,9.62,1.08s2.64,6.63-.14,8.46c-2,1.5-4.66,1.26-7,1.25q0,3.39,0,6.8H275.8Zm2.42,2.3c0,2.06,0,4.13,0,6.2,1.9-.07,4.11.37,5.71-.91a3,3,0,0,0,.08-4.53C282.31,150.57,280.16,151,278.22,151Z"/><path class="cls-1" d="M292.82,148.65h11.79v2.27c-3.12,0-6.25,0-9.38,0,0,1.49,0,3,0,4.49,3.12,0,6.24,0,9.36,0v2.27c-3.12,0-6.24,0-9.36,0,0,2.07,0,4.13,0,6.2,3.12.05,6.25,0,9.37,0v2.27H292.82Z"/><path class="cls-1" d="M313.62,148.65h10.5q0,7.65,0,15.31h1.71v6.24h-2.28c0-1.33,0-2.65,0-4H311v4h-2.28c0-2.08,0-4.15,0-6.23l1.56,0C312.77,159.28,313.55,153.9,313.62,148.65ZM312.54,164h9.15V150.92h-5.8A28.75,28.75,0,0,1,312.54,164Z"/><path class="cls-1" d="M332,148.65h2.29c0,4.61,0,9.22,0,13.83,3-4.58,5.83-9.26,8.81-13.85l2.47,0v17.59h-2.35V152.11c-3,4.7-5.89,9.47-8.94,14.15l-2.27,0Q332.06,157.45,332,148.65Z"/><path class="cls-1" d="M350.06,148.65c5,0,10.07,0,15.11,0v2.24c-2.13,0-4.25,0-6.38,0,0,5.1,0,10.2,0,15.3h-2.44V150.92h-6.31Z"/><path class="cls-1" d="M402.89,148.65h2.43c0,2.26,0,4.52,0,6.78,3,0,5.91,0,8.86,0v-6.81h2.43v17.59h-2.43v-8.51c-3,0-5.91,0-8.87,0,.05,2.82,0,5.64,0,8.47h-2.44Z"/><path class="cls-1" d="M426.08,148.65h11v17.59h-2.44V150.92h-6.32c-.29,4,0,8-1.18,11.85a4.79,4.79,0,0,1-5.41,3.46c0-.71,0-1.43,0-2.14a3,3,0,0,0,3.08-1.91C426.17,157.81,425.76,153.16,426.08,148.65Z"/><path class="cls-1" d="M448.74,148.64c1,0,2,0,2.94.05.56.36.58,1.16.87,1.71,1.87,5.31,3.89,10.56,5.77,15.85l-2.58-.05c-.48-1.5-1-3-1.51-4.45-2.63-.1-5.25,0-7.87-.07q-.89,2.25-1.63,4.55h-2.44Q445.5,157.44,448.74,148.64Zm1.48,2.18c-1,2.86-2,5.74-3.1,8.59,2.08,0,4.15,0,6.23,0C452.33,156.55,451.32,153.66,450.22,150.82Z"/><path class="cls-1" d="M463.68,148.65H466q0,6.93,0,13.84c3-4.6,5.81-9.26,8.8-13.85l2.48,0v17.59h-2.42c0-4.66,0-9.31,0-14-3,4.63-5.88,9.33-8.86,14l-2.27-.05C463.69,160.37,463.67,154.5,463.68,148.65Z"/><path class="cls-1" d="M466,143.55h2.18c.13,1.12.74,2.35,2.06,2.28a2.33,2.33,0,0,0,2.74-2.28h2.14c-.08,3.84-5.08,5.16-7.76,3C466.42,145.84,466.31,144.59,466,143.55Z"/><path class="cls-1" d="M484.59,148.65H487c0,2.26,0,4.52,0,6.77,2.95.06,5.9,0,8.87,0q0-3.41,0-6.81h2.42v17.59h-2.42v-8.51c-3,0-5.91,0-8.86,0,0,2.84,0,5.67,0,8.5h-2.44Z"/><path class="cls-2" d="M416.21,45.26c8.19,0,16.38,0,24.57,0,6,10.7,12,21.47,18,32.16q8.7-16.06,17.36-32.15,11.93,0,23.85,0c-10,16.61-19.91,33.23-29.94,49.81a3.83,3.83,0,0,0-.85,2.45v31.27h-21.7c-.05-10.39.08-20.79-.06-31.18C437.19,80.08,426.57,62.74,416.21,45.26Z"/><path class="cls-2" d="M348.05,128.75c.09-27.84,0-55.68.07-83.52,7.21.05,14.44,0,21.66,0v67.66q19.29,0,38.59,0c0,5.29,0,10.58,0,15.87C388.26,128.78,368.16,128.84,348.05,128.75Z"/><path class="cls-2" d="M265.47,55.56c6.75-7.14,16.47-10.82,26.1-11.71a65.77,65.77,0,0,1,25,2.63,92.59,92.59,0,0,1,9.78,4.08V70.93l-2.79,0c-5.44-4.83-11.63-9.26-18.86-10.82-6.56-1.12-13.81,0-19,4.36-5.39,4.27-8.08,11.11-8.76,17.8-.73,8-.05,16.79,4.87,23.52,4.67,6.72,13.38,9.47,21.27,8.61,8.11-.85,14.95-5.84,20.87-11.11l2.44,0c0,6.67-.06,13.33,0,20-7.35,3.64-15.23,6.42-23.44,7.1-6.84.32-13.82.27-20.46-1.64-8.82-2.33-16.94-7.79-21.75-15.64-5.62-8.95-7.12-19.88-6.44-30.27C255,72.88,258.44,62.81,265.47,55.56Z"/><path class="cls-3" d="M84.1,0h84.46a3.46,3.46,0,0,1,2.08,3.39q0,39.53,0,79c14.61,0,29.22,0,43.84,0a3.14,3.14,0,0,1,3.38,3.2c0,27.06,0,54.11,0,81.17a3.09,3.09,0,0,1-2.36,3.39H65c-5.24-.37-9.37-3.87-12.93-7.39-1.26,3.64-4.23,6.77-8.15,7.39H8.83c-4.5-.51-8-4.44-8.83-8.74V104.79C1.12,100.1,5.18,96,10.21,96.1c9.64,0,19.29,0,28.93,0,2.36,0,4.82-.16,7,.85a12.55,12.55,0,0,1,4.34,3.49c4.73-4.72,9.23-9.67,14.05-14.32Q56.43,56,48.38,25.78A3.47,3.47,0,0,1,51,21.07c10.38-2.73,20.72-5.61,31.11-8.32,0-3.13-.06-6.26,0-9.39A4.21,4.21,0,0,1,84.1,0Zm4.7,6.52q0,38,0,75.92c2.06,0,4.12.07,6.18,0l.49-.52c-.49-2.33,0-4.67-.18-7,.1-1.16.16-2.31.2-3.47L95.16,71c.42-5.34,0-10.66.11-16a11,11,0,0,0,0-3.34c-.08-3.6.29-7.21.05-10.8.45-3-.6-6.19.49-9.1,1.19-2,3.7-1.39,5.58-2a9.08,9.08,0,0,0,6.2-8.19,3.45,3.45,0,0,1,3.63-3.68c10.23,0,20.44,0,30.67,0a3.26,3.26,0,0,1,3.14,2c.47,1.71.28,3.59,1.16,5.18a9,9,0,0,0,7.68,5.08c1.84-.11,3.81,1.29,3.69,3.26,0,4.54,0,9.09,0,13.63a3.42,3.42,0,0,1-2.13,2.89,3.34,3.34,0,0,1-4.48-2.85c-.31-3.53.16-7.1-.2-10.61a16.17,16.17,0,0,1-11.77-11.91c-8.36,0-16.72-.07-25.08,0-1.22,6-6.2,10.56-12,12.07.09,15.25,0,30.51,0,45.78,2.93,0,5.86,0,8.79,0a16.22,16.22,0,0,1,7.81-11.16,16,16,0,0,1,18.34,1.8,16.85,16.85,0,0,1,5.35,9.37c7.31,0,14.62,0,21.93,0q0-37.93,0-75.86C139,6.48,113.91,6.56,88.8,6.52ZM55.7,26.61a52.68,52.68,0,0,0,1.64,6.89c4.42,16.35,8.71,32.76,13.2,49.1,2.21-.09,4.41-.21,6.62-.18q-3.8-14.25-7.68-28.49c-.39-1.5-1-3.13-.36-4.64S71.58,47.6,72.91,47a9.13,9.13,0,0,0,4.63-10.63c-.65-2.77,2.33-4,4.53-4.32,0-4.14.11-8.28,0-12.42C73.28,22,64.51,24.44,55.7,26.61ZM76.13,52.78c1.77,7.42,4.15,14.67,5.71,22.14a36.9,36.9,0,0,0,.26-6.81c0-5.68,0-11.36,0-17a12.06,12.06,0,0,0-.23-3.55A14.61,14.61,0,0,1,76.13,52.78Zm41.3,29.62c6,.08,12,0,18,0a9.76,9.76,0,0,0-8.88-6.62C122.44,75.69,118.82,78.66,117.43,82.4ZM70.48,89.7a84.22,84.22,0,0,0-5.9,6c-4.13,4.2-8.39,8.27-12.46,12.53.07,15,0,30,0,44.95,0,.24.1.73.13,1,2.44,2.3,5,4.43,7.56,6.67a10.05,10.05,0,0,0,7.13,2.8q31.47,0,63,0a4.57,4.57,0,0,0,4.45-3.12c1.14-2.81-1.38-6.42-4.45-6.07-8.34,0-16.67,0-25,0-1.88.08-4-1.52-3.76-3.53a3.2,3.2,0,0,1,3.14-3.17c12.32-.06,24.65,0,37,0,3.15.16,5.74-3.48,4.4-6.37a5.16,5.16,0,0,0-5-3.05c-11.93,0-23.86,0-35.8,0a3.11,3.11,0,0,1-2.83-1c-2.09-1.82-.46-5.75,2.31-5.51,14.57-.06,29.14,0,43.7,0a4.71,4.71,0,1,0,0-9.39c-14.55,0-29.11,0-43.67,0a3.33,3.33,0,0,1-2.65-5.23c.84-1.23,2.38-1.47,3.76-1.47l32.36,0a4.55,4.55,0,0,0,4.64-3.34,4.68,4.68,0,0,0-4.68-5.88q-30.65,0-61.28,0a3.54,3.54,0,0,1-3.85-2.51c-.74-1.7.45-3.38,1.62-4.53,11.54.06,23.07,0,34.61,0,3.64-.08,5.53-4.82,3.66-7.7a4.6,4.6,0,0,0-4.19-2.38c-11.94,0-23.89,0-35.83,0C71.91,89.42,71,89.14,70.48,89.7Zm48.44-.54c1.54,3.35,1.25,7.15.16,10.59q46.11,0,92.25,0,0-5.3,0-10.59Q165.12,89.1,118.92,89.16ZM7,106.11q0,27.24,0,54.47a3.11,3.11,0,0,0,3.31,3.08c10.57,0,21.14,0,31.71,0A3.39,3.39,0,0,0,45.53,160c0-18,0-35.95,0-53.92a3.3,3.3,0,0,0-3.46-3.27c-4.16-.05-8.31,0-12.47,0q0,18.67,0,37.35a4.19,4.19,0,0,1-1.46,3.72c-1.26,1.11-3,.48-4.32-.22a5.2,5.2,0,0,1-.93-2.9c0-12.66,0-25.32,0-38-4.21.09-8.43,0-12.64.06A3.16,3.16,0,0,0,7,106.11Zm150.56,10.64c0,1.18,0,2.37,0,3.55a11.36,11.36,0,0,1,1.85,9.73,11.15,11.15,0,0,1-7.8,7.82c1.23,3.4,1.58,7.34-.31,10.58-2.11,4-6.57,6.11-11,6.11a11.39,11.39,0,0,1,0,9.12h71q-.06-23.46,0-46.93Z"/><path class="cls-3" d="M185,148.67a6.72,6.72,0,0,1,9.64-.38c3-3,8.74-2.27,10.6,1.66,2.25,3.85-.57,9.27-5,9.7-2.06.36-4-.6-5.62-1.76a6.68,6.68,0,0,1-9.63-9.22Z"/></svg>