<svg fill="none" viewBox="0 0 96 32" xmlns="http://www.w3.org/2000/svg" xmlns:xlink="http://www.w3.org/1999/xlink" width="800" height="267"><mask id="a" height="31" maskUnits="userSpaceOnUse" width="22" x="75" y="0"><path d="m85.8777 0c-7.2267 0-10.7266 6.3193-9.722 13.0275.1296.9074.875 3.2406 1.6203 4.8934 1.1667 2.6249 2.6898 5.2499 3.8888 7.2915l8.8795-15.39318h-9.6248v-1.84718h.7453 11.0183.6481v.74535l-.6157 1.03702-9.9488 17.24039c1.3286 2.074 2.3981 3.3702 2.7221 3.3702.875 0 8.8146-9.6571 10.3053-17.5968 1.1667-6.70815-2.6897-12.7682-9.9164-12.7682z" fill="#81c0a4"/></mask><g fill="#67579c"><path d="m17.1755 14.2589c-.6481-.6481-1.6203-1.4583-2.7221-1.9444-1.1019-.4861-2.3981-.8102-3.6296-.8102-4.86097 0-8.42571 3.8888-8.42571 8.7498 0 5.7036 4.63416 8.5554 8.45811 8.5554 1.4259 0 2.787-.3889 3.8888-.9722 1.2315-.5833 2.0417-1.3935 2.4305-1.75v2.8842c-2.3657 1.6528-4.7313 2.0417-6.3193 2.0417-6.22205 0-10.8562-4.7314-10.8562-10.7915 0-6.2869 4.69897-10.92101 10.9859-10.92101 1.2638 0 3.6943.16203 6.1896 2.07401z"/><path d="m20.8699 17.5644h2.2684v1.4259c.2593-.3565 1.1667-1.7175 2.949-1.7175.713 0 1.4259.2592 2.0093.5185l-1.0695 2.0416c-.5185-.3565-.9722-.4537-1.3286-.4537-.9074 0-1.4907.3565-1.8148.8102-.3889.5185-.7454 1.3935-.7454 3.5323v6.8702h-2.2684z"/><path d="m40.9943 27.2864c-.3888.713-.9398 1.5231-1.5879 2.1065-1.199 1.0694-2.6249 1.5879-4.3425 1.5879-3.1434 0-6.4489-1.9444-6.4489-6.8378 0-3.8888 2.4305-6.9026 6.3193-6.9026 2.5601 0 4.148 1.2638 4.9258 2.3981.8426 1.1666 1.3287 3.1434 1.2315 4.8934h-10.1433c0 2.6573 1.8796 4.4397 4.148 4.4397 1.037 0 1.912-.3241 2.6574-.9398.5833-.5185 1.0694-1.1667 1.3611-1.7824zm-2.236-4.6341c-.3889-2.0416-1.912-3.4027-3.824-3.4027s-3.4999 1.4259-3.824 3.4027z"/><path d="m54.5404 7.68036h2.2684v22.91154h-2.2684v-1.8148c-.713.9722-2.2037 2.2037-4.4721 2.2037-3.2731 0-6.3517-2.3333-6.3517-6.9027 0-4.5045 2.9814-6.8378 6.3517-6.8378 2.5277 0 3.8564 1.4259 4.4721 2.1713zm-8.4906 16.39774c0 2.7546 1.588 4.8934 4.2777 4.8934 2.7546 0 4.3425-2.2684 4.3425-4.861 0-3.3703-2.3333-4.8286-4.3425-4.8286-2.236-.0324-4.2777 1.6204-4.2777 4.7962z"/><path d="m61.8968 11.0182c.8749 0 1.5879.713 1.5879 1.588s-.713 1.5879-1.5879 1.5879c-.875 0-1.588-.7129-1.588-1.5879s.713-1.588 1.588-1.588zm1.1342 6.5462v13.0599h-2.2685v-13.0599z"/><path d="m69.6419 19.6384v10.9859h-2.2684v-10.9859h-1.3935v-2.074h1.3935v-4.7314h2.2684v4.7314h2.2685v2.074z"/></g><g mask="url(#a)"><path d="m75-1h31.0132v34.7953h-31.0132z" fill="#59c2a4"/></g></svg>