<?xml version="1.0" encoding="UTF-8"?>
<svg version="1.1" id="Layer_1" xmlns="http://www.w3.org/2000/svg" xmlns:xlink="http://www.w3.org/1999/xlink" x="0px" y="0px" viewBox="0 0 395 145" style="enable-background:new 0 0 395 145;" xml:space="preserve" width="800" height="294">
<style type="text/css">
	.st0{fill:#FF8900;}
	.st1{fill:#222220;}
</style>
<path class="st0" d="M272.2,60.9v39.5h6.6V83.8h0.1c1.7,2.7,5,4.2,8.8,4.2c8,0,13-6.4,13-14.1c0-7.8-5.3-13.9-12.8-13.9  c-4.9,0-7.8,2.4-9.1,4.4h-0.2v-3.7h-6.4V60.9z M286.3,65.6c5.1,0,7.6,4.3,7.6,8.5s-2.5,8.6-7.6,8.6c-4.9,0-7.8-4.3-7.8-8.5  C278.5,69.9,281.5,65.6,286.3,65.6z"/>
<rect x="307" y="45.8" class="st0" width="6.6" height="41.6"/>
<path class="st0" d="M345.7,87.3V60.9H339v14.5c0,3.5-1.9,7.2-6.2,7.2c-4.2,0-5-3.9-5-7.1V60.9h-6.6v16.4c0,5.4,2.8,10.7,9.7,10.7  c3.9,0,7.1-2.4,8.2-5h0.1v4.2C339.3,87.2,345.7,87.2,345.7,87.3z"/>
<path class="st0" d="M362.3,65.2c2.4,0,4.6,1.3,5.7,2.8l4.2-3.8c-2.1-2.7-6.1-4-9.9-4c-5.2,0-10.5,2.6-10.5,8.4c0,5,3.9,6.5,7.8,7.4  c4,1,6,1.6,6,3.8c0,2.4-2.3,3.1-4.2,3.1c-2.8,0-5.3-1.4-6.7-3.3l-4.3,4.1c2.6,2.8,6.7,4.3,10.8,4.3c5.7,0,11-2.4,11-8.8  c0-5.1-4.6-6.9-8.5-7.9c-3.7-0.9-5.7-1.4-5.7-3.4C358,65.8,360.2,65.2,362.3,65.2z"/>
<g>
	<path class="st0" d="M373.8,25.7L373.8,25.7c-0.7-0.8-1.8-1.3-2.9-1.3c-2.1,0-3.9,1.8-3.9,3.9c0,1,0.4,1.9,1,2.6l0,0   c10.4,11.7,16.2,26.6,16.2,42.3c0,34.9-28.4,63.3-63.3,63.3c-34.9,0-63.4-28.5-63.4-63.4S286,9.8,320.8,9.8   c5.6,0,11.1,0.7,16.4,2.1l0,0c0.4,0.1,0.6,0.2,1,0.2c2.1,0,3.9-1.8,3.9-3.9c0-1.8-1.2-3.3-2.8-3.7l0,0C333.3,2.9,327.1,2,321,2   c-39.2,0-71.1,31.9-71.1,71.1s31.9,71.1,71.1,71.1S392,112.4,392,73.2C392,55.6,385.5,38.7,373.8,25.7z"/>
	<path class="st0" d="M346.5,22.2h4.6v4.6c0,2.1,1.8,3.9,3.9,3.9c2.1,0,3.9-1.8,3.9-3.9v-4.6h4.6c2.1,0,3.9-1.8,3.9-3.9   s-1.8-3.9-3.9-3.9h-4.6V9.8c0-2.1-1.8-3.9-3.9-3.9c-2.1,0-3.9,1.8-3.9,3.9v4.6h-4.6c-2.1,0-3.9,1.8-3.9,3.9   C342.7,20.3,344.3,22.2,346.5,22.2z"/>
</g>
<g>
	<path class="st1" d="M34.5,43.8c4.5,0,8.9,0.9,12.2,2.5l0.6,0.3l2.3-7.5L49.2,39c-1.3-0.6-6.1-2.8-15-2.8   c-19.7,0-32.9,13-32.9,32.5c0,19,12.2,31.3,31.2,31.3c7.8,0,13.7-1.5,16.6-2.9l0.4-0.2l-2-7.4l-0.6,0.3c-3.2,1.5-8.1,2.5-12.8,2.5   c-14.5,0-23.2-8.9-23.2-23.8C10.9,53.3,19.9,43.8,34.5,43.8z"/>
	<path class="st1" d="M78.7,54.6c-2,0-3.7,0.3-5.3,0.8c-1.6,0.5-2.9,1.2-4.1,2.1s-2.2,1.9-3,3c-0.4,0.5-0.7,1-1,1.4v-6.2h-7.2v0.6   c0.1,3,0.1,5.5,0.2,7.5c0.1,1.9,0.1,3.8,0.1,5.6V99h7.2V74.7c0-1.4,0.3-2.8,0.8-4.3s1.3-2.9,2.3-4.2c1-1.3,2.4-2.4,4-3.2   c1.6-0.8,3.5-1.2,5.7-1.2c1.5,0,2.6,0.1,3.3,0.4l0.6,0.2l1.4-7.1l-0.5-0.1C82,54.8,80.4,54.6,78.7,54.6z"/>
	<path class="st1" d="M122.4,61.1c-1.8-1.9-4-3.5-6.7-4.7c-2.6-1.2-5.7-1.8-9-1.8c-3.1,0-6.1,0.6-8.8,1.7c-2.7,1.1-5.1,2.7-7.1,4.8   c-2,2-3.6,4.5-4.7,7.2c-1.1,2.8-1.7,5.8-1.7,9s0.6,6.3,1.7,9c1.2,2.8,2.8,5.2,4.8,7.2s4.4,3.6,7.2,4.8c2.8,1.1,5.8,1.7,9.1,1.7   c3.6,0,7-0.7,10.2-2.1c3.2-1.4,6.1-3.8,8.7-7l0.4-0.5l-5.7-4.6l-0.4,0.6c-1.2,1.8-2.9,3.5-5.2,4.9s-5,2.1-8.1,2.1   c-2.1,0-4-0.4-5.7-1.1c-1.8-0.7-3.3-1.8-4.7-3.1c-1.3-1.3-2.4-2.9-3.3-4.6c-0.7-1.6-1.2-3.3-1.4-5.1h35.8v-3.2   c0-2.9-0.5-5.7-1.4-8.3C125.6,65.3,124.2,62.9,122.4,61.1z M92.3,73.4c0.1-1.4,0.5-2.8,1.2-4.2c0.8-1.5,1.9-2.9,3.2-4.2   c1.3-1.2,2.9-2.2,4.6-2.9c1.8-0.7,3.6-1.1,5.5-1.1c4.2,0,7.5,1.2,9.9,3.6c2.2,2.2,3.4,5.2,3.5,8.8C120.1,73.5,92.3,73.5,92.3,73.4z   "/>
	<path class="st1" d="M174.6,61.8c-0.8-1-1.7-1.9-2.7-2.6c-1.4-1-2.8-1.9-4.3-2.6s-3.1-1.2-4.7-1.5c-1.6-0.3-3.1-0.5-4.6-0.5   c-3.4,0-6.6,0.6-9.4,1.7c-2.8,1.1-5.3,2.7-7.4,4.8c-2.1,2-3.7,4.5-4.9,7.2c-1.2,2.8-1.7,5.8-1.7,9s0.6,6.3,1.7,9   c1.2,2.8,2.8,5.2,4.9,7.2c2.1,2,4.6,3.6,7.4,4.8c2.8,1.1,6,1.7,9.4,1.7c1.4,0,3-0.2,4.6-0.5s3.2-0.8,4.7-1.5s3-1.5,4.3-2.6   c1-0.8,1.9-1.6,2.7-2.6v6.1h7.2V29.8h-7.2V61.8z M173.6,83.7c-0.8,2-2,3.7-3.5,5.1s-3.2,2.6-5.3,3.4s-4.3,1.3-6.6,1.3   c-2.4,0-4.6-0.4-6.5-1.3c-1.9-0.8-3.6-2-4.9-3.4c-1.3-1.4-2.4-3.2-3.1-5.1c-0.7-2-1.1-4.1-1.1-6.4s0.4-4.4,1.1-6.4   c0.7-2,1.8-3.7,3.1-5.1s3-2.6,4.9-3.4s4.1-1.3,6.5-1.3s4.6,0.4,6.6,1.3c2,0.8,3.8,2,5.3,3.4s2.6,3.2,3.5,5.1c0.8,2,1.2,4.1,1.2,6.3   C174.9,79.6,174.4,81.8,173.6,83.7z"/>
	<path class="st1" d="M195.4,36.6c-1,0.9-1.6,2.1-1.6,3.5s0.5,2.6,1.6,3.5c1,0.9,2.2,1.4,3.4,1.4s2.4-0.5,3.4-1.4s1.6-2.1,1.6-3.5   s-0.5-2.6-1.6-3.5C200.2,34.8,197.4,34.8,195.4,36.6z"/>
	<rect x="195.3" y="55.7" class="st1" width="7.2" height="43.3"/>
	<path class="st1" d="M239.3,91.4l-0.8,0.4c-0.9,0.5-1.9,0.8-2.9,1.1c-2,0.5-3.9,0.6-5.4,0.1c-0.7-0.2-1.2-0.5-1.7-1s-0.9-1.2-1.1-2   c-0.3-0.9-0.4-2.2-0.4-3.7V62.3h12.4v-6.6h-12.4V43.8h-7.2v11.9h-9.3v6.6h9.1v26c0,2.4,0.4,4.4,1.1,5.9c0.7,1.5,1.6,2.7,2.7,3.6   c1.1,0.9,2.3,1.5,3.7,1.8c1.3,0.3,2.6,0.5,3.8,0.5c3.2,0,6.1-0.5,8.4-1.6l0.4-0.2L239.3,91.4z"/>
</g>
</svg>