<?xml version="1.0" encoding="UTF-8" standalone="no"?>
<svg
   xmlns:dc="http://purl.org/dc/elements/1.1/"
   xmlns:cc="http://creativecommons.org/ns#"
   xmlns:rdf="http://www.w3.org/1999/02/22-rdf-syntax-ns#"
   xmlns:svg="http://www.w3.org/2000/svg"
   xmlns="http://www.w3.org/2000/svg"
   viewBox="0 0 396.92001 97.386665"
   height="97.386665"
   width="396.92001"
   xml:space="preserve"
   id="svg2"
   version="1.1"><metadata
     id="metadata8"><rdf:RDF><cc:Work
         rdf:about=""><dc:format>image/svg+xml</dc:format><dc:type
           rdf:resource="http://purl.org/dc/dcmitype/StillImage" /></cc:Work></rdf:RDF></metadata><defs
     id="defs6" /><g
     transform="matrix(1.3333333,0,0,-1.3333333,0,97.386667)"
     id="g10"><g
       transform="scale(0.1)"
       id="g12"><path
         id="path14"
         style="fill:#4d68bb;fill-opacity:1;fill-rule:nonzero;stroke:none"
         d="M 161,730.391 C 76.418,730.391 7.85156,661.824 7.85156,577.242 7.85156,492.664 76.418,424.098 161,424.098 c 84.578,0 153.145,68.566 153.145,153.144 0,84.582 -68.567,153.149 -153.145,153.149" /><path
         id="path16"
         style="fill:#4d68bb;fill-opacity:1;fill-rule:nonzero;stroke:none"
         d="m 1354.91,35.1289 c -32.82,-17.2266 -76.3,-31.99218 -135.38,-31.99218 -95.99,0 -154.25,32.81248 -200.19,76.30078 -63.176,60.7105 -87.789,128.8165 -87.789,209.2185 0,99.278 41.023,170.657 87.789,214.145 54.97,51.687 123.07,72.199 201.01,72.199 38.57,0 84.51,-6.566 134.56,-33.641 V 416.648 c -50.05,57.43 -112.4,61.54 -132.1,61.54 -109.94,0 -181.31,-90.254 -181.31,-191.172 0,-121.426 93.53,-187.0629 185.42,-187.0629 50.87,0 95.99,22.1489 127.99,59.8949 V 35.1289" /><path
         id="path18"
         style="fill:#4d68bb;fill-opacity:1;fill-rule:nonzero;stroke:none"
         d="m 1438.6,370.707 h 100.09 v -53.332 c 15.59,30.355 36.92,45.121 44.3,49.227 15.6,9.847 35.29,15.589 59.08,15.589 17.23,0 31.18,-4.101 42.66,-8.203 l -13.12,-93.535 c -13.13,9.024 -26.26,13.129 -46.77,13.129 -18.87,0 -46.77,-4.105 -66.46,-28.715 -18.87,-23.801 -19.69,-54.152 -19.69,-78.769 V 15.4414 H 1438.6 V 370.707" /><path
         id="path20"
         style="fill:#4d68bb;fill-opacity:1;fill-rule:nonzero;stroke:none"
         d="m 1973.53,240.246 c -8.21,48.41 -47.59,71.383 -84.51,71.383 -36.92,0 -75.48,-23.793 -83.69,-71.383 z m 91.89,-125.527 C 2054.76,88.4609 2014.55,3.95703 1890.66,3.95703 c -57.43,0 -100.91,16.40627 -136.2,50.05077 -39.38,36.9141 -55.79,82.8592 -55.79,138.6522 0,70.567 28.72,114.047 54.15,139.481 41.85,41.027 91.08,50.05 133.74,50.05 72.2,0 114.05,-28.714 138.66,-58.253 37.74,-45.125 42.66,-100.918 42.66,-139.481 v -8.203 h -265.83 c 0,-21.328 5.74,-44.309 17.23,-59.895 10.67,-14.765 32.82,-33.6402 71.38,-33.6402 37.74,0 66.46,18.0542 82.87,46.7652 l 91.89,-14.765" /><path
         id="path22"
         style="fill:#4d68bb;fill-opacity:1;fill-rule:nonzero;stroke:none"
         d="m 2230.32,193.48 c 0,-56.613 41.03,-100.9175 98.46,-100.9175 57.43,0 98.46,44.3045 98.46,100.9175 0,56.61 -41.03,100.102 -98.46,100.102 -57.43,0 -98.46,-43.492 -98.46,-100.102 z m 187.07,420.083 h 100.09 V 15.4414 H 2417.39 V 61.3906 C 2381.29,9.69922 2333.7,3.95703 2308.27,3.95703 c -109.12,0 -181.33,85.32427 -181.33,189.52297 0,105.024 71.39,188.711 176.4,188.711 27.08,0 80.41,-4.921 114.05,-57.433 v 288.805" /><path
         id="path24"
         style="fill:#4d68bb;fill-opacity:1;fill-rule:nonzero;stroke:none"
         d="M 2712.76,370.707 V 15.4414 h -100.1 V 370.707 Z m -50.05,210.039 c 32.81,0 59.89,-27.082 59.89,-59.898 0,-32.817 -27.08,-59.895 -59.89,-59.895 -32.83,0 -59.9,27.078 -59.9,59.895 0,32.816 27.07,59.898 59.9,59.898" /><path
         id="path26"
         style="fill:#4d68bb;fill-opacity:1;fill-rule:nonzero;stroke:none"
         d="M 2908.02,285.375 V 15.4414 h -100.1 V 285.375 h -39.38 v 85.332 h 39.38 v 121.426 h 100.1 V 370.707 h 68.91 v -85.332 h -68.91" /><path
         id="path28"
         style="fill:#ffffff;fill-opacity:1;fill-rule:nonzero;stroke:none"
         d="m 151.316,659.477 h -42.218 l 20.382,34.207 h 58.954 V 450.949 h -37.118 v 208.528" /><path
         id="path30"
         style="fill:#74c63b;fill-opacity:1;fill-rule:nonzero;stroke:none"
         d="M 715.602,147.625 H 551.289 c -63.504,0 -115.168,51.66 -115.168,115.168 v 68.102 c 0,63.503 51.664,115.168 115.168,115.168 h 164.313 c 3.664,0 7.285,-0.192 10.863,-0.528 v 71.332 c 0,41.848 -34.238,76.082 -76.082,76.082 h -272.07 c 0.371,-5.191 0.625,-10.418 0.625,-15.707 0,-120.363 -97.575,-217.937 -217.938,-217.937 -63.7773,0 -121.1445,27.398 -161,71.062 L 0,76.082 C 0,34.2383 34.2383,0 76.082,0 h 574.301 c 41.844,0 76.082,34.2383 76.082,76.082 v 72.07 c -3.578,-0.336 -7.199,-0.527 -10.863,-0.527" /><path
         id="path32"
         style="fill:#74c63b;fill-opacity:1;fill-rule:nonzero;stroke:none"
         d="m 715.602,206.527 c 30.949,0 56.265,25.317 56.265,56.266 v 68.102 c 0,30.949 -25.316,56.265 -56.265,56.265 H 551.289 c -30.945,0 -56.262,-25.316 -56.262,-56.265 v -68.102 c 0,-30.949 25.317,-56.266 56.262,-56.266 h 164.313" /></g></g></svg>