<svg version="1.1" id="Layer_1" xmlns="http://www.w3.org/2000/svg" xmlns:xlink="http://www.w3.org/1999/xlink" x="0px" y="0px"
	 viewBox="0 0 187 82" style="enable-background:new 0 0 187 82;" xml:space="preserve" width="800" height="351">
<style type="text/css">
	.st0{fill:none;}
	.st1{fill:#1D8649;}
	.st2{fill:#FED925;}
	.st3{fill:#208749;}
</style>
<g id="Слой_1_copy">
	<g>
		<g>
			<g>
				<path class="st0" d="M105.8,50.5c-0.7-0.4-1.5-0.7-2.4-0.9s-1.9-0.3-3.1-0.3h-6.1v10h6.1c1.1,0,2.1-0.1,3.1-0.3
					c0.9-0.2,1.7-0.5,2.4-0.9c0.7-0.4,1.2-0.9,1.6-1.6c0.4-0.6,0.6-1.4,0.6-2.3c0-0.9-0.2-1.7-0.6-2.3
					C107,51.4,106.5,50.9,105.8,50.5z"/>
				<path class="st0" d="M133.5,50.4c-0.8-0.7-1.7-1.2-2.8-1.5c-1.1-0.3-2.2-0.5-3.5-0.5c-1.2,0-2.4,0.2-3.4,0.5s-2,0.8-2.8,1.5
					s-1.4,1.6-1.9,2.7s-0.7,2.4-0.7,4s0.2,2.9,0.7,4s1.1,2,1.9,2.7s1.7,1.2,2.8,1.5c1.1,0.3,2.2,0.5,3.4,0.5c1.2,0,2.4-0.2,3.5-0.5
					c1.1-0.3,2-0.8,2.8-1.5c0.8-0.7,1.4-1.6,1.9-2.7c0.5-1.1,0.7-2.4,0.7-4c0-1.5-0.2-2.9-0.7-4C135,51.9,134.3,51,133.5,50.4z"/>
				<polygon class="st1" points="70.9,67.4 74.3,67.4 74.3,49.4 85.5,49.4 85.5,46.6 70.9,46.6 				"/>
				<path class="st1" d="M108.2,48.7c-1.1-0.7-2.3-1.2-3.9-1.5c-1.5-0.4-3.2-0.5-5-0.5h-8.4v20.8h3.4V62h5c1.8,0,3.5-0.2,5-0.5
					c1.5-0.4,2.8-0.9,3.9-1.5s1.9-1.5,2.5-2.4c0.6-1,0.9-2,0.9-3.2s-0.3-2.3-0.9-3.2C110.1,50.2,109.2,49.3,108.2,48.7z M107.4,56.6
					c-0.4,0.6-0.9,1.2-1.6,1.6c-0.7,0.4-1.5,0.7-2.4,0.9s-1.9,0.3-3.1,0.3h-6.1v-10h6.1c1.1,0,2.1,0.1,3.1,0.3
					c0.9,0.2,1.7,0.5,2.4,0.9c0.7,0.4,1.2,0.9,1.6,1.6c0.4,0.6,0.6,1.4,0.6,2.3C107.9,55.2,107.8,56,107.4,56.6z"/>
				<path class="st1" d="M136.1,48.7c-1.1-1-2.4-1.7-3.9-2.2c-1.5-0.5-3.1-0.7-4.9-0.7c-1.8,0-3.5,0.3-5,0.7s-2.8,1.2-3.8,2.2
					c-1.1,1-1.9,2.1-2.5,3.5s-0.9,3-0.9,4.8c0,1.8,0.3,3.4,0.9,4.8c0.6,1.4,1.4,2.6,2.5,3.5s2.4,1.7,3.8,2.2c1.5,0.5,3.1,0.7,5,0.7
					c1.8,0,3.4-0.3,4.9-0.7s2.8-1.2,3.9-2.2c1.1-0.9,1.9-2.1,2.5-3.5s0.9-3,0.9-4.8c0-1.8-0.3-3.4-0.9-4.8
					C138,50.8,137.1,49.6,136.1,48.7z M135.5,60.9c-0.5,1.1-1.1,2-1.9,2.7c-0.8,0.7-1.7,1.2-2.8,1.5s-2.2,0.5-3.4,0.5
					c-1.2,0-2.4-0.2-3.4-0.5s-2-0.8-2.8-1.5s-1.4-1.6-1.9-2.7c-0.5-1.1-0.7-2.4-0.7-4c0-1.5,0.2-2.9,0.7-4c0.5-1.1,1.1-2,1.9-2.7
					s1.7-1.2,2.8-1.5c1.1-0.3,2.2-0.5,3.4-0.5c1.2,0,2.4,0.2,3.4,0.5c1.1,0.3,2,0.8,2.8,1.5c0.8,0.7,1.4,1.6,1.9,2.7
					c0.5,1.1,0.7,2.4,0.7,4C136.2,58.5,135.9,59.9,135.5,60.9z"/>
				<polygon class="st1" points="171.8,64.6 162.5,64.6 162.5,46.6 159,46.6 159,64.6 149.7,64.6 149.7,46.6 146.2,46.6 146.2,67.4 
					175.3,67.4 175.3,46.6 171.8,46.6 				"/>
				<rect x="183" y="47" class="st1" width="3.4" height="20.4"/>
			</g>
			<path class="st2" d="M31.8,40.2c-2.1,0.6-3.9,1.5-5.5,2.8c-1.6,1.3-2.9,3-3.9,5c-1,2-1.7,4.5-2,7.3h23.1l3.5,6.6H20.4
				c0.5,6,2.5,10.3,5.9,13c3.4,2.6,7.8,3.9,13.3,3.9c3.6,0,7-0.5,10.1-1.6c0.1,0,0.2-0.1,0.3-0.1l1.2-2.8l5.9-12.4l-12.3-22
				c-2-0.4-4.1-0.6-6.3-0.6C36.1,39.3,33.9,39.6,31.8,40.2z"/>
			<path class="st2" d="M13.7,70.4c-1.4-3.3-2.1-7-2.1-11.3c0-4.2,0.7-8,2.1-11.2c1.4-3.3,3.4-6,5.9-8.3c2.5-2.2,5.5-3.9,9-5.1
				c3.5-1.2,7.4-1.7,11.7-1.7c0.2,0,0.3,0,0.5,0l-7.1-12.7h-3.5c0-3.2-1-10.1-7.7-15.4l-1.7,2.1c5.9,4.6,6.7,10.5,6.7,13.2h-3.6
				L0.5,61.9l5.9,12.4l3.1,7.2h14.2c-1.5-0.8-2.9-1.8-4.1-2.8C17.1,76.4,15.2,73.6,13.7,70.4z"/>
		</g>
		<path class="st3" d="M31.6,13.6c4.2,3.5,10,4.7,15.5,2.7c5.5-2,9.2-6.7,10.1-12.1c-4.2-3.5-10-4.7-15.5-2.7
			C36.3,3.5,32.6,8.2,31.6,13.6z"/>
	</g>
</g>
</svg>