<?xml version="1.0" encoding="utf-8"?>
<!-- Generator: Adobe Illustrator 22.1.0, SVG Export Plug-In . SVG Version: 6.00 Build 0)  -->
<svg version="1.2" baseProfile="tiny" id="Слой_1"
	 xmlns="http://www.w3.org/2000/svg" xmlns:xlink="http://www.w3.org/1999/xlink" x="0px" y="0px" viewBox="0 0 256 128"
	 xml:space="preserve">
<g>
	<linearGradient id="SVGID_1_" gradientUnits="userSpaceOnUse" x1="117.9772" y1="64" x2="234.2693" y2="64">
		<stop  offset="0" style="stop-color:#F8AC1C"/>
		<stop  offset="1" style="stop-color:#E94E1E"/>
	</linearGradient>
	<circle fill="url(#SVGID_1_)" cx="176.123" cy="64" r="58.146"/>
	<g>
		<linearGradient id="SVGID_2_" gradientUnits="userSpaceOnUse" x1="30.8042" y1="51.2053" x2="30.8042" y2="75.0647">
			<stop  offset="0" style="stop-color:#F8AC1C"/>
			<stop  offset="1" style="stop-color:#E94E1E"/>
		</linearGradient>
		<path fill="url(#SVGID_2_)" d="M21.731,75.065V51.205h17.691v4.036H26.548v5.29h11.979v4.02H26.548v6.494h13.33v4.02H21.731z"/>
		<linearGradient id="SVGID_3_" gradientUnits="userSpaceOnUse" x1="53.5085" y1="51.2053" x2="53.5085" y2="75.0647">
			<stop  offset="0" style="stop-color:#F8AC1C"/>
			<stop  offset="1" style="stop-color:#E94E1E"/>
		</linearGradient>
		<path fill="url(#SVGID_3_)" d="M65.479,75.065h-5.241l-2.083-5.42h-9.537l-1.97,5.42h-5.11l9.293-23.859h5.094L65.479,75.065z
			 M56.609,65.625l-3.288-8.854l-3.223,8.854H56.609z"/>
		<linearGradient id="SVGID_4_" gradientUnits="userSpaceOnUse" x1="76.5144" y1="50.7981" x2="76.5144" y2="75.4885">
			<stop  offset="0" style="stop-color:#F8AC1C"/>
			<stop  offset="1" style="stop-color:#E94E1E"/>
		</linearGradient>
		<path fill="url(#SVGID_4_)" d="M66.814,67.301l4.687-0.455c0.282,1.573,0.854,2.729,1.717,3.467
			c0.862,0.738,2.026,1.107,3.491,1.107c1.551,0,2.72-0.328,3.507-0.985c0.787-0.656,1.18-1.425,1.18-2.304
			c0-0.563-0.166-1.043-0.496-1.439c-0.331-0.396-0.909-0.74-1.733-1.033c-0.564-0.195-1.85-0.543-3.857-1.042
			c-2.583-0.64-4.395-1.427-5.436-2.36c-1.465-1.313-2.197-2.913-2.197-4.801c0-1.215,0.344-2.352,1.034-3.41
			c0.689-1.058,1.682-1.863,2.979-2.417c1.296-0.553,2.861-0.83,4.695-0.83c2.995,0,5.249,0.657,6.763,1.97s2.308,3.065,2.384,5.257
			l-4.818,0.211c-0.206-1.226-0.648-2.107-1.326-2.645c-0.678-0.537-1.695-0.806-3.052-0.806c-1.4,0-2.496,0.288-3.288,0.863
			c-0.51,0.369-0.765,0.862-0.765,1.481c0,0.564,0.239,1.047,0.716,1.448c0.607,0.51,2.083,1.042,4.427,1.595s4.077,1.126,5.2,1.717
			c1.123,0.592,2.002,1.4,2.637,2.425c0.635,1.025,0.952,2.293,0.952,3.801c0,1.367-0.38,2.647-1.14,3.842
			c-0.759,1.193-1.833,2.08-3.222,2.66c-1.389,0.58-3.12,0.871-5.192,0.871c-3.017,0-5.333-0.697-6.95-2.092
			C68.094,72.002,67.129,69.971,66.814,67.301z"/>
		<linearGradient id="SVGID_5_" gradientUnits="userSpaceOnUse" x1="98.9497" y1="51.2053" x2="98.9497" y2="75.0647">
			<stop  offset="0" style="stop-color:#F8AC1C"/>
			<stop  offset="1" style="stop-color:#E94E1E"/>
		</linearGradient>
		<path fill="url(#SVGID_5_)" d="M96.532,75.065V65.024l-8.74-13.818h5.647l5.615,9.44l5.501-9.44h5.55l-8.772,13.851v10.009H96.532
			z"/>
	</g>
	<g>
		<path fill="#FFFFFF" d="M146.815,66.293l4.672,1.48c-0.717,2.604-1.908,4.539-3.573,5.803s-3.778,1.896-6.339,1.896
			c-3.169,0-5.773-1.082-7.813-3.246c-2.04-2.165-3.06-5.124-3.06-8.879c0-3.971,1.025-7.056,3.076-9.253
			c2.051-2.197,4.748-3.296,8.09-3.296c2.918,0,5.289,0.863,7.111,2.588c1.086,1.021,1.899,2.485,2.441,4.395l-4.768,1.14
			c-0.283-1.237-0.871-2.214-1.767-2.93s-1.983-1.074-3.263-1.074c-1.77,0-3.204,0.635-4.305,1.904
			c-1.102,1.27-1.652,3.326-1.652,6.168c0,3.017,0.543,5.165,1.627,6.445c1.086,1.28,2.496,1.921,4.232,1.921
			c1.279,0,2.381-0.407,3.304-1.221C145.751,69.321,146.413,68.04,146.815,66.293z"/>
		<path fill="#FFFFFF" d="M177.137,75.066h-5.241l-2.083-5.42h-9.537l-1.971,5.42h-5.109l9.293-23.86h5.094L177.137,75.066z
			 M168.266,65.625l-3.287-8.854l-3.223,8.854H168.266z"/>
		<path fill="#FFFFFF" d="M178.471,67.302l4.688-0.456c0.281,1.573,0.854,2.729,1.717,3.467c0.862,0.738,2.026,1.107,3.491,1.107
			c1.552,0,2.72-0.328,3.507-0.985c0.787-0.656,1.18-1.424,1.18-2.303c0-0.564-0.165-1.044-0.496-1.44
			c-0.33-0.396-0.908-0.74-1.732-1.033c-0.564-0.195-1.851-0.543-3.857-1.042c-2.583-0.64-4.395-1.427-5.437-2.36
			c-1.465-1.313-2.197-2.913-2.197-4.801c0-1.215,0.345-2.352,1.034-3.41c0.688-1.058,1.682-1.863,2.979-2.417
			c1.296-0.553,2.861-0.83,4.695-0.83c2.994,0,5.248,0.657,6.762,1.97c1.514,1.313,2.309,3.065,2.385,5.257l-4.818,0.212
			c-0.205-1.227-0.648-2.107-1.326-2.645s-1.695-0.806-3.051-0.806c-1.4,0-2.496,0.287-3.288,0.862
			c-0.511,0.369-0.765,0.862-0.765,1.481c0,0.563,0.238,1.047,0.716,1.448c0.607,0.51,2.083,1.042,4.427,1.595
			c2.344,0.554,4.077,1.126,5.2,1.717c1.123,0.592,2.002,1.4,2.637,2.426c0.635,1.025,0.952,2.292,0.952,3.8
			c0,1.367-0.38,2.647-1.14,3.842c-0.759,1.193-1.833,2.08-3.222,2.66c-1.39,0.581-3.12,0.871-5.192,0.871
			c-3.017,0-5.333-0.697-6.95-2.092C179.75,72.003,178.785,69.971,178.471,67.302z"/>
		<path fill="#FFFFFF" d="M201.94,75.066v-23.86h4.818v9.392h9.439v-9.392h4.817v23.86h-4.817V64.633h-9.439v10.433H201.94z"/>
	</g>
</g>
</svg>
