<svg xmlns="http://www.w3.org/2000/svg" xmlns:xlink="http://www.w3.org/1999/xlink" id="Layer_1" x="0px" y="0px" viewBox="0 0 435 232.1" style="enable-background:new 0 0 435 232.1;" xml:space="preserve" width="800" height="427"> <style type="text/css"> .st0{fill:#5BBA48;} .st1{fill:#A7A9AC;} </style> <g> <path class="st0" d="M280.6,139.9c-6.2,3.1-13.8,7.7-19.1,11.1c-37,23.3-71.8,49.4-103.3,79.7c-2.6,2.5-7.3,1.8-8.2-1.8 c-0.7-3-2.6-4.9-4.2-7.2c-3.8-5.4-4-8.9-0.3-14.3c16.9-24,35.6-46.7,54.4-69.1c19.7-23.4,39.9-46.4,60.7-68.8 c0.8-0.9,1.9-1.6,2.2-3.3c-2.1,0.1-3.4,1.4-4.8,2.3c-19.3,12.5-37.9,26-55.7,40.6c-5.1,4.2-6.5,4.2-11.7,0.2 c-2.3-1.8-4.5-3.5-6.8-5.3c-3.2-2.6-3.3-3.4-0.1-5.9c9.2-7.4,18.5-14.9,27.9-22.1c33.1-25.4,66.8-50.1,102.2-72.2 C316.4,2,319,0,322.5,0c4.5,0,6.5,1.3,7.3,5.6c1.3,6.8,1.2,13.7,1.8,20.5c0.2,2.6-1.1,4.7-3,6.6c-19.9,20.3-39.2,41.3-57.9,62.7 c-12.3,14.1-24.5,28.3-36.7,42.5c-0.3,0.3-0.4,0.8-0.6,1.3c1.8,0.9,2.7-0.5,3.7-1.2c44.6-27.2,91.2-50.1,141-66.4 c14.5-4.7,29.2-8.7,44.2-11.3c3.6-0.6,7.2-1,10.8-0.3c0.8,0.1,2.4,0,1.9,1.6c-1.2,3.3,1.1,6.9-1.3,10.1c-0.8,1-1.3,2-2.5,2.3 c-46.7,11.2-91.6,32.7-133.6,55.2c-0.3-0.8-0.8-1.6-1-2.4c-0.7-2.9-9.1-5.7-9.8-3.9C284.8,128.7,282.7,134.3,280.6,139.9z"></path> <g> <path class="st1" d="M0,185.5c0-5.5,4.2-9.3,9.4-9.3c4.1,0,6.4,2.2,7.7,4.4l-3.3,1.6c-0.8-1.5-2.4-2.6-4.4-2.6 c-3.1,0-5.5,2.5-5.5,5.9c0,3.4,2.4,5.9,5.5,5.9c2,0,3.6-1.1,4.4-2.6l3.3,1.6c-1.3,2.2-3.6,4.4-7.7,4.4C4.2,194.8,0,191,0,185.5z"></path> <path class="st1" d="M34.5,188h-2.8v6.5h-3.8v-18h8.4c3.8,0,6,2.5,6,5.8c0,3.2-2,4.9-3.9,5.3l4,6.9H38L34.5,188z M35.7,179.8h-4v5 h4c1.5,0,2.7-1,2.7-2.5S37.2,179.8,35.7,179.8z"></path> <path class="st1" d="M53.6,176.5h12.7v3.3h-8.9v3.9h8.7v3.3h-8.7v4.2h8.9v3.3H53.6V176.5z"></path> <path class="st1" d="M77.8,176.5h7.1c5.6,0,9.6,3.6,9.6,9c0,5.4-3.9,9-9.6,9h-7.1V176.5z M84.9,191.1c3.6,0,5.6-2.6,5.6-5.6 c0-3.2-1.9-5.6-5.6-5.6h-3.3v11.3H84.9z"></path> <path class="st1" d="M105.6,176.5h3.8v18h-3.8V176.5z"></path> <path class="st1" d="M125.6,179.9h-5.3v-3.4h14.4v3.4h-5.2v14.6h-3.9V179.9z"></path> </g> <g> <path d="M2.3,121.8h26.4v6.8H10.2v8.1h18.1v6.8H10.2v15.6h-8V121.8z"></path> <path d="M81.8,121.2c11.3,0,19.5,8.1,19.5,19.3c0,11.3-8.2,19.3-19.5,19.3c-11.3,0-19.5-8.1-19.5-19.3 C62.3,129.3,70.5,121.2,81.8,121.2z M81.8,128.3c-6.9,0-11.3,5.3-11.3,12.3c0,6.9,4.4,12.3,11.3,12.3c6.9,0,11.4-5.3,11.4-12.3 C93.2,133.5,88.7,128.3,81.8,128.3z"></path> <path d="M150.6,145.8h-5.8v13.4h-8v-37.4h17.5c7.8,0,12.5,5.1,12.5,12c0,6.6-4.1,10.1-8.2,11.1l8.4,14.2h-9.1L150.6,145.8z M153.1,128.6h-8.3V139h8.3c3.2,0,5.6-2,5.6-5.2C158.7,130.7,156.3,128.6,153.1,128.6z"></path> </g> <g> <path d="M299.2,152.7h-16.7l-2.4,6.4h-8.7l14.4-37.4h10l14.4,37.4h-8.7L299.2,152.7z M284.7,145.8H297l-6.2-17.1L284.7,145.8z"></path> </g> </g> </svg>