<svg viewBox="0 0 500 147.43" xmlns="http://www.w3.org/2000/svg" width="800" height="236"><g fill="#f2a906"><path d="m66 0c2.81.24 5.68.53 8.11 2.1a12.39 12.39 0 0 1 -4.21 6.44c-7.22 6-15.42 10.64-23.47 15.4-4.35 2.4-8.5 5.24-13.18 7 .22-2.16.33-4.83 2.67-5.79 9.2-5.44 18.78-10.39 27.27-16.96 2.07-1.62 4.1-3.45 5.12-5.92z"/><path d="m59.22 1.21c1.56.33 3.11.66 4.67 1-2.76 5.36-8.46 8-13.31 11.1-10.95 6.33-21.88 12.69-33.14 18.4.8-2.13 1.69-4.43 3.87-5.49 11.27-6.66 23.3-12.05 34-19.62a8.8 8.8 0 0 0 3.91-5.39z"/><path d="m32.87 13.64c5.49-3.2 11.35-6 16-10.41l4-.19c-3 4.13-7.52 6.59-11.79 9.15a156.67 156.67 0 0 1 -18.43 9.31c2.05-4.1 6.51-5.7 10.22-7.86z"/><path d="m87.18 2.2c2.61 1.11 7.69 1.21 7.15 5.26-.66 4.22-4.15 7.18-7.08 10-10.16 8.83-22 15.43-33.5 22.27-1.6.82-3.15 2-5 2-2.33-1.09-2.25-4.79 0-6 10.91-7 22.67-12.82 32.74-21.07 3.43-3.06 7.65-7.35 5.69-12.46z"/><path d="m105.89 6c3.58 1.88 7.94 3.73 9.2 8 1 4.84-2.29 9.1-5.29 12.49-7.09 7.53-15.67 13.48-24.34 19-2.91 2.12-6.74-1.08-6.1-4.34a18.94 18.94 0 0 1 4.07-3.29c6.67-4.36 13.27-9 18.87-14.66 2.81-3 5.62-6.33 6.29-10.47.5-2.67-1.34-4.78-2.7-6.73z"/><path d="m66.51 14.62a28.27 28.27 0 0 1 4.61-2.73c1.87 0 2.73 1.83 3.89 3-14.18 11.21-30.52 19.2-46.15 28.17-5.17 2.82-10.15 6-15.45 8.58 0-2-.5-4.34 1.1-5.87 1.85-1.79 4.2-2.92 6.38-4.23 15.43-8.6 30.99-17 45.62-26.92z"/><path d="m96.87 12.41c2.8-2.09 7.22 2.4 5.26 5.33-2.8 4.1-7 7-10.84 10-14.8 10.87-30.81 19.9-46.63 29.16-2.33 1.32-4.6 3-7.28 3.5-3.76-1.81-1.87-7.13 1.59-8.12 15.65-9.11 31.51-17.95 46.16-28.62a62.35 62.35 0 0 0 11.74-11.25z"/><path d="m118.61 11c2.52 2.65 5.74 5.24 6.21 9.13.87 6.54-3.66 12.09-7.83 16.58-10 9.94-21.86 17.76-33.73 25.23-4.09 2.36-8-5.1-3.9-7.14 10.53-6.87 21.26-13.6 30.57-22.12 3.8-3.64 7.59-7.66 9.32-12.73 1.11-2.95.03-6.07-.64-8.95z"/><path d="m126.95 19.27c2.52 2.63 5.71 5.24 6.08 9.12.78 5.44-2.74 10.12-6.11 14-6.27 6.83-13.75 12.41-21.23 17.85-19.87 14.09-40.99 26.29-61.69 39.02-1.83 1.15-4.08 2.51-6.27 1.42a4.78 4.78 0 0 1 -1.73-5.75 47.8 47.8 0 0 1 7-4.82c18.32-11.17 37-21.8 54.81-33.75 8.81-6.08 17.75-12.29 24.74-20.5 4.01-4.48 6.59-10.65 4.4-16.59z"/><path d="m135.23 37.16c1.28-2.86.91-6 .43-9 2.16 2.94 4.91 5.93 4.78 9.85.25 7.72-5.27 14-10.32 19.21-13.12 12.55-28.78 22.04-44.12 31.64-2 1.08-4.17 3-6.64 2.12-2.8-1.27-3.64-5.84-.69-7.44 14.16-9.14 28.81-17.67 41.74-28.54 5.79-5.12 11.85-10.54 14.82-17.84z"/><path d="m10.76 36.33c.48-3.24 1.86-6.32 4.87-7.94a25.84 25.84 0 0 1 -.79 5.23c-1.02 1.3-2.73 1.83-4.08 2.71z"/><path d="m137.46 55a32.35 32.35 0 0 0 6.47-14.07 18.08 18.08 0 0 1 -1 17.48c-6.84 10.88-17.6 18.46-27.93 25.81-3.82 2.51-7.49 5.29-11.54 7.4-2.19 1.38-4.89-.62-4.73-3.12-.19-2.23 1.74-3.51 3.34-4.6 12.81-8.24 25.82-16.9 35.39-28.9z"/><path d="m73.39 44.61c3.45-2.27 6.91 3.9 3.59 6-3.64 3.14-7.75-4.14-3.59-6z"/><path d="m3.31 58.58a8.14 8.14 0 0 1 4.38-9.53c.69 3.82-.69 7.88-4.38 9.53z"/><path d="m28.35 58.58c2.2-.94 3.58 1.81 3.39 3.66-.09 3.8-4.35 5.24-7.15 6.81-2.3 1.19-3.67-1.78-3.43-3.69.13-3.82 4.31-5.31 7.19-6.78z"/><path d="m14.21 75.53c-4.63-2-2.29-9.17 2.27-9.67 2.07 3.26 1.98 8.28-2.27 9.67z"/><path d="m152.78 66.53c2.76 6-.83 12.49-4.38 17.29-9.31 11.6-22.11 19.62-34.51 27.51-4.82 2.76-9.33 6.17-14.51 8.2-3.08.48-4.92-4.2-2.15-5.76 10.85-6.67 21.89-13.09 32.05-20.81 9.43-7.16 18.79-15.27 23.5-26.43z"/><path d="m1.49 84.75c-1.95-3.35-2.44-8.14 1.33-10.39 1.75 3.4 2.12 7.93-1.33 10.39z"/><path d="m131.32 77.3c2.13-1.71 4.19.83 4.62 2.85 1.15 3.14-2 5.37-4 7.13-18.83 14.46-40 25.45-60.28 37.58-1.81.93-3.58 2.46-5.74 2.26-3-.27-5.12-5.11-1.86-6.67 22.59-14 46.56-26.21 67.26-43.15z"/><path d="m135.22 100.14c5-3.82 9.09-8.58 13.75-12.73.45 1.81 1.6 4 .21 5.68a65.53 65.53 0 0 1 -15.74 15.3 6.13 6.13 0 0 1 1.78-8.25z"/><path d="m144.69 103.22c2.69-2.86 4.72-6.25 7.41-9.1.08 5.22-3 9.73-6.2 13.55a93 93 0 0 1 -21.51 17.79c-.13-2.11-.52-4.72 1.47-6.15 6.42-5.17 13.3-9.9 18.83-16.09z"/><path d="m26.11 99.29c2.33-1.79 5.54.34 6.08 2.89 1.59 3.38-3.09 7.39-6.07 5.07-2.71-1.69-3.24-6.54-.01-7.96z"/><path d="m125.31 130.26c7.59-5.63 14.54-12.06 21.85-18-4.45 10.35-14 16.86-22.53 23.66-3.27 2.23-6.62 6-11 4.31 2.94-4.36 7.65-6.83 11.68-9.97z"/><path d="m88.28 118.49c2.94-1.91 7.07.89 5.52 4.33a31.77 31.77 0 0 1 -9.13 5.35c-2.5.69-4.64-1.57-4.54-4 1.8-2.88 5.32-4.04 8.15-5.68z"/><path d="m115.41 130.71c-.73-3.28 2.1-8.81 5.86-6.52.95 3.73-2.58 6.2-5.86 6.52z"/><path d="m70.27 130.38c-.44-2.29 2.49-2.65 3.88-3.63 1.85 1.08 4.43 2.17 4 4.81-1.64 3.3-7.34 2.5-7.88-1.18z"/><path d="m40.76 134.69a37.92 37.92 0 0 1 7.24-4.69c3.08-1.21 6.57 2.24 5.8 5.35a19.34 19.34 0 0 1 -7 4.55c-3.37.76-5.2-2.59-6.04-5.21z"/><path d="m103.91 134.86c1.19-2.46 3.65-5.33 6.69-3.84 1 2.94-1.58 6.83-4.78 6.09z"/><path d="m29.18 141.34c3.26-2.4 7.87 1.86 7 5.42-3.18 2.35-7.94-1.95-7-5.42z"/></g><g fill="#004ba5"><path d="m171.72 8.83q16.1 0 32.21 0 0 3.75 0 7.49h-24.12v52.9h-8.07c-.04-20.11-.01-40.22-.02-60.39z"/><path d="m216.81 9h37.19v60h-8.19q-.06-26.34 0-52.69c-7 0-14 0-21 0-.58 13.24 1.63 26.9-2.29 39.78-2.07 7.48-8.89 13.78-17 13q0-3.6 0-7.17c8.12-1.46 10.94-10.33 11.15-17.53.33-11.76.05-23.59.14-35.39z"/><path d="m290.22 9.3c8.39-1.5 17.51-.35 24.65 4.53a30.42 30.42 0 0 1 -6 53.75c-11.08 4.17-24.53 2.15-33.34-6-9.73-8.62-12.7-23.82-7-35.49a30.83 30.83 0 0 1 21.69-16.79zm-1.07 8.37c-9.88 3.43-17.11 14.1-15.3 24.64 1.56 11.06 12.09 20 23.26 19.65 11.54.27 22.3-9.31 23.28-20.82 1.24-11.1-7.28-21.93-18.05-24.2a25.63 25.63 0 0 0 -13.19.73z"/><path d="m339.77 8.84c11.08.12 22.17 0 33.26.05v7.5h-25.24v17.29c8 .16 16.76-1.11 23.85 3.46 8.86 5.39 9.6 19.25 2.43 26.34-3.53 3.64-8.66 5.14-13.61 5.42-6.89.37-13.8.15-20.69.2zm8.09 32.32q0 10.22 0 20.44c5.12-.09 10.32.28 15.37-.76a9.69 9.69 0 0 0 7.44-10.27 9.5 9.5 0 0 0 -7.16-8.49c-5.11-1.2-10.43-.85-15.66-.91z"/><path d="m411.38 8.91h8q13 30.13 26 60.26h-8.8c-3.12-7.22-6.3-14.44-9.42-21.67-7.87 0-15.73 0-23.6 0-3.14 7.23-6.31 14.45-9.44 21.68q-4.4 0-8.79 0 12.94-30.18 26.05-60.27zm4 10.75q-4.38 10.17-8.73 20.34h17.23c-2.88-6.79-5.68-13.58-8.54-20.35z"/><path d="m462.8 9h37.2v60h-8.29v-52.67h-20.89c-.11 9.32.22 18.65-.19 28-.55 7.63-2.19 16.11-8.25 21.39-2.94 2.71-7.06 3.24-10.86 3.61q-.08-3.58-.09-7.17c2.63-1.13 5.58-2.08 7.3-4.55 3.4-4.72 3.87-10.77 4-16.39.13-10.78.04-21.51.07-32.22z"/><path d="m171.73 84.45 8.09.12q0 11.8 0 23.61c7.69-7.85 15.32-15.75 23-23.63h11.31q-12.81 13.22-25.66 26.37 12.65 16.88 25.32 33.76c-3.38 0-6.75 0-10.13 0-6.93-9.33-13.94-18.57-20.89-27.88l-3 3v24.86h-8.09q.04-30.09.05-60.21z"/><path d="m227.72 84.48c7.38.07 14.77-.22 22.13.26 4.55.28 9.19 1.57 12.73 4.56 7.15 5.73 9 16.94 4.23 24.72a18.68 18.68 0 0 1 -14.93 9c-5.36.2-10.72 0-16.08.07v21.63h-8.08zm8.08 7.52v23.6c6-.27 12.1.67 18-.67 7.78-2.34 10.13-13.41 4.32-18.94-5.9-5.79-14.92-3.5-22.32-3.99z"/><path d="m282.4 84.54h34v7.5h-26v17.21h25.1v7.49h-25.02v20.37h26q0 3.75 0 7.5-17 0-34 0z"/><path d="m341.54 84.54h37.14v52.57h3.93q0 3.75 0 7.49h-52.42c0-2.38 0-4.74 0-7.12 7.44-.72 10.35-8.9 11-15.3.81-12.51.14-25.09.35-37.64zm8 7.36c-.11 9.76.24 19.53-.23 29.27a32 32 0 0 1 -5 16h26.16v-45.27z"/><path d="m399.38 84.54h8.09v43.92c12.12-14.62 24.32-29.18 36.39-43.86 1.92 0 3.86-.07 5.79-.09q0 30 0 60.11c-2.67 0-5.34 0-8 0q0-22.08 0-44.15-18.36 22.04-36.65 44.12h-5.59q-.05-30.01-.03-60.05z"/><path d="m465.36 84.54h34.64v7.46h-13.21v52.58q-4.05 0-8.09 0v-52.58h-13.34c-.01-2.46 0-5 0-7.46z"/></g></svg>