<svg xmlns="http://www.w3.org/2000/svg" viewBox="0 0 176.78 57.74"><defs><style>.cls-1{fill:#356fcc;}</style></defs><g id="Layer_2" data-name="Layer 2"><g id="Layer_1-2" data-name="Layer 1"><path class="cls-1" d="M82.22,21.11v7.33c-.66-.05-1.17-.1-1.78-.1-4.38,0-7.28,2.39-7.28,7.63V48.9H65.22V21.52H72.8v3.61C74.74,22.49,78,21.11,82.22,21.11Z"/><path class="cls-1" d="M86,13.27c0-2.49,2-4.42,4.93-4.42s4.94,1.83,4.94,4.27c0,2.65-2,4.58-4.94,4.58S86,15.77,86,13.27Zm1,8.25h7.94V48.9H87Z"/><path class="cls-1" d="M129.45,21.52,117.9,48.9h-8.2L98.2,21.52h8.2L114,40.14l7.84-18.62Z"/><path class="cls-1" d="M160.7,33.22V48.9h-7.94V34.44c0-4.42-2-6.46-5.55-6.46-3.82,0-6.56,2.34-6.56,7.38V48.9h-7.94V21.52h7.58v3.2a12,12,0,0,1,9.06-3.61C155.81,21.11,160.7,24.88,160.7,33.22Z"/><path class="cls-1" d="M166.91,13.27c0-2.49,2-4.42,4.93-4.42s4.94,1.83,4.94,4.27c0,2.65-2,4.58-4.94,4.58S166.91,15.77,166.91,13.27Zm1,8.25h7.93V48.9h-7.93Z"/><path class="cls-1" d="M48.5,0H9.24A9.27,9.27,0,0,0,0,9.24V48.5a9.26,9.26,0,0,0,9.24,9.24H48.5a9.26,9.26,0,0,0,9.24-9.24V9.24A9.26,9.26,0,0,0,48.5,0ZM31.65,40.86a13.77,13.77,0,0,0,6.75-1.61v-11h7.92v15.2a25.89,25.89,0,0,1-15.15,4.76c-11.77,0-20.44-8.08-20.44-19.37S19.4,9.5,31.33,9.5c6.59,0,12,2.25,15.68,6.48l-5.56,5.13a12.69,12.69,0,0,0-9.69-4.23c-7.28,0-12.25,4.87-12.25,12S24.48,40.86,31.65,40.86Z"/></g></g></svg>