<svg viewBox="0 0 499 60.47" xmlns="http://www.w3.org/2000/svg" width="800" height="97"><g transform="translate(-1)"><g fill="#006848"><path d="m287.6 4.59c1-3 4.38-4.22 7.3-4.41 6.78-.37 13.57 0 20.36-.14-2.78 7.49-1.7 17.26-7.84 23-7.9 2.35-16.53.47-24.69 1.05 1.54-6.51 2.65-13.18 4.87-19.5z"/><path d="m99.92 15.32c10-2.4 23.11 0 27.87 10.21 3.78 9.3 3.54 21.57-3.83 29.08-7.14 6.85-18.42 6.93-27.31 4-18.17-7.03-16.6-39.61 3.27-43.29zm1.61 11.91c-4.43 4.67-4 12.24-2 17.93 2.57 6 12.31 6.11 15.16.3 1.87-5.38 2.14-11.66-.58-16.81-2.77-3.78-9-4.55-12.57-1.42z"/><path d="m1 15.36q17.49 0 35 0v10.94h-21v33.27h-14z"/><path d="m41.69 15.45c9.17 0 18.4-.49 27.56.25 11.75 1.57 13.52 19.41 4.22 25.24-5.27 3.17-11.77 2.33-17.65 2.4-.16 5.39-.12 10.8-.11 16.21q-7 .05-14 0 0-22.05-.02-44.1zm14 9.07c0 3.29.07 6.58.14 9.87 3.68-.54 9.21.09 10-4.8-.12-5.3-6.37-5.13-10.17-5.07z"/><path d="m137.13 15.38q7-.11 14 .09c-.05 10.91 0 21.82 0 32.71h8.3c.12-11-.19-21.94.18-32.9q6.83.13 13.66 0c.44 11 .07 21.94.21 32.9h8.74c.16-11-.32-22 .23-32.92 4.53.11 9.07.12 13.6 0 .46 14.71 0 29.43.25 44.14-19.71.33-39.43.07-59.16.12z"/><path d="m205.41 15.38h14v44.16c-4.67.07-9.35.07-14 0q0-22.08 0-44.16z"/></g><path d="m253 15.66c.72-3.61 2.87-7.56 7.06-7.63 7.21-.3 14.43 0 21.62-.09-1.44 6.85-3.13 13.66-4.76 20.47-4.36.11-9.87-.61-12.64 3.61-2.68 6.57-3.61 13.67-5.25 20.54 4.13 0 8.25 0 12.38.05-1.23 2.77-2.71 6.08-6.13 6.5-7.49 1.05-15.13.21-22.67.47 3.57-14.63 6.96-29.29 10.39-43.92z" fill="#65ac3b"/><g fill="#cf2366"><path d="m386.58 17.84c6.67-3.82 15-4.24 22.31-2.14 6.41 2 10.66 8.14 11.94 14.53-4.31 0-8.6 0-12.9-.09-2.63-6.34-12.1-6.72-14.92-.39-1.7 5.34-2 11.84.63 16.93 4.13 5.59 13.22 2.78 14.65-3.75h13.11c-1.4 6.55-4.57 13.54-11.4 15.89-10.38 3.59-25 1.73-29.87-9.47-4.37-10.2-3.51-24.82 6.45-31.51z"/><path d="m331.93 15.36c10.44.42 21-.91 31.38.75 8.86 2.57 9.77 15.81 1.59 19.87 10.7 2.85 10 20-.53 22.45-10.66 2.17-21.66.72-32.46 1.14q.01-22.12.02-44.21zm14 9.16v7.95c3.94-.32 10.58 1.47 11.19-4.25-1.36-4.98-7.4-3.42-11.2-3.7zm0 16.63v8.35c3.47-.07 7 .35 10.4-.4 2.68-1 3.08-4.57 1.14-6.5-3.47-2.15-7.7-1.22-11.53-1.45z"/><path d="m427.34 15.38q7 0 14 0v44.17q-7 0-14 0 0-22.09 0-44.17z"/><path d="m450.56 15.38h18.19c2.42 8.49 4.36 17.11 6.76 25.6q3.28-12.79 6.58-25.58h17.91v44.17q-5.7 0-11.38 0c0-10.17 0-20.36.05-30.54-3 10.1-5.27 20.4-8 30.57h-10.37c-2.87-10.61-5.45-21.29-8.19-31.94-.33 10.65-.09 21.29-.18 32h-11.37q-.03-22.21 0-44.28z"/><path d="m264.31 32c2.77-4.22 8.28-3.5 12.64-3.61 4.87.09 9.73.11 14.6.14-1.8 6.76-2.75 13.8-5.32 20.31-3.24 4.87-9.8 3.5-14.79 3.75-4.13 0-8.25-.05-12.38-.05 1.65-6.86 2.58-13.97 5.25-20.54z"/></g></g></svg>