<svg enable-background="new 0 0 300 120" viewBox="0 0 300 120" xmlns="http://www.w3.org/2000/svg" width="800" height="320"><g fill="#d80409"><path d="m103.2 43.9c0-11.3 4-21.7 10.7-29.8h-82.5c-17.4 0-31.4 14-31.4 31.4 0 17.4 14 31.4 31.4 31.4h85.4c-8.4-8.4-13.6-20.1-13.6-33zm-48.9 22.3c-1.2-.1-2.4-.6-3.1-1.6l-11.1-15-1.1 1.2v11.8c-.1 2.3-2 4-4.2 3.9-2-.1-3.8-1.7-3.9-3.9v-34.4c.2-2.3 2.2-3.9 4.4-3.7 1.9.2 3.5 1.7 3.7 3.7v11l11.4-12.9c.8-1 1.9-1.6 3.2-1.6 1.7 0 4 1.6 4 3.7.1 1-.3 1.8-1 2.5l-11.3 12.8 12.6 16.7c.4.5.6 1.3.6 1.9-.1 2.3-1.9 4-4.2 3.9zm26.9-24.8c2-.1 3.9 1.5 4 3.7-.1 2-1.8 3.8-3.9 3.7h-.1-10.9v13.6c-.2 2.3-2.2 3.9-4.4 3.7-1.9-.2-3.5-1.7-3.7-3.7v-33.5c.1-2.4 2.2-4.1 4.4-4.1h15.6c2.2 0 3.9 1.6 4 3.8-.1 2-1.9 3.7-4 3.6h-12v9.4h10.9v-.2z"/><path d="m150 5c-22.1 0-40 17.5-40 38.9s18 38.9 40 38.9 40-17.5 40-38.9-17.9-38.9-40-38.9zm-14.5 49.1c-4 0-7.3-3.1-7.3-7.1 0-3.9 3.2-7.1 7.3-7.1 4 0 7.3 3.1 7.3 7.1s-3.2 7.1-7.3 7.1zm14.6 10.9c-2.9-2.8-4.5-6.7-4.6-10.6.1-4 1.8-7.8 4.6-10.6 2.9 2.8 4.5 6.6 4.6 10.6-.1 4-1.8 7.8-4.6 10.6zm14.2-10.9c-4 0-7.3-3.1-7.3-7.1 0-3.9 3.2-7.1 7.3-7.1 4 0 7.3 3.1 7.3 7.1s-3.3 7.1-7.3 7.1zm8.7-20.2c-10.1.6-18.7 4.5-22.9 9.9-4.2-5.4-12.8-9.3-23-9.9.2-.2.3-.3.5-.5 12.7-12.1 33-11.9 45.4.5z"/><path d="m25.1 109.9v-3.9c0-2.8 1.4-5.1 5.1-5.1s5.1 2.4 5.1 5.1v3.9c.2 2.6-1.7 4.9-4.3 5.1-.2 0-.5 0-.8 0-2.6.2-4.9-1.8-5.1-4.4 0-.3 0-.5 0-.7zm2.8-3.9v3.9c0 1.5.8 2.6 2.4 2.6s2.4-1.1 2.4-2.6v-3.9c0-1.6-.6-2.6-2.4-2.6s-2.4 1.1-2.4 2.6z"/><path d="m84.7 114.3-4.5-7.9v7.2c0 .8-.6 1.3-1.4 1.3s-1.3-.5-1.3-1.3v-11.4c0-.8.6-1.3 1.3-1.3h.1c.5 0 1 .3 1.3.8 1.7 3 2.7 4.7 4.5 7.9v-7.3c0-.8.6-1.3 1.4-1.3s1.3.5 1.3 1.3v11.4c0 .8-.6 1.3-1.4 1.3 0 0 0 0-.1 0-.5-.1-.9-.3-1.2-.7z"/><path d="m136.8 114.8h-5.5c-.8 0-1.4-.5-1.4-1.3v-11.3c0-.8.6-1.3 1.4-1.3s1.3.5 1.4 1.3v10.1h4.2c.6-.1 1.3.4 1.3 1.1.1.6-.4 1.3-1.1 1.3 0 .1-.1.1-.3.1z"/><path d="m179.8 102.2c.1-.8.8-1.3 1.5-1.2.6.1 1.1.5 1.2 1.2v11.5c-.1.8-.8 1.3-1.5 1.2-.6-.1-1.1-.5-1.2-1.2z"/><path d="m232.2 114.3-4.5-7.9v7.2c0 .8-.6 1.3-1.4 1.3s-1.3-.5-1.3-1.3v-11.4c0-.8.6-1.3 1.3-1.3h.1c.5 0 1 .3 1.3.8 1.7 3 2.7 4.7 4.5 7.9v-7.3c0-.8.6-1.3 1.4-1.3s1.3.5 1.3 1.3v11.4c0 .8-.6 1.3-1.4 1.3 0 0 0 0-.1 0-.4-.1-.9-.3-1.2-.7z"/><path d="m284.5 114.8h-5.2c-1 0-1.8-.3-1.8-1.4v-11c0-.8.8-1.4 1.5-1.4h5.3c.8 0 1.3.5 1.4 1.3 0 .8-.6 1.3-1.3 1.2h-4.1v3.1h3.7c.8 0 1.3.5 1.3 1.2 0 .8-.6 1.3-1.3 1.3h-3.7v3.1h4.2c.6-.1 1.3.4 1.4 1.1.1.6-.4 1.3-1.1 1.4-.2.1-.3.1-.3.1z"/><path d="m262.9 32.1c-4.4 0-6.5 2.9-6.5 6.9v3.1h13v-3.1c0-4.1-2.1-6.9-6.5-6.9z"/><path d="m268.6 14.1h-82.3c6.7 8.1 10.7 18.6 10.7 29.8 0 12.8-5.2 24.5-13.6 33h85.2c17.4 0 31.4-14 31.4-31.4.1-17.4-14-31.4-31.4-31.4zm-23.2 37.6c0 8.1-5.5 14-14.8 14-9.5 0-14.8-5.9-14.8-14v-23c.1-2.2 1.9-3.8 4.1-3.7h.1c2.2-.1 4 1.6 4.1 3.8v23c0 4.1 2 6.9 6.6 6.9 4.4 0 6.5-2.9 6.5-6.9v-23.1c.1-2.2 1.9-3.8 4.1-3.7 2.2-.1 4.1 1.5 4.2 3.8v23h-.1zm32.3 10.4c-.1 2.2-1.9 3.8-4 3.8h-.1c-2.2.1-4-1.6-4.1-3.8v-12.3h-13v12.3c-.1 2.2-1.9 3.8-4.1 3.8-2.2.1-4.1-1.5-4.2-3.8v-23.1c0-8.1 5.5-14 14.8-14 9.5 0 14.8 5.9 14.8 14v23.1z"/></g></svg>