<svg version="1.1" xmlns="http://www.w3.org/2000/svg" xmlns:xlink="http://www.w3.org/1999/xlink" x="0px" y="0px"
	 viewBox="0 0 1185 337" style="enable-background:new 0 0 1185 337;" xml:space="preserve" width="1185" height="337">
<style type="text/css">
	.st0{display:none;}
	.st1{fill:none;stroke:#39B54A;stroke-width:32;stroke-linecap:round;stroke-miterlimit:10;}
	.st2{fill:none;stroke:#39B54A;stroke-width:32;stroke-miterlimit:10;}
	.st3{fill:#39B54A;}
	.st4{font-family:'Roboto-Bold';}
	.st5{font-size:28px;}
	.st6{letter-spacing:1;}
</style>
<g id="Layer_1" class="st0">
	
		<image style="display:inline;overflow:visible;" width="351" height="208" transform="matrix(0.75 0 0 0.75 459.5 113)">
	</image>
</g>
<g id="Layer_5">
	<g id="Layer_2">
		<g>
			<path class="st1" d="M909.2,40.7h-22.8c-20.5,0-37.1,16.6-37.1,37.1V123"/>
			<path class="st2" d="M1168.1,134.6l-64.7-106.4c-2.1-3.5-6.8-4.7-10.3-2.5l-39.5,39l-17.6-43.9c-2.1-3.5-6.8-4.7-10.3-2.5
				L898.2,95.7C894.7,97.9,1170.2,138.1,1168.1,134.6z"/>
		</g>
		<g>
			<path class="st3" d="M944,183.7c-7.2,0-12.8,2.8-16.8,8.5c-4,5.6-5.9,14.4-5.9,26.2c0,10.5,2,18.6,5.9,24.1c4,5.6,9.6,8.4,17,8.4
				c7.2,0,12.8-2.7,16.8-8.3c4-5.5,6-14.3,6-26.4c0-10.3-2-18.3-6-24C957,186.6,951.3,183.7,944,183.7z"/>
			<path class="st3" d="M1146.9,81.8H870c-20.7,0-37.4,16.8-37.4,37.4v179.6c0,20.7,16.8,37.4,37.4,37.4h276.9
				c20.7,0,37.4-16.8,37.4-37.4V119.2C1184.3,98.6,1167.6,81.8,1146.9,81.8z M982.4,259.3c-9.5,10.3-22.2,15.4-38.2,15.4
				c-16,0-28.7-5.1-38.2-15.3c-9.5-10.2-14.3-24.1-14.3-41.7v-1.3c0-11,2.1-20.8,6.3-29.4c4.2-8.6,10.3-15.2,18.3-20
				c7.9-4.7,17.2-7.1,27.7-7.1c14.9,0,27.1,4.6,36.6,13.7c9.4,9.1,14.7,21.6,15.8,37.2l0.2,7.6C996.6,235.4,991.9,249,982.4,259.3z
				 M1090.7,272.6l-24.1-40.8h-11.9v40.8h-29.6V161.9h29.6v41.6h10.5l24.1-41.6h37.3l-36.2,52.7l39.6,58H1090.7z"/>
		</g>
	</g>
	<g id="Layer_3">
		<g>
			<path class="st3" d="M48.9,211.8H31.2v60.9H0.5v-149h30.7v59.6h14l36.4-59.6h37.4l-45.9,70.5l50.7,78.5H87.3L48.9,211.8z"/>
			<path class="st3" d="M134.3,216.3c0-11,2.1-20.8,6.3-29.4c4.2-8.6,10.3-15.2,18.3-20c7.9-4.7,17.2-7.1,27.7-7.1
				c14.9,0,27.1,4.6,36.6,13.7c9.4,9.1,14.7,21.6,15.8,37.2l0.2,7.6c0,17-4.7,30.6-14.2,40.9c-9.5,10.3-22.2,15.4-38.2,15.4
				s-28.7-5.1-38.2-15.3c-9.5-10.2-14.3-24.1-14.3-41.7V216.3z M163.9,218.4c0,10.5,2,18.6,5.9,24.1c4,5.6,9.6,8.4,17,8.4
				c7.2,0,12.8-2.7,16.8-8.3c4-5.5,6-14.3,6-26.4c0-10.3-2-18.3-6-24c-4-5.7-9.7-8.5-17-8.5c-7.2,0-12.8,2.8-16.8,8.5
				C165.9,197.8,163.9,206.5,163.9,218.4z"/>
			<path class="st3" d="M295.3,161.9v86.9h30.4v-86.9h29.7v86.9h30.4v-86.9h29.6v110.7H265.8V161.9H295.3z"/>
			<path class="st3" d="M498.4,274.7c-16.2,0-29.5-5-39.6-14.9c-10.2-10-15.3-23.2-15.3-39.8v-2.9c0-11.1,2.1-21.1,6.4-29.8
				c4.3-8.8,10.4-15.5,18.3-20.3c7.9-4.7,16.9-7.1,27-7.1c15.1,0,27.1,4.8,35.8,14.3c8.7,9.6,13,23.1,13,40.6v12.1h-70.5
				c1,7.2,3.8,13,8.6,17.4c4.8,4.4,10.9,6.5,18.3,6.5c11.4,0,20.3-4.1,26.7-12.4l14.5,16.3c-4.4,6.3-10.4,11.2-18,14.7
				C516,272.9,507.6,274.7,498.4,274.7z M495,183.7c-5.9,0-10.6,2-14.3,6c-3.7,4-6,9.7-7,17.1h41.1v-2.4c-0.1-6.6-1.9-11.7-5.3-15.3
				C506.2,185.5,501.3,183.7,495,183.7z"/>
			<path class="st3" d="M665.4,161.9v110.7h-29.6v-86.9h-26.1l-1.8,34.2c-1.2,18.2-4.8,31.5-10.7,39.8c-6,8.3-14.9,12.6-26.8,12.8
				h-10l-0.3-24l3.7-0.3c5.3-0.4,9.2-3.5,11.7-9.4c2.5-5.9,4-15.9,4.6-30l2-47H665.4z"/>
			<path class="st3" d="M728.2,194.4h21.2c9.6,0,17.9,1.6,25.2,4.8c7.2,3.2,12.8,7.8,16.6,13.8c3.9,6,5.8,12.9,5.8,20.8
				c0,11.7-4.3,21.1-12.9,28.2c-8.6,7.1-20.4,10.7-35.2,10.7h-50.2V161.9h29.7V194.4z M728.2,218.2V249h21c5.9,0,10.4-1.4,13.5-4.1
				c3.1-2.7,4.7-6.4,4.7-11.1c0-4.8-1.5-8.6-4.6-11.4s-7.6-4.2-13.6-4.2H728.2z"/>
		</g>
		<text transform="matrix(1 0 0 1 631.5 189.5)" class="st0 st4 st5 st6">ок</text>
	</g>
</g>
</svg>