<svg version="1.1" id="Layer_1" xmlns="http://www.w3.org/2000/svg" xmlns:xlink="http://www.w3.org/1999/xlink" x="0px" y="0px"
	 viewBox="0 0 101 14" style="enable-background:new 0 0 101 14;" xml:space="preserve" width="800" height="111">
<style type="text/css">
	.st0{fill:none;}
	.st1{fill:#6D5BCD;}
	.st2{fill:url(#SVGID_1_);}
</style>
<g>
	<path class="st0" d="M-7.5-9h115v30h-115V-9z"/>
	<path class="st1" d="M0.5,0.3h4.3l3,8.6h0l3-8.6h4.3v13.2h-2.9V3.4h0L8.9,13.5H6.7L3.4,3.4h0v10.1H0.5V0.3z M34.7,0.3h3.9l5.5,9.2
		h0V0.3H47v13.2h-3.8l-5.7-9.4h0v9.4h-2.9L34.7,0.3L34.7,0.3z M50.6,0.3h8.8V3h-6v2.5h5.6v2.7h-5.6v2.7h6.3v2.7h-9.2V0.3z M65.3,2.9
		h-3.7V0.3h10.3v2.6h-3.7v10.6h-2.9C65.3,13.5,65.3,2.9,65.3,2.9z M74.2,0.3h2.9v5.5l5.1-5.5h3.8l-5.8,6.1l6.3,7.1h-4l-5.3-6.3v6.3
		h-2.9L74.2,0.3L74.2,0.3z M92.5,0.3h2.4l5.7,13.2h-3.2l-1.1-2.8h-5.1L90,13.5h-3.2C86.8,13.5,92.5,0.3,92.5,0.3z M93.6,4.2L92,8.3
		h3.2L93.6,4.2z"/>
	
		<radialGradient id="SVGID_1_" cx="-615.0052" cy="440.4498" r="1.0378" gradientTransform="matrix(-2.8277 13.5542 13.5545 2.8277 -7681.439 7092.7388)" gradientUnits="userSpaceOnUse">
		<stop  offset="0" style="stop-color:#F26922"/>
		<stop  offset="0.5529" style="stop-color:#AA3694"/>
		<stop  offset="1" style="stop-color:#61399B"/>
	</radialGradient>
	<path class="st2" d="M31.4,3.8h-3.5c-0.4-0.4-0.8-0.7-1.2-0.8c-0.5-0.2-1.1-0.3-1.7-0.3c-0.6,0-1.2,0.1-1.7,0.3
		c-0.5,0.2-0.9,0.5-1.3,0.9c-0.4,0.4-0.6,0.8-0.8,1.3c-0.2,0.5-0.3,1.1-0.3,1.7c0,0.1,0,0.2,0,0.3h-3c0-0.1,0-0.2,0-0.3
		c0-1.1,0.2-2,0.5-2.9c0.3-0.8,0.8-1.6,1.5-2.2c0.6-0.6,1.4-1.1,2.2-1.4C23,0.2,23.9,0,25,0s2,0.2,2.8,0.5c0.8,0.3,1.6,0.8,2.2,1.4
		C30.6,2.4,31,3.1,31.4,3.8L31.4,3.8z M32,6.3c0,0.2,0,0.4,0,0.6c0,1.1-0.2,2-0.5,2.9c-0.3,0.8-0.8,1.6-1.5,2.2
		c-0.6,0.6-1.4,1.1-2.2,1.4c-0.9,0.3-1.8,0.5-2.8,0.5c-1,0-2-0.2-2.8-0.5c-0.8-0.3-1.6-0.8-2.2-1.4c-0.7-0.6-1.2-1.4-1.5-2.3h3.4
		c0.4,0.5,0.9,0.9,1.5,1.2c0.5,0.2,1.1,0.3,1.7,0.3c0.6,0,1.2-0.1,1.7-0.3c0.5-0.2,0.9-0.5,1.3-0.9c0.4-0.4,0.6-0.8,0.8-1.3
		S29,7.5,29,6.9c0-0.2,0-0.4,0-0.6C29,6.3,32,6.3,32,6.3z"/>
</g>
</svg>