<svg fill="none" viewBox="0 0 180 32" xmlns="http://www.w3.org/2000/svg" width="800" height="142"><path d="m54.0564 26.8328c0 .6944-.2044 1.2516-.6132 1.6716-.4032.42-.9436.63-1.6212.63s-1.2208-.21-1.6296-.63-.6132-.9772-.6132-1.6716c0-.6888.2072-1.2432.6216-1.6632s.9604-.63 1.638-.63c.6664 0 1.2012.21 1.6044.63.4088.42.6132.9744.6132 1.6632zm-1.1928-.0084c0-.4312-.0952-.7672-.2856-1.008-.1848-.2464-.4424-.3696-.7728-.3696-.3192 0-.5712.1232-.756.3696s-.2772.5852-.2772 1.0164c0 .4424.0924.7868.2772 1.0332s.4424.3696.7728.3696.5852-.1232.7644-.3696c.1848-.252.2772-.5992.2772-1.0416zm7.1339 2.1756h-1.1844v-1.8228h-1.6716v1.8228h-1.1844v-4.3344h1.1844v1.5708h1.6716v-1.5708h1.1844zm6.0541 0h-1.1844v-3.4188h-1.1424l-.0504 1.5288c-.0056.168-.0112.3024-.0168.4032-.0056.0952-.0224.224-.0504.3864-.0224.1624-.0504.294-.084.3948-.0336.0952-.0868.2044-.1596.3276-.0672.1176-.1484.21-.2436.2772-.0896.0616-.2072.1148-.3528.1596-.1456.0504-.308.0756-.4872.0756-.2912 0-.5068-.028-.6468-.084v-.9492c.14.028.252.042.336.042.3416 0 .5208-.2996.5376-.8988l.0672-2.5788h3.4776zm6.0793 0h-1.2096c-.0392-.112-.0672-.252-.084-.42-.364.364-.8316.546-1.4028.546-.4816 0-.8596-.1148-1.134-.3444-.2744-.2352-.4116-.5572-.4116-.966 0-.1848.0224-.3472.0672-.4872.0504-.14.1288-.2576.2352-.3528.112-.0952.2156-.1736.3108-.2352.1008-.0616.238-.112.4116-.1512s.3136-.0672.42-.084c.1064-.0224.2548-.0448.4452-.0672.42-.056.7-.1148.84-.1764.1456-.0616.2184-.1764.2184-.3444 0-.3864-.2604-.5796-.7812-.5796-.2744 0-.476.0504-.6048.1512-.1288.0952-.2128.266-.252.5124h-1.1172c.0672-.9744.7364-1.4616 2.0076-1.4616 1.26 0 1.89.4704 1.89 1.4112v1.8732c0 .5488.0504.9408.1512 1.176zm-1.302-2.1084c-.14.084-.42.1596-.84.2268-.3528.056-.5824.126-.6888.21-.1232.1064-.1848.252-.1848.4368 0 .1792.056.322.168.4284.1176.1008.28.1512.4872.1512.3192 0 .574-.084.7644-.252.196-.1736.294-.4116.294-.714zm6.1251-3.8724h.4704c0 .8064-.4564 1.2096-1.3692 1.2096s-1.3692-.4032-1.3692-1.2096h.4704c.0728.3696.3724.5544.8988.5544s.826-.1848.8988-.5544zm1.1256 5.9808h-1.1424v-2.9316l-1.5456 2.9316h-1.3524v-4.3344h1.1424v2.9316l1.5456-2.9316h1.3524zm6.0792 0h-1.1844v-1.8228h-1.6716v1.8228h-1.1844v-4.3344h1.1844v1.5708h1.6716v-1.5708h1.1844zm9.8868 0h-1.4448l-1.2516-1.8648-.5292.5376v1.3272h-1.1676v-4.3344h1.1676v1.7136l1.5876-1.7136h1.4028l-1.68 1.68zm2.6223-4.3344v.5376c.3136-.4368.7616-.6552 1.344-.6552s1.05.21 1.4028.63.5292.98.5292 1.68c0 .6776-.1736 1.2236-.5208 1.638-.3416.4088-.7952.6132-1.3608.6132-.5824 0-1.0276-.2156-1.3356-.6468v2.0748h-1.1844v-5.8716zm1.05.84c-.3248 0-.5796.1176-.7644.3528-.1792.2352-.2688.5628-.2688.9828s.0924.7476.2772.9828.4396.3528.7644.3528c.3192 0 .5684-.1176.7476-.3528.1848-.2352.2772-.5572.2772-.966 0-.42-.0924-.7504-.2772-.9912s-.4368-.3612-.756-.3612zm8.1331 2.1504c-.134.4648-.383.826-.747 1.0836-.359.2576-.787.3864-1.285.3864-.667 0-1.204-.2072-1.613-.6216-.403-.4144-.605-.9632-.605-1.6464 0-.672.204-1.2264.613-1.6632s.93-.6552 1.563-.6552c.655 0 1.176.224 1.562.672.386.4424.58 1.0444.58 1.806v.1176h-3.108c.005.3752.095.6608.268.8568.18.196.429.294.748.294.42 0 .714-.21.882-.63zm-1.142-1.2768c-.028-.2856-.12-.518-.277-.6972-.157-.1848-.375-.2772-.655-.2772-.264 0-.482.0868-.656.2604-.173.1736-.277.4116-.31.714zm7.54 3.8976h-1.117v-1.2768h-2.856v1.2768h-1.118v-2.1924h.521c.14-.2688.266-.6608.378-1.176s.168-1.0108.168-1.4868v-.756h3.461v3.4188h.563zm-1.747-2.1924v-2.5368h-1.168v.1092c0 .42-.053.8652-.16 1.3356-.1.4648-.21.8288-.327 1.092zm7.483.9156h-1.142v-2.9316l-1.546 2.9316h-1.352v-4.3344h1.142v2.9316l1.546-2.9316h1.352zm5.693-3.4188h-1.428v3.4188h-1.184v-3.4188h-1.428v-.9156h4.04zm5.821-.9156h1.184v4.3344h-1.184zm-.546 2.9064c0 .4648-.151.8204-.454 1.0668-.297.2408-.691.3612-1.184.3612h-2.067v-4.3344h1.176v1.4868h.941c.459 0 .837.1232 1.134.3696.303.2464.454.5964.454 1.05zm-2.529-.6132v1.218h.605c.482 0 .723-.2016.723-.6048 0-.2016-.068-.3528-.202-.4536-.134-.1064-.311-.1596-.529-.1596zm13.704 2.0412h-1.184v-1.8228h-1.672v1.8228h-1.184v-4.3344h1.184v1.5708h1.672v-1.5708h1.184zm6.054 0h-1.209c-.039-.112-.067-.252-.084-.42-.364.364-.832.546-1.403.546-.482 0-.86-.1148-1.134-.3444-.274-.2352-.412-.5572-.412-.966 0-.1848.023-.3472.068-.4872.05-.14.128-.2576.235-.3528.112-.0952.215-.1736.311-.2352.1-.0616.238-.112.411-.1512.174-.0392.314-.0672.42-.084.107-.0224.255-.0448.445-.0672.42-.056.7-.1148.84-.1764.146-.0616.219-.1764.219-.3444 0-.3864-.261-.5796-.781-.5796-.275 0-.476.0504-.605.1512-.129.0952-.213.266-.252.5124h-1.117c.067-.9744.736-1.4616 2.007-1.4616 1.26 0 1.89.4704 1.89 1.4112v1.8732c0 .5488.051.9408.151 1.176zm-1.302-2.1084c-.14.084-.42.1596-.84.2268-.352.056-.582.126-.688.21-.124.1064-.185.252-.185.4368 0 .1792.056.322.168.4284.117.1008.28.1512.487.1512.319 0 .574-.084.764-.252.196-.1736.294-.4116.294-.714zm11.059 2.1084h-1.445l-1.252-1.8648-.529.5376v1.3272h-1.168v-4.3344h1.168v1.7136l1.588-1.7136h1.402l-1.68 1.68zm5.528 0h-1.209c-.04-.112-.068-.252-.084-.42-.364.364-.832.546-1.403.546-.482 0-.86-.1148-1.134-.3444-.275-.2352-.412-.5572-.412-.966 0-.1848.023-.3472.067-.4872.051-.14.129-.2576.236-.3528.112-.0952.215-.1736.31-.2352.101-.0616.238-.112.412-.1512s.314-.0672.42-.084c.106-.0224.255-.0448.445-.0672.42-.056.7-.1148.84-.1764.146-.0616.219-.1764.219-.3444 0-.3864-.261-.5796-.782-.5796-.274 0-.476.0504-.604.1512-.129.0952-.213.266-.252.5124h-1.118c.068-.9744.737-1.4616 2.008-1.4616 1.26 0 1.89.4704 1.89 1.4112v1.8732c0 .5488.05.9408.151 1.176zm-1.302-2.1084c-.14.084-.42.1596-.84.2268-.353.056-.582.126-.689.21-.123.1064-.184.252-.184.4368 0 .1792.056.322.168.4284.117.1008.28.1512.487.1512.319 0 .574-.084.764-.252.196-.1736.294-.4116.294-.714zm4.319-2.226v.5376c.314-.4368.762-.6552 1.344-.6552.583 0 1.05.21 1.403.63s.529.98.529 1.68c0 .6776-.173 1.2236-.521 1.638-.341.4088-.795.6132-1.36.6132-.583 0-1.028-.2156-1.336-.6468v2.0748h-1.184v-5.8716zm1.05.84c-.325 0-.579.1176-.764.3528-.179.2352-.269.5628-.269.9828s.092.7476.277.9828.44.3528.765.3528c.319 0 .568-.1176.747-.3528.185-.2352.277-.5572.277-.966 0-.42-.092-.7504-.277-.9912s-.437-.3612-.756-.3612zm7.583.0756h-1.428v3.4188h-1.184v-3.4188h-1.428v-.9156h4.04zm5.569-.9156-1.596 4.3176c-.079.2184-.137.3696-.177.4536-.033.0896-.089.2128-.168.3696-.072.1568-.142.266-.21.3276-.061.0616-.148.1316-.26.21-.106.0784-.23.1316-.37.1596-.134.028-.291.042-.47.042-.146 0-.412-.0028-.798-.0084v-.9828h.58c.196 0 .344-.0504.445-.1512.106-.1008.159-.2436.159-.4284 0-.0448-.011-.1008-.033-.168l-1.571-4.1412h1.285l.991 2.9484.958-2.9484z" fill="#003764"/><path d="m50.521 20.5745v-17.70438h3.5729l5.1791 7.39918 5.1798-7.39918h3.5722v17.70438h-3.2315v-13.08218l-5.536 7.83218-5.5367-7.83218v13.09748h-3.199v-.0153z" fill="#003764"/><path d="m70.7344 2.87012h3.8966l4.741 7.18988 4.724-7.18988h3.8967l-6.9976 10.11048v7.5932h-3.2307v-7.5932z" fill="#003764"/><g fill="#0055b8"><path d="m90.4922 15.5337c-.3407-1.0913-.5029-2.3737-.5029-3.8187 0-1.4458.1614-2.72886.5029-3.81949.3407-1.09216.7802-1.97353 1.3156-2.63417.5354-.65835 1.1851-1.18762 1.9475-1.58859.7625-.41777 1.5111-.68967 2.2241-.81798.7301-.14434 1.5096-.20926 2.3539-.20926 1.8347 0 3.6377.35285 5.4227 1.04328v2.98625c-1.705-.76986-3.409-1.17235-5.1469-1.17235-.8111 0-1.494.06415-2.0618.2085-.5679.14511-1.1364.41701-1.6718.81797-.5524.4025-.9572 1.04481-1.2515 1.91014-.2912.86761-.4203 1.9598-.4203 3.2604 0 1.3152.1453 2.4051.4203 3.2574.2773.8661.6991 1.4924 1.2515 1.9109.5516.4017 1.1039.6744 1.6718.8188.5678.1443 1.2685.2077 2.0618.2077 1.7219 0 3.4419-.3842 5.1469-1.1724v2.9703c-1.786.7057-3.603 1.0593-5.4227 1.0593-.8443 0-1.6238-.0649-2.3539-.2101-.73-.1435-1.4616-.4162-2.2241-.8172-.7624-.417-1.4121-.9463-1.9475-1.5886-.5354-.627-.9742-1.5091-1.3156-2.6021z"/><path d="m107.539 20.5745v-17.70438h6.885c2.095 0 3.734.4972 4.887 1.47556 1.169.97912 1.754 2.39282 1.754 4.22199 0 2.69753-1.315 4.44573-3.929 5.23393l4.708 6.7729h-3.897l-4.269-6.2436h-2.89v6.2436zm3.232-9.1664h3.572c1.087 0 1.947-.191 2.564-.5774.617-.3827.926-1.10748.926-2.18131 0-1.09216-.309-1.8307-.926-2.19959-.617-.38493-1.477-.56135-2.564-.56135h-3.572z"/><path d="m125.075 20.5745v-17.70438h11.917v2.85641h-8.685v4.47707h7.532v3.0023h-7.532v4.4786h8.685v2.8549h-11.917z"/><path d="m140.856 20.5745v-17.70438h6.186c2.775 0 4.871.75382 6.317 2.26375 1.428 1.5084 2.157 3.70722 2.157 6.61253 0 2.8885-.713 5.0881-2.142 6.5789-1.428 1.5099-3.539 2.2645-6.316 2.2645h-6.201v-.0153zm3.215-2.8571h2.954c1.868 0 3.199-.4674 4.011-1.3969.811-.9318 1.233-2.4562 1.233-4.5741 0-2.13316-.405-3.67593-1.233-4.6077-.813-.92871-2.16-1.39613-4.011-1.39613h-2.954z"/><path d="m159.461 20.5745v-17.70438h3.233v17.70438z"/><path d="m165.323 6.06335v-3.19323h14.677v3.19323h-5.748v14.51115h-3.231v-14.51115z"/></g><path d="m30.2059 1.5168c-.6119-.834773-1.9677-1.51680025-3.0106-1.51680025h-25.29874c-1.043686 0-1.89655915.84317825-1.89655915 1.87500025v2.97098h32.65249915z" fill="#003764"/><path d="m39.0003 13.4833-3.9916-5.43105h-35.00869915v20.07285c0 1.0318.85287315 1.875 1.89655915 1.875h25.29954c1.0429 0 2.3979-.6836 3.0105-1.5168l8.7945-11.9664c.6119-.8356.6119-2.1996-.0008-3.0336zm-32.37432 12.4063h-1.49176c-.82583 0-1.49252-.663-1.49252-1.4771 0-.8142.66669-1.4763 1.49252-1.4763h1.49176c.82583 0 1.49253.6614 1.49253 1.4763.00077.8134-.66593 1.4771-1.49253 1.4771zm11.63042 0h-6.3301c-.8251 0-1.4918-.663-1.4918-1.4771 0-.8142.666-1.4763 1.4918-1.4763h6.3301c.8251 0 1.4918.6614 1.4918 1.4763 0 .8134-.6667 1.4771-1.4918 1.4771zm.3098-7.3778h-13.43198c-.82583 0-1.49252-.6622-1.49252-1.4764 0-.8141.66669-1.477 1.49252-1.477h13.43118c.8258 0 1.4925.6629 1.4925 1.477 0 .8142-.6667 1.4764-1.4917 1.4764z" fill="#0055b8"/></svg>