<svg viewBox="0 0 150 44" xmlns="http://www.w3.org/2000/svg" width="800" height="235"><g fill="none" fill-rule="evenodd"><g fill-rule="nonzero"><ellipse cx="15.764268" cy="14.423138" fill="#ede8e8" rx="5.949651" ry="5.897079"/><g fill="#dbc7c7"><ellipse cx="15.733781" cy="14.393947" rx="4.887951" ry="4.844761"/><rect height="3.250926" rx=".5" width="1" x="15.142552" y="3.051192"/><rect height="1.109525" rx=".5" width="1" x="15.142552" y=".832143"/><rect height="2.061024" rx=".5" width="1" x="12.057958"/><rect height="3.250926" rx=".5" width="1" x="12.057958" y="3.051192"/><rect height="3.923909" rx=".5" width="1" x="18.227146" y="3.686332"/></g></g><g fill="#e7421b" transform="translate(0 14.956517)"><path d="m25.9424387 11.7462728h4.7895518v-3.73280136c0-1.6803071-1.4820938-3.05458087-3.1874293-3.06263438l-24.35771177-.11389962c-.99154158-.00460201-1.82594412-.78924387-1.83116276-1.74933718-.00289924-.46020051.16873603-.89681574.50504837-1.23046111.34674963-.34457513.80135115-.53440784 1.2907436-.53498309l6.89208376-.00977926c-.12002873-.42050822-.19135014-.85942445-.21396425-1.3121467l-6.68507769.00920401c-.84599951.0011505-1.64213202.32904336-2.24053606.92327727-.58738691.58272889-.90862319 1.25749789-.9039844 2.06917653.00057985.07018058.00347909.11562538.00869773.11562538h-.00869773v20.48409981c0 1.8091633 1.49948919 3.1011762 3.33529074 3.1011762h23.85034396c1.8358016 0 3.5463558-1.2920129 3.5463558-3.1011762v-3.8018314h-4.8927649c-2.144861 0-3.8049683-1.8241198-3.8049683-3.9375906v-.0851371c0-2.1790494 1.7064952-4.0307812 3.9081814-4.0307812"/><path d="m27.8920066 15.7350607c0 .6575115-.5404191 1.1901936-1.2078252 1.1901936-.667406 0-1.2072453-.5326821-1.2072453-1.1901936s.5398393-1.1901936 1.2072453-1.1901936c.6674061 0 1.2078252.5332574 1.2078252 1.1901936m-4.6979356.0419933v.0851371c0 1.5100329 1.1121502 2.7870893 2.6452706 2.7870893h5.4726137v-5.7525063h-5.3694006c-1.5899456 0-2.7484837 1.3046684-2.7484837 2.8802799"/></g><g transform="translate(54.635808 12.772571)"><path d="m34.5046154 4.34076923h1.4746154l3.3646154 8.36999997 3.5515384-8.36999997h.2492308l3.5307692 8.36999997 3.4269231-8.36999997h1.4953846l-4.7976923 11.40230767h-.27l-3.51-8.26615382-3.5307692 8.26615382h-.27zm29.7415384 0v11.02846157h-1.3915384v-1.89c-1.2600063 1.5092383-2.6999919 2.2638461-4.32 2.2638461s-2.9873021-.5780711-4.1019231-1.7342307c-1.1146209-1.1561597-1.6719231-2.5338382-1.6719231-4.13307697 0-1.59923876.5607637-2.96999429 1.6823077-4.11230769 1.1215441-1.14231341 2.4646076-1.71346154 4.0292308-1.71346154 1.800009 0 3.2607636.76845385 4.3823077 2.30538462v-2.01461539zm-1.3084615 5.56615385c0-1.2600063-.4223035-2.32268798-1.2669231-3.18807693-.8446196-.86538894-1.8796092-1.29807692-3.105-1.29807692-1.2253907 0-2.2603804.446534-3.105 1.33961539-.8446196.89308138-1.266923 1.94884006-1.266923 3.16730769 0 1.21846759.4292264 2.27422629 1.2876923 3.16730769.8584658.8930814 1.8865324 1.3396154 3.0842307 1.3396154s2.225765-.4292265 3.0842308-1.2876923c.8584658-.8584659 1.2876923-1.9384551 1.2876923-3.24000002zm4.2992308-9.82384616h1.4123077v15.28615388h-1.4123077zm4.1538461 0h1.4123077v15.28615388h-1.4123077zm13.6453846 11.71384618 1.2046154.6230769c-1.1907752 2.2153957-2.9492191 3.3230769-5.2753846 3.3230769-1.6615468 0-3.0323023-.5711481-4.1123077-1.7134615s-1.62-2.5165304-1.62-4.12269232c0-1.60616188.5434561-2.98384041 1.6303846-4.13307693 1.0869286-1.14923651 2.429992-1.72384615 4.0292308-1.72384615s2.9423023.53307159 4.0292308 1.59923077 1.6511536 2.51999079 1.6926923 4.36153843h-9.9276923c.0415386 1.3292374.4603806 2.3988421 1.2565384 3.2088462.7961579.810004 1.7619174 1.215 2.8973077 1.215 1.8692401 0 3.2676877-.879222 4.1953846-2.6376923zm0-3.01153848c-.1938471-1.05231296-.6784576-1.87615087-1.4538461-2.47153847-.7753885-.59538759-1.6684565-.89307692-2.6792308-.89307692-2.0769334 0-3.4338429 1.12152725-4.0707692 3.36461539zm6.8953847 4.83923078c0 .373848.048461.5953843.1453846.6646154.0969235.0692311.3461518.1038461.7476923.1038461h.8515384v1.2046154c-.5815413.0969236-1.0384598.1453846-1.3707692.1453846-.62308 0-1.0799985-.1523061-1.3707692-.4569231-.2907707-.3046169-.4361539-.7823044-.4361539-1.4330769v-8.30769228h-1.9523077v-1.20461539h1.9523077v-4.25769231h1.433077v4.25769231h2.2430769v1.20461539h-2.2430769z" fill="#2a343e"/><path d="m.19384615 4.34076923h1.4123077v1.91076923c.98308183-1.46769964 2.24306923-2.20153846 3.78-2.20153846.81692716 0 1.54730447.23192076 2.19115384.69576923.64384938.46384847 1.07653736 1.1180727 1.29807693 1.96269231.45692536-.85846583 1.038458-1.51615156 1.74461538-1.97307692.7061574-.45692537 1.5196108-.68538462 2.4403846-.68538462.9207739 0 1.7549963.3565349 2.5026923 1.06961538.7476961.71308049 1.1215385 2.12191256 1.1215385 4.22653847v6.02307695h-1.4538462v-6.02307695c0-1.01077429-.062307-1.75499762-.186923-2.23269231-.1246161-.4776947-.3946134-.87922914-.81-1.20461539-.4153867-.32538624-.9657658-.48807692-1.6511539-.48807692-.685388 0-1.3257662.22845925-1.9211538.68538462-.5953876.45692536-1.00384508 1.038458-1.22538465 1.74461538s-.3323077 1.77230056-.3323077 3.19846157v4.32h-1.39153846v-5.6492308c0-1.17692896-.06230707-2.0180744-.18692307-2.52346154-.12461601-.50538714-.40153632-.92769061-.83076924-1.26692308-.42923291-.33923246-.9553815-.50884615-1.57846153-.50884615-.62308004 0-1.20807419.1834597-1.755.55038462-.54692582.36692491-.97615229.86884297-1.28769231 1.50576923s-.46730769 1.70999245-.46730769 3.21923072v4.673077h-1.4123077zm18.29769235 0h1.4953846l3.8007692 8.49461537 3.6761539-8.49461537h1.5161538l-6.5838462 15.05769227h-1.4953846l2.1184616-4.86z" fill="#e7421b"/></g><path d="m41.186825 13.230765h1.109639v28.762532h-1.109639z" fill="#e7421b"/><path d="m65.9461538 37.3320809h.5636842v4.1426315h2.1294737v-4.1426315h.5636842v4.1426315h2.1294736v-4.1426315h.5636842v4.6168421h-5.9499999zm7.0057894 0h2.1115789c.4712304 0 .8350864.0924553 1.0915789.2773685s.3847369.4563139.3847369.8142105c0 .2743873-.0700871.5040341-.2102632.6889473s-.3355251.3131576-.5860526.3847369v.0178947c.304212.0536845.5428061.1729815.7157894.3578947.1729834.1849132.2594737.4473667.2594737.7873684 0 .417546-.140174.7366656-.4205263.9573684-.2803523.2207029-.6919271.3310527-1.2347368.3310527h-2.1115789zm2.0489473 4.1426315c.3936862 0 .6844728-.0730694.8723684-.2192105.1878957-.1461411.2818421-.3653494.2818421-.6576316 0-.2684223-.0939464-.4742098-.2818421-.6173684-.1878956-.1431586-.4786822-.2147368-.8723684-.2147368h-1.4852631v1.7089473zm0-2.1473683c.3221069 0 .5651746-.0685958.7292105-.2057895s.2460527-.3221041.2460527-.5547368c0-.5070201-.3250845-.7605263-.9752632-.7605263h-1.4852631v1.5210526zm2.5768421-1.9952632h.5636842v3.9547368l2.5499999-3.9547368h.6978948v4.6168421h-.5636842v-3.9547368l-2.55 3.9547368h-.6978947zm4.3931578 4.1426315h.5457895c.2207028-.411581.3817538-.9006989.4831578-1.4673684.1014041-.5666694.1521053-1.2556099.1521053-2.066842v-.6084211h3.1047368v4.1426315h.6889473v1.9415789h-.5636842v-1.4673683h-3.8473683v1.4673683h-.5636842zm3.7221052 0v-3.6684209h-1.9952631v.3221052c0 .7754425-.0566661 1.4420147-.17 1.9997368s-.2564904 1.0065772-.4294737 1.3465789zm1.8610526-4.1426315h.5636842v2.3710526l2.5589473-2.3710526h.7515789l-1.9594736 1.8073684 2.0757894 2.8094737h-.7068421l-1.7805263-2.4247368-.9394736.8678947v1.5568421h-.5636842zm4.4647367 0h.5636842v4.6168421h-.5636842zm0-1.7715789h.5636842v.9036842h-.5636842zm4.178421 1.7715789h3.0510526v.4742106h-2.4873684v4.1426315h-.5636842zm3.5342105 0h.5189476v.8768421h.017894c.131229-.3221068.344473-.5711394.639737-.7471052.295265-.1759658.630788-.2639474 1.006579-.2639474.351932 0 .65763.0656134.917105.1968421s.475701.3086831.648685.5323684c.172983.2236854.301227.4831564.384737.7784211.083509.2952646.125263.6069281.125263.9349999 0 .3340368-.041754.6471916-.125263.9394737-.08351.2922822-.211754.550262-.384737.7739474-.172984.2236853-.38921.3996484-.648685.5278947-.259475.1282462-.565173.1923684-.917105.1923684-.172983 0-.34149-.020877-.505526-.0626316s-.317631-.1043855-.46079-.1878947c-.143158-.0835092-.269911-.1878941-.380263-.3131579-.110351-.1252638-.19535-.2714027-.255-.438421h-.017894v2.576842h-.5636846zm2.1831576 4.2768421c.268423 0 .498069-.0581573.688948-.1744737.190878-.1163164.347455-.2669289.469736-.4518421.122282-.1849132.211755-.3951743.268421-.6307895.056667-.2356152.085-.4727181.085-.7113158 0-.2385976-.028333-.4757005-.085-.7113157-.056666-.2356152-.146139-.4458763-.268421-.6307895-.122281-.1849132-.278858-.3355257-.469736-.4518421-.190879-.1163164-.420525-.1744737-.688948-.1744737-.316142 0-.577104.0536837-.782894.1610527-.205791.1073689-.371316.2505254-.496579.4294736-.125264.1789483-.213246.3877181-.263948.6263158s-.076052.4891215-.076052.7515789c0 .2385977.028333.4757006.085.7113158s.149122.4458763.277368.6307895.295262.3355257.501053.4518421c.20579.1163164.457805.1744737.756052.1744737zm4.903158.4652631c-.351932 0-.663595-.0641222-.935-.1923684-.271405-.1282463-.49956-.3027182-.684474-.523421-.184913-.2207029-.325087-.4786828-.420526-.7739474s-.143158-.6099106-.143158-.9439474c0-.3280718.047719-.6412265.143158-.9394736s.235613-.5577182.420526-.7784211c.184914-.2207028.413069-.396666.684474-.5278947s.583068-.1968421.935-.1968421.663595.0656134.935.1968421.49956.3071919.684474.5278947c.184913.2207029.325087.480174.420526.7784211s.143158.6114018.143158.9394736c0 .3340368-.047719.6486828-.143158.9439474s-.235613.5532445-.420526.7739474c-.184914.2207028-.413069.3951747-.684474.523421-.271405.1282462-.583068.1923684-.935.1923684zm0-.4652631c.268422 0 .504034-.0566661.706842-.17s.371315-.2624552.505526-.4473684c.134212-.1849132.235614-.3951743.304211-.6307895s.102895-.4757005.102895-.7202632c0-.2445626-.034298-.4846479-.102895-.7202631s-.169999-.4458763-.304211-.6307895c-.134211-.1849132-.302718-.3340345-.505526-.4473684s-.43842-.17-.706842-.17-.504034.0566661-.706842.17-.371315.2624552-.505526.4473684c-.134212.1849132-.235614.3951743-.304211.6307895s-.102895.4757005-.102895.7202631c0 .2445627.034298.484648.102895.7202632s.169999.4458763.304211.6307895c.134211.1849132.302718.3340345.505526.4473684s.43842.17.706842.17zm3.015263-4.2768421h.563684v4.1426315h2.129474v-4.1426315h.563684v4.1426315h2.129474v-4.1426315h.563684v4.6168421h-5.95zm7.023684 0h.563684v4.6168421h-.563684zm0-1.7715789h.563684v.9036842h-.563684zm6.084211 6.5136841c-.351932 0-.663595-.0641222-.935-.1923684-.271405-.1282463-.499561-.3027182-.684474-.523421-.184913-.2207029-.325087-.4786828-.420526-.7739474s-.143158-.6099106-.143158-.9439474c0-.3280718.047719-.6412265.143158-.9394736s.235613-.5577182.420526-.7784211c.184913-.2207028.413069-.396666.684474-.5278947s.583068-.1968421.935-.1968421c.351931 0 .663595.0656134.935.1968421.271404.1312287.49956.3071919.684473.5278947.184913.2207029.325088.480174.420527.7784211s.143157.6114018.143157.9394736c0 .3340368-.047718.6486828-.143157.9439474s-.235614.5532445-.420527.7739474c-.184913.2207028-.413069.3951747-.684473.523421-.271405.1282462-.583069.1923684-.935.1923684zm0-.4652631c.268422 0 .504034-.0566661.706842-.17s.371315-.2624552.505526-.4473684.235614-.3951743.304211-.6307895c.068596-.2356152.102894-.4757005.102894-.7202632 0-.2445626-.034298-.4846479-.102894-.7202631-.068597-.2356152-.17-.4458763-.304211-.6307895s-.302718-.3340345-.505526-.4473684-.43842-.17-.706842-.17c-.268423 0-.504034.0566661-.706842.17s-.371316.2624552-.505527.4473684-.235613.3951743-.30421.6307895-.102895.4757005-.102895.7202631c0 .2445627.034298.484648.102895.7202632s.169999.4458763.30421.6307895.302719.3340345.505527.4473684.438419.17.706842.17zm3.015263-4.2768421h.563684v1.9594737h2.621579v-1.9594737h.563684v4.6168421h-.563684v-2.1831579h-2.621579v2.1831579h-.563684zm4.76 4.6615789c-.029825 0-.065614-.0029824-.107369-.0089474-.041754-.0059649-.085-.0119298-.129737-.0178947s-.086491-.013421-.125263-.0223684-.067105-.0164035-.085-.0223684v-.4921053c.04772.0178948.119298.032807.214737.0447368.095439.0119299.175965.0178948.241579.0178948.059649 0 .125263-.0089473.196842-.0268421.071579-.0178949.143158-.0671049.214737-.1476316s.140175-.2072798.205789-.3802632c.065615-.1729833.122281-.4130686.17-.7202631.04772-.3071945.086491-.6949099.116316-1.1631579.029825-.4682479.044737-1.042365.044737-1.7223684h3.086842v4.6168421h-.563684v-4.1426315h-1.977368c0 .6680735-.019386 1.2347344-.058158 1.6999999-.038773.4652655-.093947.8529809-.165527 1.1631579-.071579.310177-.155087.5547359-.250526.7336842s-.198333.3116662-.308684.3981579c-.110352.0864916-.226666.1401753-.348948.1610526-.122281.0208773-.246052.0313158-.371315.0313158zm6.406315.0805263c-.214738 0-.416051-.0253506-.603947-.0760526s-.351929-.1312275-.492105-.241579c-.140176-.1103514-.250526-.2505254-.331053-.4205263-.080527-.1700008-.120789-.3713146-.120789-.6039473 0-.3221069.071578-.5741219.214736-.7560526.143159-.1819308.332543-.3206136.568158-.4160527.235616-.095439.501051-.1625436.796316-.2013158.295265-.0387721.594999-.0760524.899211-.1118421.113334-.0119298.216227-.026842.308684-.0447368.092456-.0178948.168508-.0492103.228158-.0939474.059649-.044737.105877-.1058768.138684-.183421.032807-.0775443.04921-.1789468.04921-.3042105 0-.1908782-.031315-.3474556-.093947-.4697369s-.149122-.2192101-.259474-.2907894c-.110351-.0715793-.238595-.1207894-.384736-.1476316-.146142-.0268423-.302719-.0402632-.469737-.0402632-.357897 0-.650175.0849992-.876842.255-.226668.1700009-.345965.4428929-.357895.8186842h-.563684c.035789-.5428097.222191-.93649.55921-1.1810526s.773945-.3668421 1.31079-.3668421c.202808 0 .405613.0193858.608421.0581579s.384736.1118416.545789.2192105c.161054.107369.29228.2579815.393684.4518421s.152106.4458757.152106.7560526v2.4515789c0 .2266678.110349.34.331052.34.07158 0 .131228-.0119297.178948-.0357894v.4742105c-.065615.0119299-.123772.0208771-.174474.0268421-.050702.0059649-.114824.0089474-.192368.0089474-.143159 0-.257982-.0193858-.344474-.0581579-.086492-.0387722-.153596-.093947-.201316-.1655264-.047719-.0715793-.079035-.1565784-.093947-.2549999-.014913-.0984216-.022369-.2072801-.022369-.326579h-.017894c-.101404.1491236-.204298.2818415-.308685.3981579-.104386.1163164-.220701.2132452-.348947.2907895-.128246.0775442-.275876.1371927-.442895.1789473-.167018.0417546-.360876.0626316-.581579.0626316zm.044737-.4652631c.214738 0 .420525-.0328067.617369-.0984211.196843-.0656144.368332-.161052.514473-.2863158s.262456-.2773675.348948-.4563158c.086491-.1789482.129736-.3817532.129736-.608421v-.7336842h-.017894c-.03579.0656144-.104386.1133332-.20579.1431579s-.190877.0507017-.268421.0626316c-.238598.0417546-.484648.0790349-.738158.1118421s-.484648.0820172-.693421.1476316c-.208773.0656143-.380262.161052-.514473.2863157-.134212.1252638-.201316.2982445-.201316.5189474 0 .1431586.028333.2699117.085.3802632.056667.1103514.132719.205789.228158.2863157.095439.0805268.204297.1416665.326579.1834211.122281.0417546.252016.0626316.38921.0626316zm3.292632.34h.697894l2.55-3.9547368v3.9547368h.563685v-4.6168421h-.697895l-2.55 3.9547368v-3.9547368h-.563684zm1.887894-5.2968421c.375792 0 .671052-.0999112.88579-.2997368.214738-.1998255.354912-.4876297.420526-.863421h-.348947c-.04772.2326327-.153596.4130695-.317632.5413158-.164036.1282462-.374297.1923684-.630789.1923684-.268423 0-.481666-.0656134-.639737-.1968421-.158071-.1312288-.252017-.3101743-.281842-.5368421h-.348948c.04772.3757913.175964.6635955.384737.863421.208773.1998256.501051.2997368.876842.2997368zm2.979474.68h.563684v1.9594737h2.621579v-1.9594737h.563684v4.6168421h-.563684v-2.1831579h-2.621579v2.1831579h-.563684z" fill="#2a343e"/></g></svg>