<?xml version="1.0" encoding="utf-8"?>
<svg version="1.1" id="logo-svg" class="header__logo-img" xmlns="http://www.w3.org/2000/svg" xmlns:xlink="http://www.w3.org/1999/xlink" x="0px" y="0px" width="135px" height="48.6px" viewBox="0 0 135 48.6" xml:space="preserve">
    <path fill="#0054a6" d="M14.8,8.5h-7v-8H0.2V23h7.6v-8.3h7V23h7.6V0.5h-7.6V8.5z M34.3,0.5L24.5,23h7.7l1.5-3.9h8.6l1.5,3.9h7.8 L41.8,0.5H34.3z M35.8,13.6L38,8l2.2,5.7H35.8z M80.6,11.2c0.9-0.5,1.6-1.2,2.1-2c0.5-0.8,0.8-1.8,0.8-2.8c0-1.9-0.8-3.3-2.3-4.3 c-1.5-1-3.7-1.5-6.5-1.5H63.3V23h12c2.9,0,5.2-0.6,6.8-1.8c1.6-1.2,2.4-2.8,2.4-4.8c0-1.3-0.3-2.4-1-3.3 C82.8,12.3,81.9,11.7,80.6,11.2z M70.8,5.8H74c1.2,0,1.9,0.6,1.9,1.7c0,1.1-0.6,1.6-1.9,1.6h-3.2V5.8z M75,17.7h-4.2v-3.5H75 c1.2,0,1.9,0.6,1.9,1.7C76.9,17.1,76.2,17.7,75,17.7z M98.9,6.1c1.9,0,3.5,0.9,4.9,2.6l4.8-4.3c-1.1-1.5-2.5-2.6-4.2-3.3 c-1.7-0.8-3.7-1.2-5.9-1.2c-2.4,0-4.5,0.5-6.4,1.5c-1.9,1-3.4,2.4-4.5,4.2C86.5,7.5,86,9.5,86,11.8c0,2.3,0.5,4.3,1.6,6.1 c1.1,1.8,2.6,3.2,4.5,4.2c1.9,1,4.1,1.5,6.4,1.5c2.2,0,4.1-0.4,5.9-1.2c1.7-0.8,3.1-1.9,4.2-3.3l-4.8-4.3c-1.4,1.8-3,2.6-4.9,2.6 c-1.6,0-2.9-0.5-3.8-1.5c-1-1-1.4-2.4-1.4-4.1c0-1.7,0.5-3.1,1.4-4.1C96,6.6,97.3,6.1,98.9,6.1z M118.4,17.3v-3h9.5V8.9h-9.5V6.2 h10.8V0.5h-18.3V23h18.7v-5.7H118.4z" />
    <path fill="a6a8ab" d="M47.1,27l-6.3,6.3h1.1l6.3-6.3H47.1z M43.6,27l-6.3,6.3h1.1l6.3-6.3H43.6z M36.8,27l-6.3,6.3h1.1l6.3-6.3H36.8 z M40.2,27l-6.3,6.3H35l6.3-6.3H40.2z M57.3,27L51,33.4h1.1l6.3-6.3H57.3z M60.7,27l-6.3,6.3h1.1l6.3-6.3H60.7z M50.5,27l-6.3,6.3 h1.1l6.3-6.3H50.5z M33.4,27l-6.3,6.3h1.1l6.3-6.3H33.4z M53.9,27l-6.3,6.3h1.1L55,27H53.9z M9.4,27l-6.3,6.3h1.1l6.3-6.3H9.4z M64.2,27l-6.3,6.3h1.1l6.3-6.3H64.2z M12.9,27l-6.3,6.3h1.1l6.3-6.3H12.9z M2.6,27L0,29.6v1.1L3.7,27H2.6z M6,27l-6,6v0.3h0.8 L7.1,27H6z M16.3,27L10,33.4H11l6.3-6.3H16.3z M23.1,27l-6.3,6.3h1.1l6.3-6.3H23.1z M30,27l-6.3,6.3h1.1L31,27H30z M26.5,27 l-6.3,6.3h1.1l6.3-6.3H26.5z M19.7,27l-6.3,6.3h1.1l6.3-6.3H19.7z M77.8,27l-6.3,6.3h1.1l6.3-6.3H77.8z M115.5,27l-6.3,6.3h1.1 l6.3-6.3H115.5z M118.9,27l-6.3,6.3h1.1l6.3-6.3H118.9z M67.6,27l-6.3,6.3h1.1l6.3-6.3H67.6z M108.6,27l-6.3,6.3h1.1l6.3-6.3H108.6 z M129.1,27l-6.3,6.3h1.1l5.7-5.7V27H129.1z M122.3,27l-6.3,6.3h1.1l6.3-6.3H122.3z M105.2,27l-6.3,6.3h1.1l6.3-6.3H105.2z M127.3,33.4l2.3-2.3V30l-3.3,3.3H127.3z M125.7,27l-6.3,6.3h1.1l6.3-6.3H125.7z M112,27l-6.3,6.3h1.1l6.3-6.3H112z M84.7,27 l-6.3,6.3h1.1l6.3-6.3H84.7z M74.4,27l-6.3,6.3h1.1l6.3-6.3H74.4z M101.8,27l-6.3,6.3h1.1l6.3-6.3H101.8z M71,27l-6.3,6.3h1.1 l6.3-6.3H71z M81.3,27L75,33.4H76l6.3-6.3H81.3z M98.4,27L92,33.4h1.1l6.3-6.3H98.4z M94.9,27l-6.3,6.3h1.1L96,27H94.9z M88.1,27 l-6.3,6.3h1.1l6.3-6.3H88.1z M91.5,27l-6.3,6.3h1.1l6.3-6.3H91.5z" />
    <path fill="#a6a8ab" d="M135,38.7l-5.4-5.4l-5.3,5.3v9.9H135C135,48.6,135,38.5,135,38.7z">
        <animateTransform id="play-svg-logo" attributeName="transform" attributeType="xml" type="translate" keyTimes="0; 0.25; 1" values="0; -125; 0" dur="1s" repeatCount="1" fill="freeze" begin="indefinite" />
    </path>
    <script>
    var $logoSVG = $('#logo-svg');

    $logoSVG.click(function(event) {
      if (event.altKey) {
        event.preventDefault();
        event.stopPropagation();
        $('#play-svg-logo')[0].beginElement();
      };
    });
    </script>
</svg>