<?xml version="1.0" encoding="utf-8"?>
<!-- Generator: Adobe Illustrator 17.0.1, SVG Export Plug-In . SVG Version: 6.00 Build 0)  -->
<!DOCTYPE svg PUBLIC "-//W3C//DTD SVG 1.0//EN" "http://www.w3.org/TR/2001/REC-SVG-20010904/DTD/svg10.dtd">
<svg version="1.0" id="logo" xmlns="http://www.w3.org/2000/svg" xmlns:xlink="http://www.w3.org/1999/xlink" x="0px" y="0px"
	 width="511.441px" height="82.56px" viewBox="0 0 511.441 82.56" enable-background="new 0 0 511.441 82.56" xml:space="preserve">
<g>
	<linearGradient id="SVGID_1_" gradientUnits="userSpaceOnUse" x1="-23.1973" y1="41.2248" x2="551.9177" y2="41.2248">
		<stop  offset="0.2463" style="stop-color:#2F78A3"/>
		<stop  offset="0.867" style="stop-color:#00A6D4"/>
	</linearGradient>
	<path fill="url(#SVGID_1_)" d="M198.96,0.24c1.01,0.207,2.026,0.385,3.027,0.627c7.365,1.784,11.786,7.505,11.354,15.18
		c-0.203,3.606-0.948,7.191-1.591,10.76c-2.093,11.622-4.33,23.219-6.363,34.851c-1.8,10.302-8.351,17.739-18.182,19.965
		c-6.36,1.44-12.172,0.363-16.745-4.728c-2.837-3.158-4.01-6.983-3.435-11.099c0.894-6.396,2.111-12.749,3.259-19.108
		c1.63-9.03,3.315-18.05,4.988-27.072c1.828-9.854,9.438-17.344,19.301-19.018c0.663-0.113,1.324-0.239,1.986-0.358
		C197.36,0.24,198.16,0.24,198.96,0.24z M195.493,11.52c-1.256,0.357-2.564,0.593-3.76,1.093c-3.618,1.513-4.926,4.619-5.569,8.219
		c-1.669,9.347-3.404,18.682-5.109,28.022c-0.903,4.945-1.851,9.882-2.677,14.84c-0.613,3.679,1.371,6.334,5.038,6.987
		c4.57,0.814,9.054-2.084,10.291-6.752c0.479-1.808,0.751-3.672,1.091-5.515c2.361-12.79,4.743-25.576,7.058-38.374
		C202.794,14.853,200.331,11.685,195.493,11.52z"/>
	<linearGradient id="SVGID_2_" gradientUnits="userSpaceOnUse" x1="-23.1973" y1="41.2509" x2="551.9177" y2="41.2509">
		<stop  offset="0.2463" style="stop-color:#2F78A3"/>
		<stop  offset="0.867" style="stop-color:#00A6D4"/>
	</linearGradient>
	<path fill="url(#SVGID_2_)" d="M294.96,0.24c1.171,0.215,2.36,0.362,3.511,0.658c5.741,1.474,8.862,5.393,10.06,11.008
		c0.822,3.853-0.037,7.624-0.77,11.384c-0.048,0.249-0.466,0.606-0.716,0.609c-3.429,0.04-6.859,0.027-10.454,0.027
		c0.244-1.487,0.572-2.843,0.661-4.214c0.081-1.255,0.093-2.573-0.199-3.782c-0.548-2.271-1.97-3.87-4.417-4.132
		c-2.789-0.298-5.367,0.21-7.156,2.655c-1.62,2.215-2.309,4.8-2.796,7.448c-2.467,13.416-4.935,26.833-7.378,40.254
		c-0.199,1.094-0.332,2.227-0.282,3.333c0.182,3.977,2.775,5.977,6.713,5.269c4.395-0.79,6.878-3.483,7.757-8.413
		c0.168-0.942,0.269-1.904,0.538-2.816c0.101-0.341,0.591-0.8,0.912-0.806c3.118-0.061,6.237-0.033,9.356-0.04
		c0.586-0.001,0.892,0.183,0.825,0.845c-1.075,10.607-7.062,18.507-16.563,21.762c-4.439,1.521-8.95,1.203-13.25-0.527
		c-4.798-1.931-7.151-5.835-7.716-10.84c-0.446-3.954,0.594-7.781,1.294-11.624c2.193-12.051,4.445-24.091,6.606-36.147
		c0.809-4.516,1.799-8.927,4.644-12.684c3.94-5.203,9.078-8.305,15.623-8.968c0.35-0.035,0.69-0.168,1.034-0.255
		C293.52,0.24,294.24,0.24,294.96,0.24z"/>
	<linearGradient id="SVGID_3_" gradientUnits="userSpaceOnUse" x1="-23.1973" y1="41.6338" x2="551.9177" y2="41.6338">
		<stop  offset="0.2463" style="stop-color:#2F78A3"/>
		<stop  offset="0.867" style="stop-color:#00A6D4"/>
	</linearGradient>
	<path fill="url(#SVGID_3_)" d="M62.454,82.504c-9.598,0-19.202,0.193-28.794-0.049c-12.289-0.31-22.077-5.446-28.428-16.207
		c-4.412-7.475-5.293-15.644-3.853-24.112C4.698,22.613,21.426,6.053,40.324,1.911c3.175-0.696,6.484-1.07,9.733-1.086
		c18.796-0.092,37.597-0.27,56.389,0.042c18.324,0.304,31.328,13.555,32.504,30.528c0.783,11.295-2.779,21.288-9.465,30.203
		c-7.545,10.062-17.392,16.861-29.71,19.76c-3.005,0.707-6.155,1.049-9.245,1.094C81.172,82.592,71.813,82.504,62.454,82.504z
		 M65.404,47.687c0.129,1.181,0.2,3.063,0.559,4.888c1.225,6.216,4.209,11.401,9.36,15.21c6.082,4.497,12.993,5.841,20.342,4.877
		c10.989-1.442,19.707-6.92,26.299-15.718c5.609-7.487,8.288-15.887,6.992-25.32c-0.966-7.033-4.281-12.744-10.108-16.796
		C111.549,9.753,103.431,9.011,95,11.101c-9.489,2.352-16.962,7.775-22.658,15.64C67.979,32.765,65.631,39.528,65.404,47.687z"/>
	<linearGradient id="SVGID_4_" gradientUnits="userSpaceOnUse" x1="-23.1973" y1="41.334" x2="551.9177" y2="41.334">
		<stop  offset="0.2463" style="stop-color:#2F78A3"/>
		<stop  offset="0.867" style="stop-color:#00A6D4"/>
	</linearGradient>
	<path fill="url(#SVGID_4_)" d="M245.496,49.394c0.42-2.215,0.851-4.428,1.258-6.645c2.493-13.587,4.976-27.176,7.495-40.758
		c0.066-0.355,0.508-0.909,0.783-0.915c3.431-0.063,6.863-0.041,10.484-0.041c-0.343,1.916-0.658,3.708-0.986,5.497
		c-2.28,12.447-4.559,24.893-6.844,37.339c-2.112,11.503-4.225,23.007-6.355,34.507c-0.193,1.039-0.207,2.422-0.867,2.975
		c-0.62,0.52-1.984,0.166-3.02,0.171c-2.04,0.009-4.08-0.032-6.119,0.016c-0.784,0.018-1.125-0.215-1.263-1.019
		c-2.632-15.306-5.29-30.608-7.946-45.91c-0.081-0.466-0.205-0.924-0.561-1.442c-0.094,0.288-0.221,0.569-0.276,0.863
		c-2.079,11.267-4.151,22.536-6.226,33.804c-0.788,4.279-1.57,8.56-2.398,12.831c-0.062,0.319-0.474,0.81-0.729,0.814
		c-3.429,0.054-6.86,0.036-10.523,0.036c4.939-26.904,9.85-53.65,14.775-80.478c3.431,0,6.743-0.022,10.054,0.04
		c0.28,0.005,0.737,0.543,0.797,0.888c1.321,7.632,2.593,15.272,3.884,22.908c1.338,7.913,2.686,15.824,4.033,23.736
		c0.044,0.259,0.134,0.51,0.203,0.765C245.266,49.382,245.381,49.388,245.496,49.394z"/>
	<linearGradient id="SVGID_5_" gradientUnits="userSpaceOnUse" x1="-23.1973" y1="41.272" x2="551.9177" y2="41.272">
		<stop  offset="0.2463" style="stop-color:#2F78A3"/>
		<stop  offset="0.867" style="stop-color:#00A6D4"/>
	</linearGradient>
	<path fill="url(#SVGID_5_)" d="M306.448,81.514c0.333-1.88,0.621-3.559,0.929-5.234c1.801-9.801,3.609-19.601,5.409-29.403
		c1.879-10.232,3.748-20.466,5.625-30.698c0.841-4.588,1.714-9.17,2.517-13.764c0.169-0.966,0.428-1.416,1.558-1.403
		c5.917,0.068,11.837-0.037,17.753,0.064c3.628,0.062,7.147,0.736,10.176,2.974c2.956,2.183,4.472,5.262,4.883,8.761
		c0.978,8.315-0.542,16.217-4.642,23.548c-1.902,3.4-4.762,5.888-8.167,7.726c-0.887,0.479-1.104,0.979-0.943,1.986
		c0.894,5.586,1.693,11.187,2.525,16.784c0.855,5.753,1.694,11.51,2.581,17.258c0.156,1.011,0.004,1.444-1.158,1.418
		c-3.117-0.07-6.238-0.052-9.356-0.003c-0.837,0.013-1.145-0.329-1.233-1.076c-0.649-5.462-1.299-10.925-1.96-16.386
		c-0.642-5.303-1.3-10.604-1.943-15.907c-0.095-0.786-0.406-1.204-1.299-1.17c-1.597,0.062-3.199,0.041-4.797,0.015
		c-0.783-0.013-1.103,0.293-1.247,1.087c-1.961,10.782-3.972,21.556-5.922,32.34c-0.158,0.874-0.484,1.107-1.315,1.097
		C313.19,81.492,309.958,81.514,306.448,81.514z M325.733,37.004c2.991,0,5.756,0.172,8.49-0.043
		c3.521-0.277,6.193-2.063,7.559-5.418c1.809-4.441,2.718-9.096,2.65-13.885c-0.047-3.296-1.888-5.323-5.188-5.678
		c-2.689-0.289-5.418-0.198-8.128-0.284c-0.783-0.025-0.857,0.508-0.964,1.094c-1.092,5.954-2.205,11.905-3.301,17.859
		C326.471,32.718,326.122,34.792,325.733,37.004z"/>
	<linearGradient id="SVGID_6_" gradientUnits="userSpaceOnUse" x1="-23.1973" y1="41.272" x2="551.9177" y2="41.272">
		<stop  offset="0.2463" style="stop-color:#2F78A3"/>
		<stop  offset="0.867" style="stop-color:#00A6D4"/>
	</linearGradient>
	<path fill="url(#SVGID_6_)" d="M419.455,1.289c3.472,0,6.963-0.234,10.411,0.049c6.929,0.568,11.929,4.411,12.891,11.966
		c0.484,3.805-0.214,7.465-0.883,11.146c-1.551,8.541-3.077,17.087-4.723,25.61c-1.011,5.235-1.849,10.548-3.427,15.619
		c-2.85,9.159-9.414,14.244-18.895,15.541c-1.419,0.194-2.864,0.251-4.298,0.26c-4.757,0.032-9.515-0.003-14.273,0.029
		c-0.891,0.006-1.249-0.232-1.074-1.172c2.138-11.466,4.274-22.933,6.381-34.405c2.674-14.564,5.324-29.134,7.97-43.703
		c0.151-0.829,0.456-1.218,1.404-1.195c2.837,0.069,5.677,0.025,8.515,0.025C419.455,1.136,419.455,1.212,419.455,1.289z
		 M411.632,70.896c0.004,0.041,0.008,0.083,0.012,0.124c1.625-0.151,3.274-0.176,4.87-0.477c3.818-0.721,5.982-3.351,6.864-6.889
		c1.096-4.397,1.869-8.878,2.706-13.337c1.614-8.608,3.204-17.22,4.736-25.843c0.396-2.227,0.716-4.496,0.758-6.751
		c0.065-3.464-1.628-5.39-5.076-5.802c-2.248-0.269-4.539-0.216-6.81-0.202c-0.328,0.002-0.875,0.549-0.945,0.915
		c-1.327,6.959-2.596,13.929-3.879,20.896c-1.579,8.573-3.161,17.146-4.74,25.719c-0.642,3.485-1.269,6.973-1.931,10.454
		c-0.171,0.9,0.112,1.262,1.037,1.204C410.03,70.856,410.832,70.896,411.632,70.896z"/>
	<linearGradient id="SVGID_7_" gradientUnits="userSpaceOnUse" x1="-23.1973" y1="41.2744" x2="551.9177" y2="41.2744">
		<stop  offset="0.2463" style="stop-color:#2F78A3"/>
		<stop  offset="0.867" style="stop-color:#00A6D4"/>
	</linearGradient>
	<path fill="url(#SVGID_7_)" d="M373.643,35.626c6.481,0,12.824,0,19.336,0c-0.433,2.444-0.837,4.743-1.248,7.04
		c-0.091,0.509-0.211,1.013-0.314,1.52c-0.415,2.041-0.415,2.04-2.431,2.041c-5.36,0.001-10.719,0.028-16.078-0.017
		c-1.016-0.009-1.484,0.264-1.669,1.312c-1.185,6.708-2.427,13.405-3.648,20.106c-0.141,0.776-0.263,1.556-0.418,2.473
		c0.588,0.028,1.054,0.068,1.52,0.069c6.479,0.006,12.959,0.005,19.438,0.009c1.386,0.001,1.411,0.065,1.154,1.445
		c-0.532,2.858-1.036,5.722-1.55,8.583c-0.132,0.733-0.258,1.318-1.297,1.314c-10.519-0.037-21.038-0.02-31.557-0.021
		c-0.195,0-0.39-0.035-0.798-0.074c0.099-0.801,0.155-1.568,0.293-2.32c2.303-12.579,4.613-25.157,6.929-37.733
		c1.718-9.325,3.45-18.648,5.17-27.972c0.679-3.683,1.367-7.365,1.993-11.058c0.161-0.949,0.489-1.321,1.527-1.316
		c10.279,0.043,20.558,0.028,30.837,0.031c1.414,0,1.402,0.003,1.139,1.411c-0.498,2.662-1.039,5.318-1.44,7.994
		c-0.149,0.993-0.546,1.229-1.472,1.225c-6.559-0.029-13.119,0.009-19.678-0.032c-1.101-0.007-1.587,0.236-1.799,1.442
		c-1.253,7.141-2.617,14.262-3.933,21.392C373.595,34.794,373.643,35.117,373.643,35.626z"/>
	<linearGradient id="SVGID_8_" gradientUnits="userSpaceOnUse" x1="-23.1973" y1="41.2685" x2="551.9177" y2="41.2685">
		<stop  offset="0.2463" style="stop-color:#2F78A3"/>
		<stop  offset="0.867" style="stop-color:#00A6D4"/>
	</linearGradient>
	<path fill="url(#SVGID_8_)" d="M485.243,11.721c-4.313,0-8.498,0-12.942,0c0.21-1.217,0.387-2.287,0.579-3.354
		c0.366-2.038,0.793-4.067,1.086-6.116c0.138-0.966,0.536-1.209,1.473-1.206c10.039,0.033,20.078,0.02,30.117,0.02
		c1.6,0,3.201,0.037,4.799-0.014c0.936-0.03,1.088,0.401,0.936,1.183c-0.539,2.776-1.111,5.546-1.563,8.336
		c-0.143,0.882-0.481,1.114-1.31,1.106c-3.559-0.033-7.119,0.011-10.679-0.03c-0.96-0.011-1.382,0.234-1.57,1.277
		c-2.52,13.958-5.091,27.908-7.663,41.857c-1.576,8.547-3.188,17.087-4.744,25.637c-0.147,0.81-0.473,1.077-1.249,1.071
		c-2.919-0.022-5.84-0.029-8.759,0.004c-0.948,0.011-1.142-0.326-0.975-1.236c2.551-13.837,5.063-27.681,7.601-41.52
		c1.553-8.464,3.137-16.922,4.699-25.384C485.166,12.886,485.176,12.406,485.243,11.721z"/>
	<linearGradient id="SVGID_9_" gradientUnits="userSpaceOnUse" x1="-23.1973" y1="41.2904" x2="551.9177" y2="41.2904">
		<stop  offset="0.2463" style="stop-color:#2F78A3"/>
		<stop  offset="0.867" style="stop-color:#00A6D4"/>
	</linearGradient>
	<path fill="url(#SVGID_9_)" d="M448.076,81.485c-1.48,0-2.959-0.011-4.439,0.005c-0.706,0.008-0.978-0.147-0.822-0.982
		c1.78-9.516,3.516-19.04,5.258-28.562c1.642-8.973,3.27-17.948,4.917-26.92c1.401-7.637,2.832-15.269,4.213-22.909
		c0.14-0.775,0.392-1.082,1.214-1.069c2.958,0.044,5.918,0.04,8.877,0.004c0.942-0.011,1.113,0.25,0.936,1.201
		c-2.68,14.369-5.318,28.745-7.954,43.122c-2.113,11.521-4.219,23.044-6.302,34.571c-0.197,1.088-0.533,1.703-1.823,1.571
		C450.806,81.379,449.436,81.485,448.076,81.485z"/>
</g>
<path fill="#FFFFFF" d="M65.404,47.687c0.228-8.159,2.575-14.922,6.938-20.946C78.038,18.876,85.511,13.452,95,11.101
	c8.431-2.09,16.549-1.348,23.848,3.727c5.828,4.051,9.142,9.763,10.108,16.796c1.296,9.433-1.383,17.834-6.992,25.32
	c-6.592,8.797-15.309,14.275-26.299,15.718c-7.349,0.965-14.26-0.38-20.342-4.877c-5.151-3.808-8.135-8.993-9.36-15.21
	C65.604,50.75,65.533,48.868,65.404,47.687z"/>
</svg>
