<svg width="210" height="35" viewBox="0 0 210 35" fill="none" xmlns="http://www.w3.org/2000/svg">
<path d="M116 0H204C207.314 0 210 2.68629 210 6V29C210 32.3137 207.314 35 204 35H116V0Z" fill="white"/>
<path d="M0 6C0 2.68629 2.68629 0 6 0H116V35H6C2.68629 35 0 32.3137 0 29V6Z" fill="#FFAE14"/>
<path d="M122 26.8779V8.26403H135.628V12.6997H126.949V26.8779H122Z" fill="#FFAE14"/>
<path d="M134.322 13.4653H139.27V13.835L138.312 16.5545H139.529C139.823 15.8856 140.117 15.3399 140.41 14.9175C140.721 14.495 141.239 14.1078 141.965 13.7558C142.69 13.3861 143.58 13.2013 144.633 13.2013C146.447 13.2013 147.82 13.8702 148.753 15.2079C149.686 16.5281 150.152 18.1826 150.152 20.1716C150.152 22.1782 149.686 23.8416 148.753 25.1617C147.82 26.4818 146.447 27.1419 144.633 27.1419C143.114 27.1419 141.991 26.8427 141.265 26.2442C140.557 25.6458 139.979 24.8185 139.529 23.7624H138.312L139.27 26.5083V32H134.322V13.4653ZM139.27 20.1716C139.27 21.0869 139.495 21.7382 139.944 22.1254C140.393 22.5127 141.136 22.7063 142.172 22.7063C143.226 22.7063 143.994 22.5127 144.478 22.1254C144.962 21.7206 145.203 21.0693 145.203 20.1716C145.203 19.2739 144.962 18.6315 144.478 18.2442C143.994 17.8394 143.226 17.637 142.172 17.637C141.136 17.637 140.393 17.8394 139.944 18.2442C139.495 18.6315 139.27 19.2739 139.27 20.1716Z" fill="#FFAE14"/>
<path d="M151.97 20.1452C151.97 18.9483 152.169 17.901 152.566 17.0033C152.981 16.088 153.542 15.3575 154.25 14.8119C154.958 14.2662 155.761 13.8614 156.66 13.5974C157.558 13.3333 158.534 13.2013 159.587 13.2013C161.798 13.2013 163.612 13.7822 165.028 14.9439C166.462 16.088 167.179 17.8218 167.179 20.1452C167.179 21.747 166.816 23.0847 166.09 24.1584C165.382 25.2321 164.475 25.9978 163.37 26.4554C162.264 26.9131 161.004 27.1419 159.587 27.1419C157.359 27.1419 155.528 26.5699 154.095 25.4257C152.678 24.264 151.97 22.5038 151.97 20.1452ZM156.919 20.1452C156.919 21.8526 157.808 22.7063 159.587 22.7063C161.332 22.7063 162.204 21.8526 162.204 20.1452C162.204 18.473 161.332 17.637 159.587 17.637C157.808 17.637 156.919 18.473 156.919 20.1452Z" fill="#FFAE14"/>
<path d="M182.468 13.4653H187.417V26.8779H168.529V13.4653H173.478V22.4422H175.499V13.4653H180.447V22.4422H182.468V13.4653Z" fill="#FFAE14"/>
<path d="M195.523 12.33C193.847 12.33 193.01 11.6084 193.01 10.165C193.01 8.72167 193.847 8 195.523 8C196.335 8 196.974 8.18482 197.44 8.55446C197.906 8.90649 198.14 9.44334 198.14 10.165C198.14 11.6084 197.267 12.33 195.523 12.33ZM189.745 26.8779V22.4422H193.372V17.769L190.082 17.901V13.4653L195.834 13.2013C196.628 13.1661 197.241 13.3685 197.673 13.8086C198.122 14.2486 198.347 14.8823 198.347 15.7096V22.4422H202V26.8779H189.745Z" fill="#FFAE14"/>
<path d="M10.5075 24.3086C8.83583 22.4769 8 20.1561 8 17.3463C8 14.5365 8.83583 12.2247 10.5075 10.4107C12.1969 8.59681 14.4554 7.68985 17.283 7.68985C20.1106 7.68985 22.3602 8.6057 24.0319 10.4374C25.7035 12.2513 26.5394 14.5543 26.5394 17.3463C26.5394 20.1561 25.7035 22.4769 24.0319 24.3086C22.3602 26.1225 20.1106 27.0295 17.283 27.0295C14.4554 27.0295 12.1969 26.1225 10.5075 24.3086ZM12.9349 12.4914C11.9391 13.6829 11.4411 15.3012 11.4411 17.3463C11.4411 19.3914 11.9391 21.0186 12.9349 22.2279C13.9308 23.4372 15.3802 24.0418 17.283 24.0418C19.1859 24.0418 20.6263 23.4372 21.6044 22.2279C22.6003 21.0186 23.0982 19.3914 23.0982 17.3463C23.0982 15.3012 22.6003 13.6829 21.6044 12.4914C20.6085 11.2821 19.1681 10.6775 17.283 10.6775C15.3802 10.6775 13.9308 11.2821 12.9349 12.4914Z" fill="white"/>
<path d="M39.246 13.3717H42.6604V26.7627H39.246V21.561H32.4438V26.7627H29.0027V13.3717H32.4438V18.5734H39.246V13.3717Z" fill="white"/>
<path d="M58.8678 13.3717V26.7627H55.4533V16.3593H51.6121C51.5943 17.5508 51.5498 18.5734 51.4787 19.427C51.4254 20.2806 51.3186 21.1342 51.1586 21.9878C50.9985 22.8237 50.7762 23.5172 50.4917 24.0685C50.225 24.602 49.8693 25.0911 49.4247 25.5356C48.9979 25.9625 48.4644 26.2737 47.8242 26.4693C47.2018 26.6649 46.4637 26.7627 45.6101 26.7627V23.7751C46.7661 23.7751 47.4863 23.0726 47.7708 21.6677C48.0554 20.2628 48.1976 17.4975 48.1976 13.3717H58.8678Z" fill="white"/>
<path d="M61.8394 23.0815C61.8394 21.9256 62.2217 21.0097 62.9864 20.334C63.7689 19.6582 65.0493 19.2136 66.8276 19.0002L71.4692 18.44C71.4158 16.7684 70.3844 15.9325 68.3748 15.9325C67.4323 15.9325 66.6765 16.1459 66.1074 16.5727C65.5561 16.9818 65.2805 17.6042 65.2805 18.44H62.0261C62.0261 16.8573 62.6129 15.5769 63.7867 14.5988C64.9604 13.6029 66.4898 13.1049 68.3748 13.1049C70.3132 13.1049 71.8871 13.6385 73.0964 14.7055C74.3056 15.7547 74.9103 17.2663 74.9103 19.2403V23.7751H76.8576V26.7627H74.1367C73.5498 26.7627 73.0964 26.6027 72.7762 26.2826C72.4739 25.9625 72.3228 25.5179 72.3228 24.9488V24.4953L72.8563 22.9748H71.9493C71.3091 25.6779 69.513 27.0295 66.5609 27.0295C65.6006 27.0295 64.7825 26.8961 64.1068 26.6293C63.4488 26.3626 62.9686 26.0069 62.6663 25.5623C62.364 25.1177 62.1506 24.6998 62.0261 24.3086C61.9016 23.8996 61.8394 23.4905 61.8394 23.0815ZM65.2805 22.4947C65.2805 23.0104 65.4494 23.4016 65.7873 23.6684C66.143 23.9173 66.6054 24.0418 67.1744 24.0418C68.4726 24.0418 69.513 23.7217 70.2954 23.0815C71.0779 22.4235 71.4692 21.5699 71.4692 20.5207L67.4412 21.0275C66.6765 21.1164 66.1252 21.2676 65.7873 21.481C65.4494 21.6766 65.2805 22.0145 65.2805 22.4947Z" fill="white"/>
<path d="M90.7877 6.86292C90.7877 8.32117 90.3965 9.52156 89.614 10.4641C88.8493 11.4066 87.7112 11.8779 86.1996 11.8779C84.6702 11.8779 83.5142 11.4066 82.7318 10.4641C81.9671 9.52156 81.5847 8.32117 81.5847 6.86292H84.2256C84.2256 7.78766 84.3856 8.44565 84.7057 8.83689C85.0258 9.22813 85.5238 9.42375 86.1996 9.42375C86.8753 9.42375 87.3644 9.22813 87.6667 8.83689C87.9868 8.44565 88.1469 7.78766 88.1469 6.86292H90.7877ZM93.3752 26.7627H89.9608V16.1459L90.5743 14.2787H89.694L85.586 26.7627H78.8105V13.3717H82.2516V23.9085L81.6381 25.8824H82.5184L86.6264 13.3717H93.3752V26.7627Z" fill="white"/>
<path d="M106.586 13.3717H110V26.7627H106.586V21.561H99.7833V26.7627H96.3422V13.3717H99.7833V18.5734H106.586V13.3717Z" fill="white"/>
</svg>
